<svg version="1.1" preserveAspectRatio="none" xmlns="http://www.w3.org/2000/svg" width="500" height="500" viewBox="0 0 500 500"><rect width="100%" height="100%" fill="#000000" fill-opacity="1"/><svg viewBox="36.514 252.5957 466.386 222" width="333" height="158.50818849622414" x="83.5px" y="170.7459px" xmlns="http://www.w3.org/2000/svg" xmlns:xlink="http://www.w3.org/1999/xlink" preserveAspectRatio="none"><defs></defs><style>.aa2O-D20rgJ0filter-floo {flood-color:#F539BD;flood-opacity:1;}.ai0NrGVRvc0filter-floo {flood-color:#F3F3F3;flood-opacity:0.91;}.aRWrrEA-PR0filter-floo {flood-color:#E9B0D6;flood-opacity:0.5;}.atUk6sjh6M0filter-floo {flood-color:#FFC7C7;flood-opacity:0.89;}.companyName {fill:#FBE1EF;fill-opacity:1;}.icon3 {fill:#F539BD;fill-opacity:1;}.icon3-str {stroke:#F539BD;stroke-opacity:1;}.shape-floo {flood-color:#2525CE;flood-opacity:1;}.text {fill:#F3F3F3;fill-opacity:1;}</style><defs>
      <filter
        x="36.514"
        y="252.5957"
        width="466.386"
        height="222"
        id="ikYEXSHZT"
        filterUnits="userSpaceOnUse"
        primitiveUnits="userSpaceOnUse"
        color-interpolation-filters="sRGB">
        
    <feGaussianBlur in="SourceGraphic" stdDeviation="7"/>
    <feOffset dx="2.4630255792620215" dy="2.4630255792620215" result="tGVOFr67-Xz"/>
    <feFlood flood-color="#2525CE" flood-opacity="1" in="tGVOFr67-Xz" />
    <feComposite  in2="tGVOFr67-Xz" operator="in" result="IHSVf779K-g"/><feMerge result="dpq3kLBxVr2"><feMergeNode in="IHSVf779K-g" /><feMergeNode in="SourceGraphic" /></feMerge><feGaussianBlur  result="ZTxljIJ15dx" stdDeviation="10" />
      </filter>
      <filter
        x="73.0415"
        y="289.1327"
        width="388.405"
        height="144"
        id="tUk6sjh6M"
        filterUnits="userSpaceOnUse"
        primitiveUnits="userSpaceOnUse"
        color-interpolation-filters="sRGB">
        
    <feGaussianBlur in="SourceGraphic" stdDeviation="4"/>
    <feOffset dx="0" dy="0" result="JqHwh32KVpA"/>
    <feFlood flood-color="#FFC7C7" flood-opacity="0.89" in="JqHwh32KVpA" />
    <feComposite  in2="JqHwh32KVpA" operator="in" result="iRNk8VXRLl8"/><feMerge result="Zz3VlRYd2pZ"><feMergeNode in="iRNk8VXRLl8" /><feMergeNode in="SourceGraphic" /></feMerge>
      </filter></defs><g opacity="1" transform="rotate(0 102.4003 449.1327)">
<svg width="329.6874" height="19.2" x="102.4003" y="449.1327" version="1.1" preserveAspectRatio="none" viewBox="0.36 -28 622.24 36.239999999999995">
  <g transform="matrix(1 0 0 1 0 0)" class="text"><path id="id-6izo4zJp28" d="M19.16-22.24L12 0L8.60 0L0.36-26.48L3.52-26.48L10.32-4.24L17.44-26.48L20.88-26.48L28-4.24L34.80-26.48L37.96-26.48L29.72 0L26.32 0L19.16-22.24Z M44.92-28L47.92-28L47.92-16.88Q49-18.32 50.56-19.32Q52.12-20.32 54.12-20.32Q56.12-20.32 57.56-19.76Q59-19.20 60.08-18.08L60.08-18.08Q62.56-15.64 62.56-11.64L62.56-11.64L62.56 0L59.56 0L59.56-11.56Q59.56-14.32 58-15.96Q56.44-17.60 53.96-17.60L53.96-17.60Q51.44-17.60 49.68-15.92L49.68-15.92Q47.92-14.20 47.92-11.52L47.92-11.52L47.92 0L44.92 0L44.92-28Z M80.48-2.40L80.48-2.40Q84.52-2.40 86.28-5.76L86.28-5.76L89.56-5.76Q88.52-3.04 86.26-1.36Q84.00 0.32 80.44 0.32L80.44 0.32Q75.92 0.32 73.08-2.68L73.08-2.68Q70.32-5.60 70.32-10L70.32-10Q70.32-14.44 72.96-17.32L72.96-17.32Q75.76-20.32 80.24-20.32L80.24-20.32Q84.72-20.32 87.52-17.32L87.52-17.32Q90.16-14.44 90.16-10L90.16-10L90.16-8.80L73.40-8.80Q73.72-6.04 75.60-4.24L75.60-4.24Q77.52-2.40 80.48-2.40ZM80.24-17.60L80.24-17.60Q77.48-17.60 75.60-15.88L75.60-15.88Q73.84-14.24 73.44-11.60L73.44-11.60L87.04-11.60Q86.64-14.24 84.88-15.88L84.88-15.88Q83.00-17.60 80.24-17.60Z M108.20-20.32L108.40-20.32L108.40-17.32L108.04-17.32Q104.80-17.32 102.76-14.72L102.76-14.72Q100.84-12.24 100.84-8.80L100.84-8.80L100.84 0L97.84 0L97.84-20L100.84-20L100.84-15.08Q101.80-18.20 105.00-19.68L105.00-19.68Q106.32-20.32 108.20-20.32L108.20-20.32Z M124.04-2.40L124.04-2.40Q128.08-2.40 129.84-5.76L129.84-5.76L133.12-5.76Q132.08-3.04 129.82-1.36Q127.56 0.32 124.00 0.32L124.00 0.32Q119.48 0.32 116.64-2.68L116.64-2.68Q113.88-5.60 113.88-10L113.88-10Q113.88-14.44 116.52-17.32L116.52-17.32Q119.32-20.32 123.80-20.32L123.80-20.32Q128.28-20.32 131.08-17.32L131.08-17.32Q133.72-14.44 133.72-10L133.72-10L133.72-8.80L116.96-8.80Q117.28-6.04 119.16-4.24L119.16-4.24Q121.08-2.40 124.04-2.40ZM123.80-17.60L123.80-17.60Q121.04-17.60 119.16-15.88L119.16-15.88Q117.40-14.24 117.00-11.60L117.00-11.60L130.60-11.60Q130.20-14.24 128.44-15.88L128.44-15.88Q126.56-17.60 123.80-17.60Z M174.04-23.60L157.56-23.60L157.56-14.72L172.28-14.72L172.28-11.80L157.56-11.80L157.56-2.88L174.04-2.88L174.04 0L154.56 0L154.56-26.48L174.04-26.48L174.04-23.60Z M195.04-20L198.32-20L190.52 0L187 0L179.16-20L182.44-20L188.76-3.20L195.04-20Z M213.80-2.40L213.80-2.40Q217.84-2.40 219.60-5.76L219.60-5.76L222.88-5.76Q221.84-3.04 219.58-1.36Q217.32 0.32 213.76 0.32L213.76 0.32Q209.24 0.32 206.40-2.68L206.40-2.68Q203.64-5.60 203.64-10L203.64-10Q203.64-14.44 206.28-17.32L206.28-17.32Q209.08-20.32 213.56-20.32L213.56-20.32Q218.04-20.32 220.84-17.32L220.84-17.32Q223.48-14.44 223.48-10L223.48-10L223.48-8.80L206.72-8.80Q207.04-6.04 208.92-4.24L208.92-4.24Q210.84-2.40 213.80-2.40ZM213.56-17.60L213.56-17.60Q210.80-17.60 208.92-15.88L208.92-15.88Q207.16-14.24 206.76-11.60L206.76-11.60L220.36-11.60Q219.96-14.24 218.20-15.88L218.20-15.88Q216.32-17.60 213.56-17.60Z M241.52-20.32L241.72-20.32L241.72-17.32L241.36-17.32Q238.12-17.32 236.08-14.72L236.08-14.72Q234.16-12.24 234.16-8.80L234.16-8.80L234.16 0L231.16 0L231.16-20L234.16-20L234.16-15.08Q235.12-18.20 238.32-19.68L238.32-19.68Q239.64-20.32 241.52-20.32L241.52-20.32Z M266.12-20L254.28 7.92L251.04 7.92L254.68-0.28L246.52-20L249.84-20L256.28-3.60L262.84-20L266.12-20Z M297.80-2.60L297.80-2.60Q300.64-2.60 302.78-4.04Q304.92-5.48 305.96-7.92L305.96-7.92L309.12-7.92Q307.80-4.16 304.76-2L304.76-2Q301.52 0.32 297.12 0.32L297.12 0.32Q291.32 0.32 287.72-3.64L287.72-3.64Q284.32-7.44 284.32-13.24Q284.32-19.04 287.72-22.84L287.72-22.84Q291.32-26.80 297.12-26.80L297.12-26.80Q301.52-26.80 304.76-24.48L304.76-24.48Q307.80-22.32 309.12-18.56L309.12-18.56L305.96-18.56Q304.92-21 302.78-22.44Q300.64-23.88 297.80-23.88Q294.96-23.88 293.08-23.06Q291.20-22.24 289.92-20.80L289.92-20.80Q287.32-17.88 287.32-13.24L287.32-13.24Q287.32-8.60 289.92-5.68L289.92-5.68Q292.64-2.60 297.80-2.60Z M319.96-28L319.96 0L316.96 0L316.96-28L319.96-28Z M329.16 0L329.16-20L332.16-20L332.16 0L329.16 0ZM329.04-27.28L332.28-27.28L332.28-23.36L329.04-23.36L329.04-27.28Z M350.60-2.40L350.60-2.40Q352.52-2.40 354-3.48Q355.48-4.56 356.16-6.28L356.16-6.28L359.40-6.28Q358.48-3.32 356.04-1.52L356.04-1.52Q353.48 0.32 349.96 0.32L349.96 0.32Q345.56 0.32 342.80-2.68L342.80-2.68Q340.12-5.60 340.12-10L340.12-10Q340.12-14.40 342.80-17.32L342.80-17.32Q345.56-20.32 349.96-20.32L349.96-20.32Q353.48-20.32 356.04-18.48L356.04-18.48Q358.48-16.68 359.40-13.72L359.40-13.72L356.16-13.72Q355.48-15.44 354-16.52Q352.52-17.60 350.60-17.60Q348.68-17.60 347.34-17Q346-16.40 345.08-15.36L345.08-15.36Q343.12-13.20 343.12-10L343.12-10Q343.12-6.80 345.08-4.64L345.08-4.64Q347.08-2.40 350.60-2.40Z M383.96-20L375.92-12.12L384.56 0L380.88 0L373.88-10.04L370.12-6.32L370.12 0L367.12 0L367.12-28L370.12-28L370.12-10.08L379.76-20L383.96-20Z M424.60-19.48L424.60-19.48Q424.60-15.12 421.04-13.52L421.04-13.52Q424.32-12.44 425.52-9.56L425.52-9.56Q425.96-8.44 425.96-6.96L425.96-6.96Q425.96-2.16 420.88-0.56L420.88-0.56Q419.20 0 416.92 0L416.92 0L404.36 0L404.36-26.48L416.24-26.48Q420.52-26.48 422.76-24.16L422.76-24.16Q424.60-22.32 424.60-19.48ZM407.36-23.64L407.36-14.64L416.24-14.64Q419.92-14.64 421.16-17.16L421.16-17.16Q421.60-18.04 421.60-19.06Q421.60-20.08 421.32-20.86Q421.04-21.64 420.44-22.24L420.44-22.24Q419.12-23.64 416.56-23.64L416.56-23.64L407.36-23.64ZM407.36-2.84L417.24-2.84Q420.00-2.84 421.48-3.98Q422.96-5.12 422.96-7.20L422.96-7.20Q422.96-9.20 421.52-10.48L421.52-10.48Q419.92-11.92 416.92-11.92L416.92-11.92L407.36-11.92L407.36-2.84Z M444.56-20.32L444.76-20.32L444.76-17.32L444.40-17.32Q441.16-17.32 439.12-14.72L439.12-14.72Q437.20-12.24 437.20-8.80L437.20-8.80L437.20 0L434.20 0L434.20-20L437.20-20L437.20-15.08Q438.16-18.20 441.36-19.68L441.36-19.68Q442.68-20.32 444.56-20.32L444.56-20.32Z M452 0L452-20L455-20L455 0L452 0ZM451.88-27.28L455.12-27.28L455.12-23.36L451.88-23.36L451.88-27.28Z M464.20-20L467.20-20L467.20-16.88Q468.28-18.32 469.84-19.32Q471.40-20.32 473.40-20.32Q475.40-20.32 476.84-19.76Q478.28-19.20 479.36-18.08L479.36-18.08Q481.84-15.64 481.84-11.64L481.84-11.64L481.84 0L478.84 0L478.84-11.56Q478.84-14.32 477.28-15.96Q475.72-17.60 473.24-17.60L473.24-17.60Q470.72-17.60 468.96-15.92L468.96-15.92Q467.20-14.20 467.20-11.52L467.20-11.52L467.20 0L464.20 0L464.20-20Z M506.44-16.80L506.44-16.80L506.44-20L509.44-20L509.44-0.60Q509.44 3.72 506.98 5.98Q504.52 8.24 500.36 8.24Q496.20 8.24 493.86 6.64Q491.52 5.04 490.68 2.40L490.68 2.40L494.00 2.40Q495.28 5.52 499.84 5.52L499.84 5.52Q503.32 5.52 504.88 3.92Q506.44 2.32 506.44-0.80L506.44-0.80L506.44-3.56Q504.00 0 499.28 0L499.28 0Q494.96 0 492.24-2.96L492.24-2.96Q489.60-5.84 489.60-10.16L489.60-10.16Q489.60-14.48 492.24-17.36L492.24-17.36Q494.96-20.32 499.50-20.32Q504.04-20.32 506.44-16.80ZM499.68-2.72L499.68-2.72Q501.32-2.72 502.60-3.30Q503.88-3.88 504.80-4.88L504.80-4.88Q506.60-6.96 506.60-10.16L506.60-10.16Q506.60-13.36 504.80-15.44L504.80-15.44Q502.84-17.60 499.68-17.60L499.68-17.60Q496.44-17.60 494.48-15.44L494.48-15.44Q492.60-13.32 492.60-10.16L492.60-10.16Q492.60-7 494.48-4.88L494.48-4.88Q496.44-2.72 499.68-2.72Z M533.44-14.64L530.40-14.64Q530-17.76 525.38-17.76Q520.76-17.76 520.76-14.88L520.76-14.88Q520.76-13.68 521.74-13.06Q522.72-12.44 524.20-12.04Q525.68-11.64 527.42-11.30Q529.16-10.96 530.64-10.34Q532.12-9.72 533.10-8.64Q534.08-7.56 534.08-5.68L534.08-5.68Q534.08-2.76 531.88-1.22Q529.68 0.32 525.92 0.32L525.92 0.32Q521.92 0.32 519.56-1.68L519.56-1.68Q517.40-3.44 517.24-6.28L517.24-6.28L520.36-6.28Q520.64-3.52 523.48-2.56L523.48-2.56Q524.52-2.24 525.54-2.24Q526.56-2.24 527.44-2.36Q528.32-2.48 529.16-2.80L529.16-2.80Q531.08-3.56 531.08-5.40L531.08-5.40Q531.08-6.64 530.10-7.30Q529.12-7.96 527.64-8.38Q526.16-8.80 524.42-9.14Q522.68-9.48 521.20-10.08Q519.72-10.68 518.74-11.72Q517.76-12.76 517.76-14.60L517.76-14.60Q517.76-17.32 519.74-18.82Q521.72-20.32 525.60-20.32L525.60-20.32Q529.28-20.32 531.40-18.56L531.40-18.56Q533.16-17.08 533.44-14.64L533.44-14.64Z M566.92-26.48L569.92-26.48L569.92-8.76Q569.92-4.92 568.00-2.48L568.00-2.48Q565.76 0.32 561.28 0.32L561.28 0.32Q557.24 0.32 554.84-2L554.84-2Q552.72-4.12 552.44-7.08L552.44-7.08L555.56-7.08Q555.84-5.32 557.20-4.08L557.20-4.08Q558.80-2.60 561.44-2.60L561.44-2.60Q564.64-2.60 566.00-4.72L566.00-4.72Q566.92-6.20 566.92-8.88L566.92-8.88L566.92-26.48Z M587.84-20.32L587.84-20.32Q592.32-20.32 595.12-17.32L595.12-17.32Q597.76-14.44 597.76-10L597.76-10Q597.76-5.56 595.12-2.68L595.12-2.68Q592.32 0.32 587.84 0.32L587.84 0.32Q583.36 0.32 580.56-2.68L580.56-2.68Q577.92-5.56 577.92-10L577.92-10Q577.92-14.44 580.56-17.32L580.56-17.32Q583.36-20.32 587.84-20.32ZM587.84-2.40L587.84-2.40Q591.08-2.40 592.96-4.64L592.96-4.64Q594.76-6.76 594.76-10L594.76-10Q594.76-13.24 592.96-15.36L592.96-15.36Q591.08-17.60 587.84-17.60L587.84-17.60Q584.60-17.60 582.72-15.36L582.72-15.36Q580.92-13.24 580.92-10L580.92-10Q580.92-6.76 582.72-4.64L582.72-4.64Q584.60-2.40 587.84-2.40Z M622.60-20L610.76 7.92L607.52 7.92L611.16-0.28L603.00-20L606.32-20L612.76-3.60L619.32-20L622.60-20Z"/></g>
</svg>
</g><g filter="url(#ikYEXSHZT)"><g opacity="1" transform="rotate(0 85.051 301.1327)">
<svg width="364.386" height="120" x="85.051" y="301.1327" version="1.1" preserveAspectRatio="none" viewBox="1.9531 -29.2969 149.2773 49.1602">
  <g transform="matrix(1 0 0 1 0 0)" class="icon3"><path id="id-BEGfasMba11" d="M35.43-20.51L35.43-20.51Q35.37-20.23 35.18-20.08Q34.98-19.92 34.75-19.92L34.75-19.92Q34.39-19.92 34.18-20.15Q33.96-20.37 33.96-20.66L33.96-20.66Q33.96-20.96 34.02-21.24Q34.08-21.52 34.08-21.80L34.08-21.80Q34.08-23.22 33.20-24.36Q32.32-25.49 30.71-26.26Q29.10-27.03 26.80-27.44Q24.49-27.85 21.66-27.85L21.66-27.85Q19.49-27.85 17.29-27.57Q15.10-27.29 13.08-26.75Q11.05-26.21 9.30-25.40Q7.54-24.59 6.24-23.53Q4.94-22.46 4.20-21.16Q3.46-19.86 3.46-18.32L3.46-18.32Q3.46-17.13 3.97-16.22Q4.49-15.31 5.39-14.64Q6.29-13.96 7.51-13.49Q8.73-13.01 10.16-12.69Q11.58-12.36 13.13-12.16Q14.67-11.95 16.23-11.82L16.23-11.82L19.24-11.56Q21.48-11.37 23.26-11.15Q25.04-10.94 26.39-10.61L26.39-10.61Q28.63-10.04 29.71-8.98Q30.78-7.93 30.78-6.17L30.78-6.17Q30.78-4.47 29.84-3.18Q28.91-1.89 27.29-1.02Q25.66-0.14 23.50 0.31Q21.33 0.76 18.85 0.76L18.85 0.76Q16.15 0.76 14.11 0.40Q12.07 0.04 10.69-0.40Q9.32-0.84 8.59-1.21Q7.87-1.58 7.81-1.62L7.81-1.62Q7.46-1.82 7.46-2.25L7.46-2.25Q7.46-2.58 7.70-2.78Q7.93-2.99 8.20-2.99L8.20-2.99Q8.42-2.99 8.59-2.87L8.59-2.87Q8.61-2.87 9.27-2.53Q9.92-2.19 11.22-1.78Q12.52-1.37 14.43-1.04Q16.35-0.70 18.89-0.70L18.89-0.70Q21.41-0.70 23.34-1.11Q25.27-1.52 26.59-2.26Q27.91-2.99 28.58-3.97Q29.26-4.96 29.26-6.11L29.26-6.11Q29.26-6.80 29.01-7.29Q28.77-7.79 28.34-8.15Q27.91-8.52 27.31-8.77Q26.72-9.02 26.02-9.20L26.02-9.20Q25.27-9.39 24.42-9.53Q23.57-9.67 22.68-9.77Q21.78-9.86 20.87-9.94Q19.96-10.02 19.08-10.10L19.08-10.10L16.07-10.35Q12.52-10.64 9.87-11.26Q7.23-11.88 5.47-12.84Q3.71-13.81 2.83-15.16Q1.95-16.50 1.95-18.30L1.95-18.30Q1.95-20.14 2.78-21.67Q3.61-23.20 5.05-24.43Q6.48-25.66 8.41-26.57Q10.33-27.48 12.52-28.09Q14.71-28.69 17.05-28.99Q19.39-29.30 21.66-29.30L21.66-29.30Q24.49-29.30 26.59-28.96Q28.69-28.61 30.19-28.08Q31.68-27.54 32.64-26.86Q33.59-26.17 34.18-25.51L34.18-25.51Q35.57-23.89 35.57-21.82L35.57-21.82Q35.57-21.13 35.43-20.51Z M37.71-2.58L37.73-1.66Q38.05-2.32 38.46-3.10Q38.87-3.87 39.34-4.68Q39.80-5.49 40.33-6.29Q40.86-7.09 41.43-7.79L41.43-7.79Q41.99-8.48 42.57-8.78Q43.14-9.08 43.65-9.08L43.65-9.08Q44.16-9.08 44.54-8.88Q44.92-8.67 45.17-8.32Q45.41-7.97 45.54-7.50Q45.66-7.03 45.66-6.48L45.66-6.48Q45.66-6.04 45.58-5.28Q45.49-4.53 45.49-3.71L45.49-3.71Q45.49-3.24 45.54-2.78Q45.59-2.32 45.71-1.96Q45.84-1.60 46.09-1.38Q46.35-1.15 46.76-1.15L46.76-1.15Q47.23-1.15 47.70-1.42Q48.16-1.68 48.61-2.12Q49.06-2.56 49.47-3.10Q49.88-3.63 50.21-4.17Q50.55-4.71 50.80-5.21Q51.05-5.70 51.21-6.04L51.21-6.04Q51.41-6.48 51.89-6.48L51.89-6.48Q52.23-6.48 52.42-6.25Q52.62-6.02 52.62-5.74L52.62-5.74Q52.62-5.59 52.56-5.45L52.56-5.45Q52.48-5.29 52.26-4.80Q52.03-4.32 51.65-3.67Q51.27-3.03 50.76-2.32Q50.25-1.62 49.64-1.03Q49.02-0.43 48.31-0.05Q47.60 0.33 46.82 0.33L46.82 0.33Q45.92 0.33 45.37-0.05Q44.82-0.43 44.52-1.02Q44.22-1.60 44.11-2.32Q44.00-3.05 44.00-3.73L44.00-3.73Q44.00-4.08 44.03-4.48Q44.06-4.88 44.10-5.27Q44.14-5.66 44.17-6.01Q44.20-6.35 44.20-6.58L44.20-6.58Q44.20-7.19 44.03-7.40Q43.87-7.62 43.65-7.62L43.65-7.62Q43.34-7.62 42.94-7.26Q42.54-6.89 42.10-6.31Q41.66-5.72 41.22-4.99Q40.78-4.26 40.37-3.54Q39.96-2.81 39.63-2.16Q39.30-1.50 39.08-1.07L39.08-1.07Q38.67-0.25 38.25 0.03Q37.83 0.31 37.50 0.31L37.50 0.31Q36.89 0.31 36.57-0.17Q36.25-0.64 36.25-1.33L36.25-1.33L36.25-2.56Q36.25-6.25 36.26-9.60Q36.27-12.95 36.36-15.83Q36.45-18.71 36.65-21.04Q36.86-23.38 37.27-25.03Q37.68-26.68 38.31-27.58Q38.95-28.48 39.90-28.48L39.90-28.48Q40.72-28.48 41.29-28.03Q41.86-27.58 42.21-26.81Q42.56-26.04 42.71-25.01Q42.87-23.98 42.87-22.85L42.87-22.85Q42.87-20.55 42.45-18.33Q42.03-16.11 41.33-14.00Q40.63-11.89 39.69-9.89Q38.75-7.89 37.71-6.00L37.71-6.00Q37.71-5.64 37.71-5.16Q37.71-4.67 37.71-4.18Q37.71-3.69 37.71-3.26Q37.71-2.83 37.71-2.58L37.71-2.58ZM37.73-8.87L37.73-8.87Q38.55-10.66 39.23-12.37Q39.90-14.08 40.38-15.78Q40.86-17.48 41.13-19.23Q41.41-20.98 41.41-22.87L41.41-22.87Q41.41-23.18 41.38-23.87Q41.35-24.55 41.20-25.25Q41.05-25.96 40.75-26.48Q40.45-27.01 39.90-27.01L39.90-27.01Q39.47-27.01 39.16-26.44Q38.85-25.86 38.61-24.87Q38.38-23.89 38.22-22.58Q38.07-21.27 37.97-19.80Q37.87-18.34 37.82-16.80Q37.77-15.25 37.75-13.80Q37.73-12.34 37.73-11.07Q37.73-9.80 37.73-8.87Z M60.21-2.15L60.21-2.15Q59.73-2.15 59.36-2.23L59.36-2.23Q59.06-1.64 58.65-1.14Q58.24-0.64 57.71-0.27Q57.17 0.10 56.50 0.31Q55.84 0.53 55.06 0.53L55.06 0.53Q54.14 0.53 53.38 0.21Q52.62-0.12 52.05-0.69Q51.48-1.27 51.17-2.08Q50.86-2.89 50.86-3.87L50.86-3.87Q50.86-5.12 51.31-6.04Q51.76-6.97 52.34-7.59Q52.93-8.20 53.52-8.51Q54.10-8.81 54.39-8.81L54.39-8.81Q54.73-8.81 54.89-8.63Q55.06-8.46 55.06-8.16L55.06-8.16Q55.06-7.83 54.85-7.67Q54.65-7.50 54.34-7.34L54.34-7.34Q54.02-7.19 53.67-6.90Q53.32-6.62 53.02-6.19Q52.71-5.76 52.52-5.18Q52.32-4.59 52.32-3.87L52.32-3.87Q52.32-3.22 52.52-2.67Q52.71-2.11 53.09-1.71Q53.46-1.31 53.96-1.08Q54.47-0.86 55.10-0.86L55.10-0.86Q56.21-0.86 56.94-1.38Q57.68-1.89 58.07-2.70L58.07-2.70Q56.91-3.30 56.17-4.41Q55.43-5.53 55.43-6.91L55.43-6.91Q55.43-8.03 55.97-8.73Q56.50-9.43 57.38-9.43L57.38-9.43Q57.91-9.43 58.38-9.18Q58.85-8.93 59.21-8.38Q59.57-7.83 59.79-6.97Q60-6.11 60-4.92L60-4.92Q60-4.30 59.84-3.61L59.84-3.61Q59.96-3.59 60.08-3.59Q60.20-3.59 60.33-3.59L60.33-3.59Q61.00-3.59 61.52-3.75Q62.05-3.91 62.48-4.22Q62.91-4.53 63.25-5.02Q63.59-5.51 63.91-6.15L63.91-6.15Q63.96-6.27 64.16-6.38Q64.36-6.48 64.55-6.48L64.55-6.48Q64.80-6.48 65.03-6.28Q65.25-6.07 65.25-5.74L65.25-5.74Q65.25-5.59 65.18-5.40Q65.10-5.21 65.02-5.06L65.02-5.06Q64.69-4.47 64.25-3.94Q63.81-3.40 63.21-3.00Q62.62-2.60 61.88-2.36Q61.13-2.13 60.21-2.15ZM56.88-7.07L56.88-7.07Q56.88-6.70 56.97-6.29Q57.07-5.88 57.28-5.48Q57.48-5.08 57.78-4.72Q58.09-4.36 58.50-4.10L58.50-4.10Q58.55-4.51 58.55-4.90L58.55-4.90Q58.55-5.43 58.48-5.98Q58.40-6.52 58.25-6.98Q58.11-7.44 57.89-7.72Q57.68-8.01 57.38-8.01L57.38-8.01Q57.27-8.01 57.07-7.83Q56.88-7.66 56.88-7.07Z M73.87-5.45L73.87-5.45Q73.87-3.65 73.22-2.38Q72.58-1.11 71.64-0.45L71.64-0.45L71.72-0.45Q72.87-0.45 73.82-0.97Q74.77-1.48 75.53-2.29Q76.29-3.11 76.89-4.10Q77.50-5.10 77.97-6.04L77.97-6.04Q78.07-6.25 78.25-6.37Q78.44-6.48 78.65-6.48L78.65-6.48Q78.98-6.48 79.18-6.25Q79.38-6.02 79.38-5.74L79.38-5.74Q79.38-5.59 79.32-5.45L79.32-5.45Q78.81-4.32 78.11-3.17Q77.40-2.03 76.46-1.11Q75.53-0.20 74.36 0.38Q73.18 0.96 71.76 0.96L71.76 0.96Q70.72 0.96 69.75 0.63Q68.77 0.31 68.03-0.37L68.03-0.37Q67.75-0.59 67.56-0.83Q67.36-1.07 67.25-1.29L67.25-1.29Q67.21-1.33 67.21-1.37L67.21-1.37Q67.09-1.54 67.09-1.74L67.09-1.74Q67.09-1.99 67.27-2.21L67.27-2.21Q67.29-2.25 67.30-2.26Q67.32-2.27 67.34-2.29L67.34-2.29Q67.54-2.46 67.77-2.48L67.77-2.48L67.83-2.48Q67.93-2.48 67.97-2.46L67.97-2.46Q67.99-2.46 68.00-2.45Q68.01-2.44 68.03-2.44L68.03-2.44Q68.09-2.44 68.16-2.40L68.16-2.40Q68.18-2.38 68.20-2.38L68.20-2.38Q68.38-2.27 68.50-2.09L68.50-2.09Q68.63-1.86 68.81-1.66L68.81-1.66Q68.96-1.50 69.18-1.38Q69.39-1.25 69.67-1.25L69.67-1.25Q70.16-1.25 70.64-1.54Q71.13-1.84 71.52-2.38Q71.91-2.93 72.16-3.71Q72.40-4.49 72.40-5.45L72.40-5.45Q72.40-6.15 72.26-6.65Q72.11-7.15 71.88-7.46Q71.66-7.77 71.41-7.92Q71.15-8.07 70.92-8.07L70.92-8.07Q70.39-8.07 69.85-7.52Q69.32-6.97 68.79-6.13Q68.26-5.29 67.74-4.28Q67.23-3.26 66.70-2.30L66.70-2.30Q66.66 0.86 66.59 3.73Q66.52 6.60 66.36 9.06Q66.19 11.52 65.90 13.52Q65.61 15.51 65.10 16.92Q64.59 18.34 63.85 19.10Q63.11 19.86 62.03 19.86L62.03 19.86Q61.70 19.86 61.27 19.73Q60.84 19.59 60.47 19.17Q60.10 18.75 59.84 17.97Q59.59 17.19 59.59 15.88L59.59 15.88Q59.59 14.22 60 12.03Q60.41 9.84 61.16 7.39Q61.91 4.94 62.95 2.36Q63.98-0.21 65.23-2.66L65.23-2.66Q65.23-3.34 65.24-4.00Q65.25-4.67 65.25-5.29L65.25-5.29Q65-5 64.65-5L64.65-5Q64.32-5 64.12-5.23Q63.93-5.47 63.93-5.74L63.93-5.74Q63.93-5.88 63.98-6.04L63.98-6.04Q64.45-7.11 64.71-8.08Q64.96-9.04 65.09-9.78Q65.21-10.51 65.23-10.94Q65.25-11.37 65.25-11.39L65.25-11.39Q65.25-11.68 65.47-11.89Q65.68-12.11 66.00-12.11L66.00-12.11Q66.29-12.11 66.50-11.90Q66.72-11.70 66.72-11.39L66.72-11.39L66.72-5.39Q67.17-6.15 67.62-6.89Q68.07-7.64 68.56-8.22Q69.06-8.81 69.64-9.17Q70.21-9.53 70.92-9.53L70.92-9.53Q71.58-9.53 72.13-9.22Q72.68-8.91 73.07-8.36Q73.46-7.81 73.66-7.06Q73.87-6.31 73.87-5.45ZM65.20 0.82L65.20 0.82Q64.24 2.97 63.47 5.14Q62.70 7.30 62.16 9.32Q61.62 11.33 61.33 13.09Q61.04 14.84 61.04 16.17L61.04 16.17Q61.04 16.50 61.07 16.89Q61.11 17.29 61.23 17.62Q61.35 17.95 61.56 18.17Q61.78 18.40 62.13 18.40L62.13 18.40Q62.77 18.40 63.24 17.59Q63.71 16.78 64.03 15.40Q64.36 14.02 64.57 12.24Q64.79 10.45 64.91 8.50Q65.04 6.54 65.10 4.56Q65.16 2.58 65.20 0.82Z M80.14-7.23L80.14-7.23Q80.02-6.91 79.85-6.52Q79.69-6.13 79.47-5.70L79.47-5.70Q79.30-5.37 79.11-5.19Q78.93-5 78.63-5L78.63-5Q78.30-5 78.11-5.21Q77.91-5.41 77.91-5.68L77.91-5.68Q77.91-5.78 77.93-5.85Q77.95-5.92 78.03-6.07L78.03-6.07Q78.54-7.05 78.78-7.78Q79.02-8.52 79.18-9.32L79.18-9.32Q79.04-9.77 78.98-10.08Q78.93-10.39 78.93-10.72L78.93-10.72Q78.93-11.37 79.20-11.77Q79.47-12.17 79.96-12.17L79.96-12.17Q80.41-12.17 80.67-11.78Q80.94-11.39 80.94-10.82L80.94-10.82Q80.94-10.51 80.88-10.20Q80.82-9.88 80.72-9.41L80.72-9.41Q81.17-8.30 81.62-7.44Q82.07-6.58 82.42-5.87Q82.77-5.16 83.00-4.53Q83.22-3.91 83.22-3.28L83.22-3.28Q83.22-2.46 82.89-1.72Q82.56-0.98 81.80-0.47L81.80-0.47Q81.89-0.45 81.99-0.45Q82.09-0.45 82.19-0.45L82.19-0.45Q83.30-0.45 84.24-0.96Q85.18-1.46 85.93-2.28Q86.68-3.09 87.27-4.07Q87.85-5.06 88.28-6.04L88.28-6.04Q88.48-6.48 88.83-6.48L88.83-6.48Q89.16-6.48 89.35-6.25Q89.53-6.02 89.53-5.74L89.53-5.74Q89.53-5.59 89.47-5.45L89.47-5.45Q89.26-4.92 88.92-4.25Q88.57-3.57 88.10-2.86Q87.62-2.15 86.99-1.46Q86.37-0.78 85.60-0.24Q84.82 0.29 83.91 0.62Q82.99 0.94 81.89 0.94L81.89 0.94Q80.59 0.94 79.46 0.48Q78.34 0.02 77.64-1.04L77.64-1.04Q77.52-1.21 77.52-1.41L77.52-1.41Q77.52-1.70 77.74-1.92Q77.97-2.15 78.26-2.15L78.26-2.15Q78.57-2.15 78.79-1.93L78.79-1.93Q78.81-1.89 78.93-1.81Q79.04-1.72 79.21-1.61Q79.38-1.50 79.60-1.43Q79.82-1.35 80.06-1.35L80.06-1.35Q80.53-1.35 80.85-1.54Q81.17-1.74 81.37-2.02Q81.56-2.30 81.65-2.63Q81.74-2.95 81.74-3.18L81.74-3.18Q81.74-3.67 81.58-4.16Q81.43-4.65 81.18-5.14Q80.94-5.63 80.65-6.14Q80.37-6.66 80.14-7.23Z M98.14-5.45L98.14-5.45Q98.14-3.65 97.50-2.38Q96.86-1.11 95.92-0.45L95.92-0.45L96.00-0.45Q97.15-0.45 98.10-0.97Q99.04-1.48 99.80-2.29Q100.57-3.11 101.17-4.10Q101.78-5.10 102.25-6.04L102.25-6.04Q102.34-6.25 102.53-6.37Q102.71-6.48 102.93-6.48L102.93-6.48Q103.26-6.48 103.46-6.25Q103.65-6.02 103.65-5.74L103.65-5.74Q103.65-5.59 103.59-5.45L103.59-5.45Q103.09-4.32 102.38-3.17Q101.68-2.03 100.74-1.11Q99.80-0.20 98.63 0.38Q97.46 0.96 96.04 0.96L96.04 0.96Q95 0.96 94.02 0.63Q93.05 0.31 92.30-0.37L92.30-0.37Q92.03-0.59 91.84-0.83Q91.64-1.07 91.52-1.29L91.52-1.29Q91.48-1.33 91.48-1.37L91.48-1.37Q91.37-1.54 91.37-1.74L91.37-1.74Q91.37-1.99 91.54-2.21L91.54-2.21Q91.56-2.25 91.58-2.26Q91.60-2.27 91.62-2.29L91.62-2.29Q91.82-2.46 92.05-2.48L92.05-2.48L92.11-2.48Q92.21-2.48 92.25-2.46L92.25-2.46Q92.27-2.46 92.28-2.45Q92.29-2.44 92.30-2.44L92.30-2.44Q92.36-2.44 92.44-2.40L92.44-2.40Q92.46-2.38 92.48-2.38L92.48-2.38Q92.66-2.27 92.77-2.09L92.77-2.09Q92.91-1.86 93.09-1.66L93.09-1.66Q93.24-1.50 93.46-1.38Q93.67-1.25 93.95-1.25L93.95-1.25Q94.43-1.25 94.92-1.54Q95.41-1.84 95.80-2.38Q96.19-2.93 96.44-3.71Q96.68-4.49 96.68-5.45L96.68-5.45Q96.68-6.15 96.53-6.65Q96.39-7.15 96.16-7.46Q95.94-7.77 95.68-7.92Q95.43-8.07 95.20-8.07L95.20-8.07Q94.67-8.07 94.13-7.52Q93.59-6.97 93.07-6.13Q92.54-5.29 92.02-4.28Q91.50-3.26 90.98-2.30L90.98-2.30Q90.94 0.86 90.87 3.73Q90.80 6.60 90.63 9.06Q90.47 11.52 90.18 13.52Q89.88 15.51 89.38 16.92Q88.87 18.34 88.13 19.10Q87.38 19.86 86.31 19.86L86.31 19.86Q85.98 19.86 85.55 19.73Q85.12 19.59 84.75 19.17Q84.38 18.75 84.12 17.97Q83.87 17.19 83.87 15.88L83.87 15.88Q83.87 14.22 84.28 12.03Q84.69 9.84 85.44 7.39Q86.19 4.94 87.23 2.36Q88.26-0.21 89.51-2.66L89.51-2.66Q89.51-3.34 89.52-4.00Q89.53-4.67 89.53-5.29L89.53-5.29Q89.28-5 88.93-5L88.93-5Q88.59-5 88.40-5.23Q88.20-5.47 88.20-5.74L88.20-5.74Q88.20-5.88 88.26-6.04L88.26-6.04Q88.73-7.11 88.98-8.08Q89.24-9.04 89.37-9.78Q89.49-10.51 89.51-10.94Q89.53-11.37 89.53-11.39L89.53-11.39Q89.53-11.68 89.75-11.89Q89.96-12.11 90.27-12.11L90.27-12.11Q90.57-12.11 90.78-11.90Q91.00-11.70 91.00-11.39L91.00-11.39L91.00-5.39Q91.45-6.15 91.89-6.89Q92.34-7.64 92.84-8.22Q93.34-8.81 93.92-9.17Q94.49-9.53 95.20-9.53L95.20-9.53Q95.86-9.53 96.41-9.22Q96.95-8.91 97.34-8.36Q97.73-7.81 97.94-7.06Q98.14-6.31 98.14-5.45ZM89.47 0.82L89.47 0.82Q88.52 2.97 87.74 5.14Q86.97 7.30 86.44 9.32Q85.90 11.33 85.61 13.09Q85.31 14.84 85.31 16.17L85.31 16.17Q85.31 16.50 85.35 16.89Q85.39 17.29 85.51 17.62Q85.63 17.95 85.84 18.17Q86.05 18.40 86.41 18.40L86.41 18.40Q87.05 18.40 87.52 17.59Q87.99 16.78 88.31 15.40Q88.63 14.02 88.85 12.24Q89.06 10.45 89.19 8.50Q89.32 6.54 89.38 4.56Q89.43 2.58 89.47 0.82Z M103.77-2.58L103.79-1.66Q104.10-2.32 104.51-3.10Q104.92-3.87 105.39-4.68Q105.86-5.49 106.39-6.29Q106.91-7.09 107.48-7.79L107.48-7.79Q108.05-8.48 108.62-8.78Q109.20-9.08 109.71-9.08L109.71-9.08Q110.21-9.08 110.60-8.88Q110.98-8.67 111.22-8.32Q111.46-7.97 111.59-7.50Q111.72-7.03 111.72-6.48L111.72-6.48Q111.72-6.04 111.63-5.28Q111.54-4.53 111.54-3.71L111.54-3.71Q111.54-3.24 111.59-2.78Q111.64-2.32 111.77-1.96Q111.89-1.60 112.15-1.38Q112.40-1.15 112.81-1.15L112.81-1.15Q113.28-1.15 113.75-1.42Q114.22-1.68 114.67-2.12Q115.12-2.56 115.53-3.10Q115.94-3.63 116.27-4.17Q116.60-4.71 116.86-5.21Q117.11-5.70 117.27-6.04L117.27-6.04Q117.46-6.48 117.95-6.48L117.95-6.48Q118.28-6.48 118.48-6.25Q118.67-6.02 118.67-5.74L118.67-5.74Q118.67-5.59 118.61-5.45L118.61-5.45Q118.54-5.29 118.31-4.80Q118.09-4.32 117.71-3.67Q117.32-3.03 116.82-2.32Q116.31-1.62 115.69-1.03Q115.08-0.43 114.37-0.05Q113.65 0.33 112.87 0.33L112.87 0.33Q111.97 0.33 111.43-0.05Q110.88-0.43 110.58-1.02Q110.27-1.60 110.17-2.32Q110.06-3.05 110.06-3.73L110.06-3.73Q110.06-4.08 110.09-4.48Q110.12-4.88 110.16-5.27Q110.20-5.66 110.22-6.01Q110.25-6.35 110.25-6.58L110.25-6.58Q110.25-7.19 110.09-7.40Q109.92-7.62 109.71-7.62L109.71-7.62Q109.39-7.62 108.99-7.26Q108.59-6.89 108.15-6.31Q107.71-5.72 107.28-4.99Q106.84-4.26 106.43-3.54Q106.02-2.81 105.68-2.16Q105.35-1.50 105.14-1.07L105.14-1.07Q104.73-0.25 104.31 0.03Q103.89 0.31 103.55 0.31L103.55 0.31Q102.95 0.31 102.63-0.17Q102.30-0.64 102.30-1.33L102.30-1.33L102.30-2.56Q102.30-6.25 102.31-9.60Q102.32-12.95 102.41-15.83Q102.50-18.71 102.71-21.04Q102.91-23.38 103.32-25.03Q103.73-26.68 104.37-27.58Q105-28.48 105.96-28.48L105.96-28.48Q106.78-28.48 107.34-28.03Q107.91-27.58 108.26-26.81Q108.61-26.04 108.77-25.01Q108.93-23.98 108.93-22.85L108.93-22.85Q108.93-20.55 108.51-18.33Q108.09-16.11 107.38-14.00Q106.68-11.89 105.74-9.89Q104.80-7.89 103.77-6.00L103.77-6.00Q103.77-5.64 103.77-5.16Q103.77-4.67 103.77-4.18Q103.77-3.69 103.77-3.26Q103.77-2.83 103.77-2.58L103.77-2.58ZM103.79-8.87L103.79-8.87Q104.61-10.66 105.28-12.37Q105.96-14.08 106.44-15.78Q106.91-17.48 107.19-19.23Q107.46-20.98 107.46-22.87L107.46-22.87Q107.46-23.18 107.43-23.87Q107.40-24.55 107.26-25.25Q107.11-25.96 106.81-26.48Q106.50-27.01 105.96-27.01L105.96-27.01Q105.53-27.01 105.21-26.44Q104.90-25.86 104.67-24.87Q104.43-23.89 104.28-22.58Q104.12-21.27 104.02-19.80Q103.93-18.34 103.88-16.80Q103.83-15.25 103.81-13.80Q103.79-12.34 103.79-11.07Q103.79-9.80 103.79-8.87Z M119.61-2.15L119.61-2.15Q120.02-1.58 120.66-1.24Q121.31-0.90 122.25-0.90L122.25-0.90Q123.20-0.90 123.98-1.36Q124.77-1.82 125.41-2.56Q126.05-3.30 126.56-4.22Q127.07-5.14 127.48-6.05L127.48-6.05Q127.58-6.27 127.75-6.38Q127.93-6.48 128.14-6.48L128.14-6.48Q128.48-6.48 128.68-6.25Q128.89-6.02 128.89-5.74L128.89-5.74Q128.89-5.64 128.87-5.58Q128.85-5.51 128.81-5.43L128.81-5.43Q127.46-2.46 125.87-0.96Q124.28 0.55 122.27 0.59L122.27 0.59Q120.98 0.59 120.04 0.09Q119.10-0.41 118.50-1.20Q117.89-1.99 117.60-2.99Q117.30-3.98 117.30-4.98L117.30-4.98Q117.30-5.98 117.55-6.82Q117.79-7.66 118.25-8.28Q118.71-8.91 119.35-9.26Q119.98-9.61 120.74-9.61L120.74-9.61Q121.19-9.61 121.63-9.42Q122.07-9.24 122.42-8.90Q122.77-8.55 122.99-8.07Q123.20-7.58 123.20-6.95L123.20-6.95Q123.20-6.15 122.93-5.45Q122.66-4.75 122.18-4.14Q121.70-3.54 121.04-3.03Q120.37-2.52 119.61-2.15ZM119.02-3.42L119.02-3.42Q119.63-3.67 120.13-4.06Q120.63-4.45 120.98-4.92Q121.33-5.39 121.52-5.91Q121.72-6.43 121.72-6.95L121.72-6.95Q121.72-7.54 121.43-7.84Q121.13-8.14 120.74-8.14L120.74-8.14Q120.21-8.14 119.84-7.85Q119.47-7.56 119.24-7.09Q119.00-6.62 118.90-6.04Q118.79-5.47 118.79-4.90L118.79-4.90Q118.79-4.55 118.86-4.16Q118.93-3.77 119.02-3.42Z M129.53-8.03L129.53-8.03Q129.45-7.50 129.34-7.04Q129.22-6.58 129.11-6.24Q129.00-5.90 128.93-5.68Q128.85-5.47 128.83-5.45L128.83-5.45Q128.63-5 128.14-5L128.14-5Q127.87-5 127.64-5.21Q127.40-5.41 127.40-5.72L127.40-5.72Q127.40-5.84 127.44-5.90Q127.48-5.96 127.56-6.13Q127.64-6.31 127.75-6.72Q127.87-7.13 128.05-7.99L128.05-7.99Q127.71-7.99 127.36-8.01Q127.01-8.03 126.71-8.14Q126.41-8.26 126.21-8.52Q126.02-8.77 126.02-9.22L126.02-9.22Q126.02-9.55 126.20-10.12Q126.39-10.68 126.70-11.23Q127.01-11.78 127.40-12.18Q127.79-12.58 128.18-12.58L128.18-12.58Q128.63-12.58 128.92-12.25Q129.20-11.91 129.36-11.44Q129.51-10.96 129.58-10.43Q129.65-9.90 129.65-9.51L129.65-9.51Q129.98-9.51 130.30-9.52Q130.63-9.53 130.92-9.53L130.92-9.53Q132.03-9.53 132.62-9.04Q133.20-8.55 133.20-7.44L133.20-7.44Q133.20-6.99 133.14-6.50Q133.09-6.02 133.01-5.50Q132.93-4.98 132.87-4.47Q132.81-3.96 132.81-3.48L132.81-3.48Q132.81-2.77 133.01-2.31Q133.20-1.86 133.50-1.58Q133.79-1.31 134.12-1.20Q134.45-1.09 134.73-1.09L134.73-1.09Q135.57-1.09 136.31-1.64Q137.05-2.19 137.68-2.96Q138.30-3.73 138.80-4.59Q139.30-5.45 139.63-6.09L139.63-6.09Q139.73-6.27 139.90-6.37Q140.08-6.46 140.27-6.46L140.27-6.46Q140.63-6.46 140.82-6.24Q141.02-6.02 141.02-5.74L141.02-5.74Q141.02-5.55 140.94-5.39L140.94-5.39Q140.49-4.59 139.89-3.58Q139.30-2.58 138.54-1.70Q137.77-0.82 136.83-0.21Q135.88 0.39 134.75 0.39L134.75 0.39Q134.04 0.39 133.42 0.13Q132.79-0.14 132.33-0.63Q131.88-1.13 131.60-1.87Q131.33-2.60 131.33-3.52L131.33-3.52Q131.33-4.49 131.52-5.46Q131.72-6.43 131.72-7.30L131.72-7.30Q131.72-7.68 131.55-7.86Q131.39-8.05 130.82-8.05L130.82-8.05Q130.55-8.05 130.22-8.05Q129.90-8.05 129.53-8.03ZM127.36-9.47L128.22-9.47Q128.22-9.61 128.21-9.83Q128.20-10.06 128.17-10.27Q128.14-10.49 128.10-10.64Q128.05-10.80 127.99-10.80L127.99-10.80Q127.93-10.80 127.84-10.65Q127.75-10.51 127.66-10.30Q127.56-10.10 127.48-9.86Q127.40-9.63 127.36-9.47L127.36-9.47Z M141.95-2.15L141.95-2.15Q142.36-1.58 143.01-1.24Q143.65-0.90 144.59-0.90L144.59-0.90Q145.55-0.90 146.33-1.36Q147.11-1.82 147.75-2.56Q148.40-3.30 148.91-4.22Q149.41-5.14 149.82-6.05L149.82-6.05Q149.92-6.27 150.10-6.38Q150.27-6.48 150.49-6.48L150.49-6.48Q150.82-6.48 151.03-6.25Q151.23-6.02 151.23-5.74L151.23-5.74Q151.23-5.64 151.21-5.58Q151.19-5.51 151.15-5.43L151.15-5.43Q149.80-2.46 148.21-0.96Q146.62 0.55 144.61 0.59L144.61 0.59Q143.32 0.59 142.38 0.09Q141.45-0.41 140.84-1.20Q140.23-1.99 139.94-2.99Q139.65-3.98 139.65-4.98L139.65-4.98Q139.65-5.98 139.89-6.82Q140.14-7.66 140.60-8.28Q141.05-8.91 141.69-9.26Q142.32-9.61 143.09-9.61L143.09-9.61Q143.54-9.61 143.97-9.42Q144.41-9.24 144.77-8.90Q145.12-8.55 145.33-8.07Q145.55-7.58 145.55-6.95L145.55-6.95Q145.55-6.15 145.27-5.45Q145-4.75 144.52-4.14Q144.04-3.54 143.38-3.03Q142.71-2.52 141.95-2.15ZM141.37-3.42L141.37-3.42Q141.97-3.67 142.47-4.06Q142.97-4.45 143.32-4.92Q143.67-5.39 143.87-5.91Q144.06-6.43 144.06-6.95L144.06-6.95Q144.06-7.54 143.77-7.84Q143.48-8.14 143.09-8.14L143.09-8.14Q142.56-8.14 142.19-7.85Q141.82-7.56 141.58-7.09Q141.35-6.62 141.24-6.04Q141.13-5.47 141.13-4.90L141.13-4.90Q141.13-4.55 141.20-4.16Q141.27-3.77 141.37-3.42Z"/></g>
</svg>
</g></g><g filter="url(#tUk6sjh6M)"><g opacity="1" transform="rotate(0 85.0415 301.1327)">
<svg width="364.405" height="120" x="85.0415" y="301.1327" version="1.1" preserveAspectRatio="none" viewBox="1.9531 -29.2969 149.2773 49.1602">
  <g transform="matrix(1 0 0 1 0 0)" class="companyName"><path id="id-D6z1nYkh11" d="M35.43-20.51L35.43-20.51Q35.37-20.23 35.18-20.08Q34.98-19.92 34.75-19.92L34.75-19.92Q34.39-19.92 34.18-20.15Q33.96-20.37 33.96-20.66L33.96-20.66Q33.96-20.96 34.02-21.24Q34.08-21.52 34.08-21.80L34.08-21.80Q34.08-23.22 33.20-24.36Q32.32-25.49 30.71-26.26Q29.10-27.03 26.80-27.44Q24.49-27.85 21.66-27.85L21.66-27.85Q19.49-27.85 17.29-27.57Q15.10-27.29 13.08-26.75Q11.05-26.21 9.30-25.40Q7.54-24.59 6.24-23.53Q4.94-22.46 4.20-21.16Q3.46-19.86 3.46-18.32L3.46-18.32Q3.46-17.13 3.97-16.22Q4.49-15.31 5.39-14.64Q6.29-13.96 7.51-13.49Q8.73-13.01 10.16-12.69Q11.58-12.36 13.13-12.16Q14.67-11.95 16.23-11.82L16.23-11.82L19.24-11.56Q21.48-11.37 23.26-11.15Q25.04-10.94 26.39-10.61L26.39-10.61Q28.63-10.04 29.71-8.98Q30.78-7.93 30.78-6.17L30.78-6.17Q30.78-4.47 29.84-3.18Q28.91-1.89 27.29-1.02Q25.66-0.14 23.50 0.31Q21.33 0.76 18.85 0.76L18.85 0.76Q16.15 0.76 14.11 0.40Q12.07 0.04 10.69-0.40Q9.32-0.84 8.59-1.21Q7.87-1.58 7.81-1.62L7.81-1.62Q7.46-1.82 7.46-2.25L7.46-2.25Q7.46-2.58 7.70-2.78Q7.93-2.99 8.20-2.99L8.20-2.99Q8.42-2.99 8.59-2.87L8.59-2.87Q8.61-2.87 9.27-2.53Q9.92-2.19 11.22-1.78Q12.52-1.37 14.43-1.04Q16.35-0.70 18.89-0.70L18.89-0.70Q21.41-0.70 23.34-1.11Q25.27-1.52 26.59-2.26Q27.91-2.99 28.58-3.97Q29.26-4.96 29.26-6.11L29.26-6.11Q29.26-6.80 29.01-7.29Q28.77-7.79 28.34-8.15Q27.91-8.52 27.31-8.77Q26.72-9.02 26.02-9.20L26.02-9.20Q25.27-9.39 24.42-9.53Q23.57-9.67 22.68-9.77Q21.78-9.86 20.87-9.94Q19.96-10.02 19.08-10.10L19.08-10.10L16.07-10.35Q12.52-10.64 9.87-11.26Q7.23-11.88 5.47-12.84Q3.71-13.81 2.83-15.16Q1.95-16.50 1.95-18.30L1.95-18.30Q1.95-20.14 2.78-21.67Q3.61-23.20 5.05-24.43Q6.48-25.66 8.41-26.57Q10.33-27.48 12.52-28.09Q14.71-28.69 17.05-28.99Q19.39-29.30 21.66-29.30L21.66-29.30Q24.49-29.30 26.59-28.96Q28.69-28.61 30.19-28.08Q31.68-27.54 32.64-26.86Q33.59-26.17 34.18-25.51L34.18-25.51Q35.57-23.89 35.57-21.82L35.57-21.82Q35.57-21.13 35.43-20.51Z M37.71-2.58L37.73-1.66Q38.05-2.32 38.46-3.10Q38.87-3.87 39.34-4.68Q39.80-5.49 40.33-6.29Q40.86-7.09 41.43-7.79L41.43-7.79Q41.99-8.48 42.57-8.78Q43.14-9.08 43.65-9.08L43.65-9.08Q44.16-9.08 44.54-8.88Q44.92-8.67 45.17-8.32Q45.41-7.97 45.54-7.50Q45.66-7.03 45.66-6.48L45.66-6.48Q45.66-6.04 45.58-5.28Q45.49-4.53 45.49-3.71L45.49-3.71Q45.49-3.24 45.54-2.78Q45.59-2.32 45.71-1.96Q45.84-1.60 46.09-1.38Q46.35-1.15 46.76-1.15L46.76-1.15Q47.23-1.15 47.70-1.42Q48.16-1.68 48.61-2.12Q49.06-2.56 49.47-3.10Q49.88-3.63 50.21-4.17Q50.55-4.71 50.80-5.21Q51.05-5.70 51.21-6.04L51.21-6.04Q51.41-6.48 51.89-6.48L51.89-6.48Q52.23-6.48 52.42-6.25Q52.62-6.02 52.62-5.74L52.62-5.74Q52.62-5.59 52.56-5.45L52.56-5.45Q52.48-5.29 52.26-4.80Q52.03-4.32 51.65-3.67Q51.27-3.03 50.76-2.32Q50.25-1.62 49.64-1.03Q49.02-0.43 48.31-0.05Q47.60 0.33 46.82 0.33L46.82 0.33Q45.92 0.33 45.37-0.05Q44.82-0.43 44.52-1.02Q44.22-1.60 44.11-2.32Q44.00-3.05 44.00-3.73L44.00-3.73Q44.00-4.08 44.03-4.48Q44.06-4.88 44.10-5.27Q44.14-5.66 44.17-6.01Q44.20-6.35 44.20-6.58L44.20-6.58Q44.20-7.19 44.03-7.40Q43.87-7.62 43.65-7.62L43.65-7.62Q43.34-7.62 42.94-7.26Q42.54-6.89 42.10-6.31Q41.66-5.72 41.22-4.99Q40.78-4.26 40.37-3.54Q39.96-2.81 39.63-2.16Q39.30-1.50 39.08-1.07L39.08-1.07Q38.67-0.25 38.25 0.03Q37.83 0.31 37.50 0.31L37.50 0.31Q36.89 0.31 36.57-0.17Q36.25-0.64 36.25-1.33L36.25-1.33L36.25-2.56Q36.25-6.25 36.26-9.60Q36.27-12.95 36.36-15.83Q36.45-18.71 36.65-21.04Q36.86-23.38 37.27-25.03Q37.68-26.68 38.31-27.58Q38.95-28.48 39.90-28.48L39.90-28.48Q40.72-28.48 41.29-28.03Q41.86-27.58 42.21-26.81Q42.56-26.04 42.71-25.01Q42.87-23.98 42.87-22.85L42.87-22.85Q42.87-20.55 42.45-18.33Q42.03-16.11 41.33-14.00Q40.63-11.89 39.69-9.89Q38.75-7.89 37.71-6.00L37.71-6.00Q37.71-5.64 37.71-5.16Q37.71-4.67 37.71-4.18Q37.71-3.69 37.71-3.26Q37.71-2.83 37.71-2.58L37.71-2.58ZM37.73-8.87L37.73-8.87Q38.55-10.66 39.23-12.37Q39.90-14.08 40.38-15.78Q40.86-17.48 41.13-19.23Q41.41-20.98 41.41-22.87L41.41-22.87Q41.41-23.18 41.38-23.87Q41.35-24.55 41.20-25.25Q41.05-25.96 40.75-26.48Q40.45-27.01 39.90-27.01L39.90-27.01Q39.47-27.01 39.16-26.44Q38.85-25.86 38.61-24.87Q38.38-23.89 38.22-22.58Q38.07-21.27 37.97-19.80Q37.87-18.34 37.82-16.80Q37.77-15.25 37.75-13.80Q37.73-12.34 37.73-11.07Q37.73-9.80 37.73-8.87Z M60.21-2.15L60.21-2.15Q59.73-2.15 59.36-2.23L59.36-2.23Q59.06-1.64 58.65-1.14Q58.24-0.64 57.71-0.27Q57.17 0.10 56.50 0.31Q55.84 0.53 55.06 0.53L55.06 0.53Q54.14 0.53 53.38 0.21Q52.62-0.12 52.05-0.69Q51.48-1.27 51.17-2.08Q50.86-2.89 50.86-3.87L50.86-3.87Q50.86-5.12 51.31-6.04Q51.76-6.97 52.34-7.59Q52.93-8.20 53.52-8.51Q54.10-8.81 54.39-8.81L54.39-8.81Q54.73-8.81 54.89-8.63Q55.06-8.46 55.06-8.16L55.06-8.16Q55.06-7.83 54.85-7.67Q54.65-7.50 54.34-7.34L54.34-7.34Q54.02-7.19 53.67-6.90Q53.32-6.62 53.02-6.19Q52.71-5.76 52.52-5.18Q52.32-4.59 52.32-3.87L52.32-3.87Q52.32-3.22 52.52-2.67Q52.71-2.11 53.09-1.71Q53.46-1.31 53.96-1.08Q54.47-0.86 55.10-0.86L55.10-0.86Q56.21-0.86 56.94-1.38Q57.68-1.89 58.07-2.70L58.07-2.70Q56.91-3.30 56.17-4.41Q55.43-5.53 55.43-6.91L55.43-6.91Q55.43-8.03 55.97-8.73Q56.50-9.43 57.38-9.43L57.38-9.43Q57.91-9.43 58.38-9.18Q58.85-8.93 59.21-8.38Q59.57-7.83 59.79-6.97Q60-6.11 60-4.92L60-4.92Q60-4.30 59.84-3.61L59.84-3.61Q59.96-3.59 60.08-3.59Q60.20-3.59 60.33-3.59L60.33-3.59Q61.00-3.59 61.52-3.75Q62.05-3.91 62.48-4.22Q62.91-4.53 63.25-5.02Q63.59-5.51 63.91-6.15L63.91-6.15Q63.96-6.27 64.16-6.38Q64.36-6.48 64.55-6.48L64.55-6.48Q64.80-6.48 65.03-6.28Q65.25-6.07 65.25-5.74L65.25-5.74Q65.25-5.59 65.18-5.40Q65.10-5.21 65.02-5.06L65.02-5.06Q64.69-4.47 64.25-3.94Q63.81-3.40 63.21-3.00Q62.62-2.60 61.88-2.36Q61.13-2.13 60.21-2.15ZM56.88-7.07L56.88-7.07Q56.88-6.70 56.97-6.29Q57.07-5.88 57.28-5.48Q57.48-5.08 57.78-4.72Q58.09-4.36 58.50-4.10L58.50-4.10Q58.55-4.51 58.55-4.90L58.55-4.90Q58.55-5.43 58.48-5.98Q58.40-6.52 58.25-6.98Q58.11-7.44 57.89-7.72Q57.68-8.01 57.38-8.01L57.38-8.01Q57.27-8.01 57.07-7.83Q56.88-7.66 56.88-7.07Z M73.87-5.45L73.87-5.45Q73.87-3.65 73.22-2.38Q72.58-1.11 71.64-0.45L71.64-0.45L71.72-0.45Q72.87-0.45 73.82-0.97Q74.77-1.48 75.53-2.29Q76.29-3.11 76.89-4.10Q77.50-5.10 77.97-6.04L77.97-6.04Q78.07-6.25 78.25-6.37Q78.44-6.48 78.65-6.48L78.65-6.48Q78.98-6.48 79.18-6.25Q79.38-6.02 79.38-5.74L79.38-5.74Q79.38-5.59 79.32-5.45L79.32-5.45Q78.81-4.32 78.11-3.17Q77.40-2.03 76.46-1.11Q75.53-0.20 74.36 0.38Q73.18 0.96 71.76 0.96L71.76 0.96Q70.72 0.96 69.75 0.63Q68.77 0.31 68.03-0.37L68.03-0.37Q67.75-0.59 67.56-0.83Q67.36-1.07 67.25-1.29L67.25-1.29Q67.21-1.33 67.21-1.37L67.21-1.37Q67.09-1.54 67.09-1.74L67.09-1.74Q67.09-1.99 67.27-2.21L67.27-2.21Q67.29-2.25 67.30-2.26Q67.32-2.27 67.34-2.29L67.34-2.29Q67.54-2.46 67.77-2.48L67.77-2.48L67.83-2.48Q67.93-2.48 67.97-2.46L67.97-2.46Q67.99-2.46 68.00-2.45Q68.01-2.44 68.03-2.44L68.03-2.44Q68.09-2.44 68.16-2.40L68.16-2.40Q68.18-2.38 68.20-2.38L68.20-2.38Q68.38-2.27 68.50-2.09L68.50-2.09Q68.63-1.86 68.81-1.66L68.81-1.66Q68.96-1.50 69.18-1.38Q69.39-1.25 69.67-1.25L69.67-1.25Q70.16-1.25 70.64-1.54Q71.13-1.84 71.52-2.38Q71.91-2.93 72.16-3.71Q72.40-4.49 72.40-5.45L72.40-5.45Q72.40-6.15 72.26-6.65Q72.11-7.15 71.88-7.46Q71.66-7.77 71.41-7.92Q71.15-8.07 70.92-8.07L70.92-8.07Q70.39-8.07 69.85-7.52Q69.32-6.97 68.79-6.13Q68.26-5.29 67.74-4.28Q67.23-3.26 66.70-2.30L66.70-2.30Q66.66 0.86 66.59 3.73Q66.52 6.60 66.36 9.06Q66.19 11.52 65.90 13.52Q65.61 15.51 65.10 16.92Q64.59 18.34 63.85 19.10Q63.11 19.86 62.03 19.86L62.03 19.86Q61.70 19.86 61.27 19.73Q60.84 19.59 60.47 19.17Q60.10 18.75 59.84 17.97Q59.59 17.19 59.59 15.88L59.59 15.88Q59.59 14.22 60 12.03Q60.41 9.84 61.16 7.39Q61.91 4.94 62.95 2.36Q63.98-0.21 65.23-2.66L65.23-2.66Q65.23-3.34 65.24-4.00Q65.25-4.67 65.25-5.29L65.25-5.29Q65-5 64.65-5L64.65-5Q64.32-5 64.12-5.23Q63.93-5.47 63.93-5.74L63.93-5.74Q63.93-5.88 63.98-6.04L63.98-6.04Q64.45-7.11 64.71-8.08Q64.96-9.04 65.09-9.78Q65.21-10.51 65.23-10.94Q65.25-11.37 65.25-11.39L65.25-11.39Q65.25-11.68 65.47-11.89Q65.68-12.11 66.00-12.11L66.00-12.11Q66.29-12.11 66.50-11.90Q66.72-11.70 66.72-11.39L66.72-11.39L66.72-5.39Q67.17-6.15 67.62-6.89Q68.07-7.64 68.56-8.22Q69.06-8.81 69.64-9.17Q70.21-9.53 70.92-9.53L70.92-9.53Q71.58-9.53 72.13-9.22Q72.68-8.91 73.07-8.36Q73.46-7.81 73.66-7.06Q73.87-6.31 73.87-5.45ZM65.20 0.82L65.20 0.82Q64.24 2.97 63.47 5.14Q62.70 7.30 62.16 9.32Q61.62 11.33 61.33 13.09Q61.04 14.84 61.04 16.17L61.04 16.17Q61.04 16.50 61.07 16.89Q61.11 17.29 61.23 17.62Q61.35 17.95 61.56 18.17Q61.78 18.40 62.13 18.40L62.13 18.40Q62.77 18.40 63.24 17.59Q63.71 16.78 64.03 15.40Q64.36 14.02 64.57 12.24Q64.79 10.45 64.91 8.50Q65.04 6.54 65.10 4.56Q65.16 2.58 65.20 0.82Z M80.14-7.23L80.14-7.23Q80.02-6.91 79.85-6.52Q79.69-6.13 79.47-5.70L79.47-5.70Q79.30-5.37 79.11-5.19Q78.93-5 78.63-5L78.63-5Q78.30-5 78.11-5.21Q77.91-5.41 77.91-5.68L77.91-5.68Q77.91-5.78 77.93-5.85Q77.95-5.92 78.03-6.07L78.03-6.07Q78.54-7.05 78.78-7.78Q79.02-8.52 79.18-9.32L79.18-9.32Q79.04-9.77 78.98-10.08Q78.93-10.39 78.93-10.72L78.93-10.72Q78.93-11.37 79.20-11.77Q79.47-12.17 79.96-12.17L79.96-12.17Q80.41-12.17 80.67-11.78Q80.94-11.39 80.94-10.82L80.94-10.82Q80.94-10.51 80.88-10.20Q80.82-9.88 80.72-9.41L80.72-9.41Q81.17-8.30 81.62-7.44Q82.07-6.58 82.42-5.87Q82.77-5.16 83.00-4.53Q83.22-3.91 83.22-3.28L83.22-3.28Q83.22-2.46 82.89-1.72Q82.56-0.98 81.80-0.47L81.80-0.47Q81.89-0.45 81.99-0.45Q82.09-0.45 82.19-0.45L82.19-0.45Q83.30-0.45 84.24-0.96Q85.18-1.46 85.93-2.28Q86.68-3.09 87.27-4.07Q87.85-5.06 88.28-6.04L88.28-6.04Q88.48-6.48 88.83-6.48L88.83-6.48Q89.16-6.48 89.35-6.25Q89.53-6.02 89.53-5.74L89.53-5.74Q89.53-5.59 89.47-5.45L89.47-5.45Q89.26-4.92 88.92-4.25Q88.57-3.57 88.10-2.86Q87.62-2.15 86.99-1.46Q86.37-0.78 85.60-0.24Q84.82 0.29 83.91 0.62Q82.99 0.94 81.89 0.94L81.89 0.94Q80.59 0.94 79.46 0.48Q78.34 0.02 77.64-1.04L77.64-1.04Q77.52-1.21 77.52-1.41L77.52-1.41Q77.52-1.70 77.74-1.92Q77.97-2.15 78.26-2.15L78.26-2.15Q78.57-2.15 78.79-1.93L78.79-1.93Q78.81-1.89 78.93-1.81Q79.04-1.72 79.21-1.61Q79.38-1.50 79.60-1.43Q79.82-1.35 80.06-1.35L80.06-1.35Q80.53-1.35 80.85-1.54Q81.17-1.74 81.37-2.02Q81.56-2.30 81.65-2.63Q81.74-2.95 81.74-3.18L81.74-3.18Q81.74-3.67 81.58-4.16Q81.43-4.65 81.18-5.14Q80.94-5.63 80.65-6.14Q80.37-6.66 80.14-7.23Z M98.14-5.45L98.14-5.45Q98.14-3.65 97.50-2.38Q96.86-1.11 95.92-0.45L95.92-0.45L96.00-0.45Q97.15-0.45 98.10-0.97Q99.04-1.48 99.80-2.29Q100.57-3.11 101.17-4.10Q101.78-5.10 102.25-6.04L102.25-6.04Q102.34-6.25 102.53-6.37Q102.71-6.48 102.93-6.48L102.93-6.48Q103.26-6.48 103.46-6.25Q103.65-6.02 103.65-5.74L103.65-5.74Q103.65-5.59 103.59-5.45L103.59-5.45Q103.09-4.32 102.38-3.17Q101.68-2.03 100.74-1.11Q99.80-0.20 98.63 0.38Q97.46 0.96 96.04 0.96L96.04 0.96Q95 0.96 94.02 0.63Q93.05 0.31 92.30-0.37L92.30-0.37Q92.03-0.59 91.84-0.83Q91.64-1.07 91.52-1.29L91.52-1.29Q91.48-1.33 91.48-1.37L91.48-1.37Q91.37-1.54 91.37-1.74L91.37-1.74Q91.37-1.99 91.54-2.21L91.54-2.21Q91.56-2.25 91.58-2.26Q91.60-2.27 91.62-2.29L91.62-2.29Q91.82-2.46 92.05-2.48L92.05-2.48L92.11-2.48Q92.21-2.48 92.25-2.46L92.25-2.46Q92.27-2.46 92.28-2.45Q92.29-2.44 92.30-2.44L92.30-2.44Q92.36-2.44 92.44-2.40L92.44-2.40Q92.46-2.38 92.48-2.38L92.48-2.38Q92.66-2.27 92.77-2.09L92.77-2.09Q92.91-1.86 93.09-1.66L93.09-1.66Q93.24-1.50 93.46-1.38Q93.67-1.25 93.95-1.25L93.95-1.25Q94.43-1.25 94.92-1.54Q95.41-1.84 95.80-2.38Q96.19-2.93 96.44-3.71Q96.68-4.49 96.68-5.45L96.68-5.45Q96.68-6.15 96.53-6.65Q96.39-7.15 96.16-7.46Q95.94-7.77 95.68-7.92Q95.43-8.07 95.20-8.07L95.20-8.07Q94.67-8.07 94.13-7.52Q93.59-6.97 93.07-6.13Q92.54-5.29 92.02-4.28Q91.50-3.26 90.98-2.30L90.98-2.30Q90.94 0.86 90.87 3.73Q90.80 6.60 90.63 9.06Q90.47 11.52 90.18 13.52Q89.88 15.51 89.38 16.92Q88.87 18.34 88.13 19.10Q87.38 19.86 86.31 19.86L86.31 19.86Q85.98 19.86 85.55 19.73Q85.12 19.59 84.75 19.17Q84.38 18.75 84.12 17.97Q83.87 17.19 83.87 15.88L83.87 15.88Q83.87 14.22 84.28 12.03Q84.69 9.84 85.44 7.39Q86.19 4.94 87.23 2.36Q88.26-0.21 89.51-2.66L89.51-2.66Q89.51-3.34 89.52-4.00Q89.53-4.67 89.53-5.29L89.53-5.29Q89.28-5 88.93-5L88.93-5Q88.59-5 88.40-5.23Q88.20-5.47 88.20-5.74L88.20-5.74Q88.20-5.88 88.26-6.04L88.26-6.04Q88.73-7.11 88.98-8.08Q89.24-9.04 89.37-9.78Q89.49-10.51 89.51-10.94Q89.53-11.37 89.53-11.39L89.53-11.39Q89.53-11.68 89.75-11.89Q89.96-12.11 90.27-12.11L90.27-12.11Q90.57-12.11 90.78-11.90Q91.00-11.70 91.00-11.39L91.00-11.39L91.00-5.39Q91.45-6.15 91.89-6.89Q92.34-7.64 92.84-8.22Q93.34-8.81 93.92-9.17Q94.49-9.53 95.20-9.53L95.20-9.53Q95.86-9.53 96.41-9.22Q96.95-8.91 97.34-8.36Q97.73-7.81 97.94-7.06Q98.14-6.31 98.14-5.45ZM89.47 0.82L89.47 0.82Q88.52 2.97 87.74 5.14Q86.97 7.30 86.44 9.32Q85.90 11.33 85.61 13.09Q85.31 14.84 85.31 16.17L85.31 16.17Q85.31 16.50 85.35 16.89Q85.39 17.29 85.51 17.62Q85.63 17.95 85.84 18.17Q86.05 18.40 86.41 18.40L86.41 18.40Q87.05 18.40 87.52 17.59Q87.99 16.78 88.31 15.40Q88.63 14.02 88.85 12.24Q89.06 10.45 89.19 8.50Q89.32 6.54 89.38 4.56Q89.43 2.58 89.47 0.82Z M103.77-2.58L103.79-1.66Q104.10-2.32 104.51-3.10Q104.92-3.87 105.39-4.68Q105.86-5.49 106.39-6.29Q106.91-7.09 107.48-7.79L107.48-7.79Q108.05-8.48 108.62-8.78Q109.20-9.08 109.71-9.08L109.71-9.08Q110.21-9.08 110.60-8.88Q110.98-8.67 111.22-8.32Q111.46-7.97 111.59-7.50Q111.72-7.03 111.72-6.48L111.72-6.48Q111.72-6.04 111.63-5.28Q111.54-4.53 111.54-3.71L111.54-3.71Q111.54-3.24 111.59-2.78Q111.64-2.32 111.77-1.96Q111.89-1.60 112.15-1.38Q112.40-1.15 112.81-1.15L112.81-1.15Q113.28-1.15 113.75-1.42Q114.22-1.68 114.67-2.12Q115.12-2.56 115.53-3.10Q115.94-3.63 116.27-4.17Q116.60-4.71 116.86-5.21Q117.11-5.70 117.27-6.04L117.27-6.04Q117.46-6.48 117.95-6.48L117.95-6.48Q118.28-6.48 118.48-6.25Q118.67-6.02 118.67-5.74L118.67-5.74Q118.67-5.59 118.61-5.45L118.61-5.45Q118.54-5.29 118.31-4.80Q118.09-4.32 117.71-3.67Q117.32-3.03 116.82-2.32Q116.31-1.62 115.69-1.03Q115.08-0.43 114.37-0.05Q113.65 0.33 112.87 0.33L112.87 0.33Q111.97 0.33 111.43-0.05Q110.88-0.43 110.58-1.02Q110.27-1.60 110.17-2.32Q110.06-3.05 110.06-3.73L110.06-3.73Q110.06-4.08 110.09-4.48Q110.12-4.88 110.16-5.27Q110.20-5.66 110.22-6.01Q110.25-6.35 110.25-6.58L110.25-6.58Q110.25-7.19 110.09-7.40Q109.92-7.62 109.71-7.62L109.71-7.62Q109.39-7.62 108.99-7.26Q108.59-6.89 108.15-6.31Q107.71-5.72 107.28-4.99Q106.84-4.26 106.43-3.54Q106.02-2.81 105.68-2.16Q105.35-1.50 105.14-1.07L105.14-1.07Q104.73-0.25 104.31 0.03Q103.89 0.31 103.55 0.31L103.55 0.31Q102.95 0.31 102.63-0.17Q102.30-0.64 102.30-1.33L102.30-1.33L102.30-2.56Q102.30-6.25 102.31-9.60Q102.32-12.95 102.41-15.83Q102.50-18.71 102.71-21.04Q102.91-23.38 103.32-25.03Q103.73-26.68 104.37-27.58Q105-28.48 105.96-28.48L105.96-28.48Q106.78-28.48 107.34-28.03Q107.91-27.58 108.26-26.81Q108.61-26.04 108.77-25.01Q108.93-23.98 108.93-22.85L108.93-22.85Q108.93-20.55 108.51-18.33Q108.09-16.11 107.38-14.00Q106.68-11.89 105.74-9.89Q104.80-7.89 103.77-6.00L103.77-6.00Q103.77-5.64 103.77-5.16Q103.77-4.67 103.77-4.18Q103.77-3.69 103.77-3.26Q103.77-2.83 103.77-2.58L103.77-2.58ZM103.79-8.87L103.79-8.87Q104.61-10.66 105.28-12.37Q105.96-14.08 106.44-15.78Q106.91-17.48 107.19-19.23Q107.46-20.98 107.46-22.87L107.46-22.87Q107.46-23.18 107.43-23.87Q107.40-24.55 107.26-25.25Q107.11-25.96 106.81-26.48Q106.50-27.01 105.96-27.01L105.96-27.01Q105.53-27.01 105.21-26.44Q104.90-25.86 104.67-24.87Q104.43-23.89 104.28-22.58Q104.12-21.27 104.02-19.80Q103.93-18.34 103.88-16.80Q103.83-15.25 103.81-13.80Q103.79-12.34 103.79-11.07Q103.79-9.80 103.79-8.87Z M119.61-2.15L119.61-2.15Q120.02-1.58 120.66-1.24Q121.31-0.90 122.25-0.90L122.25-0.90Q123.20-0.90 123.98-1.36Q124.77-1.82 125.41-2.56Q126.05-3.30 126.56-4.22Q127.07-5.14 127.48-6.05L127.48-6.05Q127.58-6.27 127.75-6.38Q127.93-6.48 128.14-6.48L128.14-6.48Q128.48-6.48 128.68-6.25Q128.89-6.02 128.89-5.74L128.89-5.74Q128.89-5.64 128.87-5.58Q128.85-5.51 128.81-5.43L128.81-5.43Q127.46-2.46 125.87-0.96Q124.28 0.55 122.27 0.59L122.27 0.59Q120.98 0.59 120.04 0.09Q119.10-0.41 118.50-1.20Q117.89-1.99 117.60-2.99Q117.30-3.98 117.30-4.98L117.30-4.98Q117.30-5.98 117.55-6.82Q117.79-7.66 118.25-8.28Q118.71-8.91 119.35-9.26Q119.98-9.61 120.74-9.61L120.74-9.61Q121.19-9.61 121.63-9.42Q122.07-9.24 122.42-8.90Q122.77-8.55 122.99-8.07Q123.20-7.58 123.20-6.95L123.20-6.95Q123.20-6.15 122.93-5.45Q122.66-4.75 122.18-4.14Q121.70-3.54 121.04-3.03Q120.37-2.52 119.61-2.15ZM119.02-3.42L119.02-3.42Q119.63-3.67 120.13-4.06Q120.63-4.45 120.98-4.92Q121.33-5.39 121.52-5.91Q121.72-6.43 121.72-6.95L121.72-6.95Q121.72-7.54 121.43-7.84Q121.13-8.14 120.74-8.14L120.74-8.14Q120.21-8.14 119.84-7.85Q119.47-7.56 119.24-7.09Q119.00-6.62 118.90-6.04Q118.79-5.47 118.79-4.90L118.79-4.90Q118.79-4.55 118.86-4.16Q118.93-3.77 119.02-3.42Z M129.53-8.03L129.53-8.03Q129.45-7.50 129.34-7.04Q129.22-6.58 129.11-6.24Q129.00-5.90 128.93-5.68Q128.85-5.47 128.83-5.45L128.83-5.45Q128.63-5 128.14-5L128.14-5Q127.87-5 127.64-5.21Q127.40-5.41 127.40-5.72L127.40-5.72Q127.40-5.84 127.44-5.90Q127.48-5.96 127.56-6.13Q127.64-6.31 127.75-6.72Q127.87-7.13 128.05-7.99L128.05-7.99Q127.71-7.99 127.36-8.01Q127.01-8.03 126.71-8.14Q126.41-8.26 126.21-8.52Q126.02-8.77 126.02-9.22L126.02-9.22Q126.02-9.55 126.20-10.12Q126.39-10.68 126.70-11.23Q127.01-11.78 127.40-12.18Q127.79-12.58 128.18-12.58L128.18-12.58Q128.63-12.58 128.92-12.25Q129.20-11.91 129.36-11.44Q129.51-10.96 129.58-10.43Q129.65-9.90 129.65-9.51L129.65-9.51Q129.98-9.51 130.30-9.52Q130.63-9.53 130.92-9.53L130.92-9.53Q132.03-9.53 132.62-9.04Q133.20-8.55 133.20-7.44L133.20-7.44Q133.20-6.99 133.14-6.50Q133.09-6.02 133.01-5.50Q132.93-4.98 132.87-4.47Q132.81-3.96 132.81-3.48L132.81-3.48Q132.81-2.77 133.01-2.31Q133.20-1.86 133.50-1.58Q133.79-1.31 134.12-1.20Q134.45-1.09 134.73-1.09L134.73-1.09Q135.57-1.09 136.31-1.64Q137.05-2.19 137.68-2.96Q138.30-3.73 138.80-4.59Q139.30-5.45 139.63-6.09L139.63-6.09Q139.73-6.27 139.90-6.37Q140.08-6.46 140.27-6.46L140.27-6.46Q140.63-6.46 140.82-6.24Q141.02-6.02 141.02-5.74L141.02-5.74Q141.02-5.55 140.94-5.39L140.94-5.39Q140.49-4.59 139.89-3.58Q139.30-2.58 138.54-1.70Q137.77-0.82 136.83-0.21Q135.88 0.39 134.75 0.39L134.75 0.39Q134.04 0.39 133.42 0.13Q132.79-0.14 132.33-0.63Q131.88-1.13 131.60-1.87Q131.33-2.60 131.33-3.52L131.33-3.52Q131.33-4.49 131.52-5.46Q131.72-6.43 131.72-7.30L131.72-7.30Q131.72-7.68 131.55-7.86Q131.39-8.05 130.82-8.05L130.82-8.05Q130.55-8.05 130.22-8.05Q129.90-8.05 129.53-8.03ZM127.36-9.47L128.22-9.47Q128.22-9.61 128.21-9.83Q128.20-10.06 128.17-10.27Q128.14-10.49 128.10-10.64Q128.05-10.80 127.99-10.80L127.99-10.80Q127.93-10.80 127.84-10.65Q127.75-10.51 127.66-10.30Q127.56-10.10 127.48-9.86Q127.40-9.63 127.36-9.47L127.36-9.47Z M141.95-2.15L141.95-2.15Q142.36-1.58 143.01-1.24Q143.65-0.90 144.59-0.90L144.59-0.90Q145.55-0.90 146.33-1.36Q147.11-1.82 147.75-2.56Q148.40-3.30 148.91-4.22Q149.41-5.14 149.82-6.05L149.82-6.05Q149.92-6.27 150.10-6.38Q150.27-6.48 150.49-6.48L150.49-6.48Q150.82-6.48 151.03-6.25Q151.23-6.02 151.23-5.74L151.23-5.74Q151.23-5.64 151.21-5.58Q151.19-5.51 151.15-5.43L151.15-5.43Q149.80-2.46 148.21-0.96Q146.62 0.55 144.61 0.59L144.61 0.59Q143.32 0.59 142.38 0.09Q141.45-0.41 140.84-1.20Q140.23-1.99 139.94-2.99Q139.65-3.98 139.65-4.98L139.65-4.98Q139.65-5.98 139.89-6.82Q140.14-7.66 140.60-8.28Q141.05-8.91 141.69-9.26Q142.32-9.61 143.09-9.61L143.09-9.61Q143.54-9.61 143.97-9.42Q144.41-9.24 144.77-8.90Q145.12-8.55 145.33-8.07Q145.55-7.58 145.55-6.95L145.55-6.95Q145.55-6.15 145.27-5.45Q145-4.75 144.52-4.14Q144.04-3.54 143.38-3.03Q142.71-2.52 141.95-2.15ZM141.37-3.42L141.37-3.42Q141.97-3.67 142.47-4.06Q142.97-4.45 143.32-4.92Q143.67-5.39 143.87-5.91Q144.06-6.43 144.06-6.95L144.06-6.95Q144.06-7.54 143.77-7.84Q143.48-8.14 143.09-8.14L143.09-8.14Q142.56-8.14 142.19-7.85Q141.82-7.56 141.58-7.09Q141.35-6.62 141.24-6.04Q141.13-5.47 141.13-4.90L141.13-4.90Q141.13-4.55 141.20-4.16Q141.27-3.77 141.37-3.42Z"/></g>
</svg>
</g></g></svg></svg>