<svg version="1.1" preserveAspectRatio="none" xmlns="http://www.w3.org/2000/svg" width="500" height="500" viewBox="0 0 500 500"><rect width="100%" height="100%" fill="#FFFFFF" fill-opacity="1"/><svg viewBox="62.7963 95.5063 358.1003 259.9585" width="333" height="241.7372465200392" x="83.5px" y="129.1314px" xmlns="http://www.w3.org/2000/svg" xmlns:xlink="http://www.w3.org/1999/xlink" preserveAspectRatio="none"><defs></defs><style>.companyName {fill:#727373;fill-opacity:1;}.icon1 {fill:#F1B4BB;fill-opacity:1;}.icon2 {fill:#727373;fill-opacity:1;}.icon3 {fill:#C0777F;fill-opacity:1;}.icon3-str {stroke:#C0777F;stroke-opacity:1;}.text {fill:#727373;fill-opacity:1;}</style><g opacity="1" transform="rotate(0 174.1744 95.5063)">
<svg width="135.3442" height="131.9585" x="174.1744" y="95.5063" version="1.1" preserveAspectRatio="none" viewBox="20 22.001205444335938 160 155.99758911132812">
  <g transform="matrix(1 0 0 1 0 0)"><g><path d="M87.001 153.594l.549.148-.66 2.448-.322-.087c-.509-.136-.851-.315-1.027-.535-.175-.219-.203-.552-.084-.995.124-.458.297-.766.521-.925.224-.16.565-.178 1.023-.054zM96.48 42.021c-.029-.428-.115-.751-.257-.969-.142-.217-.398-.312-.768-.287-.37.026-.611.154-.721.385-.11.23-.151.563-.12 1l.289 4.137c.031.436.117.765.259.985.142.221.398.318.769.292.37-.025.61-.159.719-.401.109-.242.15-.577.12-1.006l-.29-4.136zm-9.513 107.601c-.238.174-.427.515-.564 1.023-.141.522-.145.929-.012 1.223.133.294.431.502.897.628l.559.151.79-2.93-.613-.165c-.467-.127-.819-.102-1.057.07zm26.385-102.517l.295-3.819-1.486 3.531 1.191.288zm36.874 40.767c.27.119.66.11 1.17-.026.523-.14.878-.341 1.066-.603.188-.262.219-.624.094-1.09l-.15-.558-2.936.787.165.612c.124.466.322.759.591.878zM61.718 55.718c-.303-.345-.596-.507-.876-.484-.281.023-.619.208-1.016.555l-.252.219 1.672 1.908.428-.374c.357-.312.532-.605.524-.879-.007-.273-.167-.588-.48-.945zm2.756 4.919c.364-.317.54-.624.528-.917-.012-.294-.192-.64-.539-1.037-.357-.407-.694-.637-1.012-.69-.318-.053-.658.079-1.021.396l-.436.38 2.002 2.284.478-.416zm-5.545 69.692c-.262.044-.564.196-.905.46l-3.286 2.538c-.34.262-.562.513-.664.752-.102.238-.039.504.188.797.227.293.468.422.721.385.253-.037.553-.188.899-.456l3.286-2.538c.347-.268.572-.522.677-.762.105-.241.044-.507-.184-.8-.225-.295-.469-.42-.732-.376zm-12.674-11.955l3.767-.728-.422-1.149-3.345 1.877zm97.314 20.33l-2.52-2.888-.784.941 3.304 1.947zm9.408-16.556l-3.848-1.564c-.406-.165-.739-.232-1-.202-.262.03-.462.217-.601.56-.141.343-.126.616.043.821.169.204.453.388.852.55l3.848 1.564c.398.162.726.228.984.196.257-.032.456-.219.596-.562.14-.343.131-.616-.029-.816-.158-.199-.439-.382-.845-.547zm1.232-35.442c.25.113.604.108 1.063-.014.444-.12.718-.311.821-.572.103-.262.086-.647-.051-1.155l-.086-.322-2.452.658.147.549c.122.458.309.743.558.856zm17.883 47.953c-2.47 5.111-13.009 5.185-16.52 9.575-3.529 4.412-1.27 14.681-5.69 18.203-4.398 3.505-13.921-.964-19.041 1.502-5.037 2.426-7.456 12.667-13.039 13.934-5.407 1.227-12.023-6.926-17.802-6.926s-12.396 8.152-17.802 6.926c-5.583-1.267-8.002-11.509-13.039-13.934-5.12-2.466-14.643 2.003-19.041-1.502-4.419-3.523-2.161-13.792-5.69-18.203-3.512-4.39-14.05-4.464-16.52-9.575-2.43-5.028 4.055-13.29 2.786-18.863C29.465 110.399 20 105.769 20 100s9.465-10.399 10.694-15.796c1.269-5.573-5.216-13.835-2.786-18.863 2.47-5.111 13.009-5.185 16.52-9.575 3.529-4.412 1.27-14.681 5.69-18.203 4.398-3.505 13.921.964 19.041-1.502 5.037-2.426 7.456-12.667 13.039-13.934C87.605 20.9 94.221 29.053 100 29.053s12.395-8.152 17.802-6.926c5.583 1.267 8.002 11.508 13.039 13.934 5.12 2.466 14.643-2.003 19.041 1.502 4.419 3.523 2.161 13.792 5.69 18.203 3.512 4.39 14.05 4.464 16.52 9.575 2.43 5.028-4.055 13.29-2.786 18.863C170.535 89.601 180 94.231 180 100s-9.465 10.399-10.694 15.796c-1.269 5.573 5.216 13.835 2.786 18.863zm-13.376-42.737l-8.956 1.088.46 3.775 1.118-.136-.263-2.152 2.974-.361.205 1.678 1.138-.139-.204-1.677 2.576-.313.26 2.13 1.151-.14-.459-3.753zm-10.789-6.818l.676 2.512c.216.802.592 1.349 1.128 1.643.536.294 1.224.328 2.064.103 1.24-.333 1.822-1.026 1.746-2.08.175.391.439.653.795.788.355.134.799.132 1.329-.011.818-.219 1.336-.593 1.556-1.119.219-.527.218-1.202-.003-2.026l-.578-2.148-8.713 2.338zm-5.048-15.128a.867.867 0 00.089 1.553l1.722.73a.867.867 0 01.512.625l.374 1.83a.87.87 0 001.507.396l1.228-1.41a.869.869 0 01.754-.293l1.859.21a.868.868 0 00.843-1.309l-.964-1.601a.865.865 0 01-.046-.806l.775-1.7a.868.868 0 00-.986-1.204l-1.823.42a.872.872 0 01-.782-.205l-1.38-1.261a.87.87 0 00-1.452.564l-.163 1.861a.868.868 0 01-.437.679l-1.63.921zm-6.375-10.979l-2.317 2.541 1.162 1.055 2.317-2.542 5.09-2.908-1.112-1.01-3.181 1.936 1.583-3.388-1.138-1.033-2.404 5.349zm-3.507-8.194l-4.429 6.419 1.357.933 4.429-6.418 1.155.794.689-.998-3.697-2.541-.688.998 1.184.813zm-9.516 3.435l1.436.763 4.242-7.948-1.435-.764-4.243 7.949zm-6.167-2.688l3.564 1.404.413-1.044-2.04-.805 2.9-7.332-1.523-.6-3.314 8.377zm-15.341-4.268c.11.448.34.807.689 1.075.35.268.849.43 1.5.486.651.055 1.172-.019 1.561-.223.39-.205.679-.52.864-.947.186-.427.308-.972.364-1.637l.524-6.071-1.588-.137-.537 6.26c-.044.517-.141.91-.287 1.18-.147.27-.411.388-.797.355-.377-.033-.614-.194-.712-.486-.098-.291-.125-.695-.08-1.212l.539-6.259-1.598-.138-.523 6.071c-.056.673-.029 1.234.081 1.683zm-29.548.966c.204.429.457.76.76.994.304.234.677.41 1.12.529l1.45.41c.436.122.779.262 1.03.419.251.157.452.395.605.717.111.235.144.446.098.636-.045.189-.183.338-.411.446a.794.794 0 01-.872-.086c-.272-.203-.541-.558-.806-1.064l-1.16.855c.423.808.917 1.334 1.48 1.577.562.242 1.213.19 1.952-.159.403-.19.718-.444.946-.76a2.02 2.02 0 00.384-1.048 2.277 2.277 0 00-.233-1.156c-.234-.496-.548-.88-.941-1.155a4.52 4.52 0 00-1.396-.633l-1.441-.414c-.33-.09-.589-.199-.777-.328-.188-.128-.344-.324-.468-.585a.908.908 0 01-.078-.634c.053-.201.186-.352.401-.454.302-.143.558-.126.768.049.21.176.43.48.66.913l1.174-.825c-.368-.654-.798-1.109-1.293-1.363-.495-.254-1.093-.216-1.799.117-.657.31-1.09.729-1.296 1.257-.206.526-.158 1.108.143 1.745zm-7.522 2.079l4.925 7.546 3.192-2.075-.615-.942-1.82 1.184-1.635-2.506 1.418-.923-.626-.959-1.418.922-1.417-2.17 1.801-1.171-.633-.969-3.172 2.063zm-7.317 5.895L63.527 63l1.961-1.713c.626-.547.953-1.125.98-1.735.028-.61-.244-1.242-.816-1.894-.846-.964-1.726-1.181-2.64-.648.275-.329.394-.681.359-1.06-.036-.378-.233-.774-.596-1.186-.558-.636-1.122-.936-1.692-.901-.571.036-1.177.334-1.82.895l-1.677 1.464zm-9.425 17.594l-.897 1.639a.868.868 0 00.896 1.273l1.849-.286a.868.868 0 01.765.262l1.284 1.358a.87.87 0 001.49-.457l.299-1.844a.866.866 0 01.486-.645l1.691-.8a.867.867 0 00.025-1.556l-1.664-.853a.868.868 0 01-.465-.661l-.239-1.853a.869.869 0 00-1.474-.504l-1.327 1.316a.87.87 0 01-.773.237l-1.839-.345a.868.868 0 00-.936 1.244l.844 1.667a.874.874 0 01-.015.808zm-7.305 17.833l5.79-.975 3.403.512.234-1.55-3.404-.511-5.25-2.61-.224 1.484 3.38 1.565-3.701.568-.228 1.517zm-.321 7.905l1.213.017.02-1.435 7.807.111.023-1.645-7.807-.111.02-1.4-1.214-.018-.062 4.481zm.403 5.466l8.978-.893-.162-1.615-8.977.893.161 1.615zm1.346 7.621l8.819-1.902-.81-3.738-1.099.237.463 2.141-7.719 1.666.346 1.596zm2.302 7.291l9.091-1.412-.533-1.451-2.082.371-.541-1.471 1.832-1.051-.525-1.43-7.848 4.793.606 1.651zm10.127 6.911c.592-.325 1.044-.659 1.357-.999.312-.341.483-.731.513-1.17.029-.439-.114-.944-.429-1.516-.316-.571-.666-.962-1.053-1.172a1.884 1.884 0 00-1.269-.191c-.459.083-.981.285-1.566.607l-5.348 2.937.768 1.394 5.512-3.032c.455-.25.836-.388 1.143-.418.306-.028.552.126.738.464.182.331.18.617-.009.861-.188.243-.51.49-.965.74l-5.513 3.029.773 1.403 5.348-2.937zm5.911 3.119a1.339 1.339 0 00-.125-.143c.136-.395.23-.824.284-1.287.054-.464.049-.839-.014-1.127l-1.054.42c.032.295-.014.709-.135 1.243-.821-.416-1.78-.2-2.879.648l-2.677 2.068c-.758.585-1.208 1.185-1.35 1.801-.143.616.071 1.291.638 2.023.573.738 1.175 1.117 1.808 1.134.633.018 1.329-.267 2.086-.851l2.679-2.068c.763-.589 1.221-1.196 1.372-1.819.15-.623-.061-1.303-.633-2.042zm5.304 16.239l-1.12-.898 4.889-6.077-1.285-1.03-4.889 6.077-1.095-.878-.76.945 3.5 2.806.76-.945zm9.563-.014c.438-.8.602-1.502.492-2.105-.111-.601-.515-1.112-1.217-1.531a2.402 2.402 0 00-1.159-.363 2.026 2.026 0 00-1.086.263 2.29 2.29 0 00-.834.836c-.283.47-.429.944-.439 1.423a4.434 4.434 0 00.249 1.51l.455 1.426c.108.324.161.6.158.827-.002.227-.078.465-.227.713a.91.91 0 01-.485.417c-.197.067-.397.041-.601-.081-.287-.171-.415-.393-.386-.665.03-.272.161-.623.394-1.055l-1.34-.516c-.341.668-.48 1.279-.417 1.831s.428 1.027 1.097 1.428c.624.373 1.213.5 1.767.377s1.012-.486 1.375-1.089c.245-.408.38-.802.406-1.183a3.145 3.145 0 00-.181-1.224l-.464-1.431c-.14-.43-.215-.792-.223-1.088-.009-.295.078-.595.261-.9.133-.223.292-.367.476-.435.182-.067.383-.035.599.093.28.151.443.455.413.772-.018.339-.164.759-.439 1.26l1.356.49zm7.257.456l-3.502-1.497-.443 1.033 1.997.853-1.179 2.749-1.557-.664-.451 1.053 1.556.665-1.021 2.382-1.976-.845-.456 1.064 3.482 1.487 3.55-8.28zm.508-95.482l1.572-.494-2.346-7.434 1.339-.421-.365-1.156-4.281 1.347.365 1.156 1.37-.431 2.346 7.433zm7.263 97.864l-2.517-.677c-.803-.216-1.466-.166-1.99.15s-.899.893-1.125 1.73c-.333 1.238-.025 2.089.926 2.551-.426-.045-.786.051-1.082.291-.295.239-.515.624-.657 1.154-.22.816-.157 1.451.19 1.905.347.454.932.791 1.757 1.014l2.151.578 2.347-8.696zm6.818-100.62c.802-.451 1.155-1.367 1.059-2.749l-.235-3.371c-.067-.954-.316-1.661-.751-2.121-.434-.461-1.114-.659-2.039-.594-.933.065-1.583.355-1.949.871-.366.515-.516 1.251-.449 2.205l.234 3.372c.067.961.318 1.678.753 2.149.435.472 1.119.674 2.052.61.089-.007.152-.015.189-.024.253.332.559.648.914.951.357.303.672.507.947.614l.235-1.108c-.263-.14-.582-.409-.96-.805zm10.631 107.524l-1.385-1.256a.867.867 0 01-.277-.758l.251-1.851a.868.868 0 00-1.292-.869l-1.624.927a.872.872 0 01-.808.029l-1.686-.81a.869.869 0 00-1.228.958l.381 1.829a.865.865 0 01-.223.776l-1.293 1.35a.867.867 0 00.534 1.462l1.86.203c.284.031.535.2.671.451l.887 1.645a.87.87 0 001.557-.055l.768-1.703a.869.869 0 01.637-.497l1.841-.334a.868.868 0 00.429-1.497zm7.02-114.482l-1.712-.413-3.874 8.33 1.505.363.848-1.934 1.526.368-.142 2.105 1.483.358.366-9.177zm8.13 115.326l-3.75-4.511-1.264-3.196-1.461.576 1.265 3.196.372 5.843 1.398-.551-.339-3.704 2.349 2.911 1.43-.564zm7.011-3.688l-.594-1.056-1.253.702-3.82-6.798-1.437.805 3.82 6.797-1.223.685.594 1.057 3.913-2.192zm4.535-3.09l-5.278-7.305-1.319.95 5.277 7.304 1.32-.949zm5.929-4.986l-6.073-6.662-2.833 2.575.757.83 1.623-1.474 5.315 5.83 1.211-1.099zm5.164-5.646l-5.784-7.142-.99 1.188 1.366 1.612-1.004 1.205-1.83-1.055-.976 1.171 8.091 4.373 1.127-1.352zm6.137-9.067l-5.228-3.144c-.579-.348-1.095-.571-1.547-.67a1.888 1.888 0 00-1.271.144c-.395.195-.761.572-1.098 1.13-.337.559-.5 1.058-.488 1.497.013.44.169.837.471 1.192.302.355.739.704 1.311 1.048l5.228 3.145.823-1.362-5.393-3.239c-.445-.267-.756-.527-.935-.777-.178-.25-.168-.54.031-.87.196-.324.445-.465.751-.424.305.04.68.194 1.126.462l5.391 3.241.828-1.373zm3.146-8.461c-.302-.555-.897-1.014-1.784-1.374l-3.136-1.276c-.894-.363-1.649-.454-2.264-.272-.616.182-1.099.705-1.453 1.57a1.254 1.254 0 00-.061.18c-.41.081-.829.215-1.258.4-.429.186-.752.379-.97.578l.893.699c.24-.175.622-.343 1.145-.507.051.917.72 1.638 2.005 2.161l3.135 1.275c.888.361 1.633.448 2.238.262.606-.186 1.083-.708 1.433-1.566.354-.865.379-1.575.077-2.13zm3.975-13.898l-1.2-.182-.216 1.418L149.88 108l-.248 1.626 7.719 1.173-.211 1.386 1.2.182.675-4.43zm.45-6.003c.011-.726-.175-1.298-.559-1.715-.384-.417-.929-.63-1.634-.641-.476-.007-.885.074-1.228.243a3.146 3.146 0 00-.97.77l-1.007 1.119c-.302.337-.579.583-.83.738-.252.156-.554.231-.911.226-.26-.004-.465-.068-.615-.193-.15-.124-.223-.313-.22-.565a.791.791 0 01.462-.744c.303-.155.74-.239 1.312-.253l-.257-1.416c-.913.023-1.604.233-2.071.631-.466.397-.705 1.003-.717 1.819a2.39 2.39 0 00.267 1.183c.185.343.442.612.773.806a2.3 2.3 0 001.143.301c.55.009 1.033-.103 1.453-.335a4.492 4.492 0 001.184-.972l1.008-1.108c.227-.256.439-.44.638-.552.198-.112.443-.166.732-.162a.909.909 0 01.604.209c.157.136.235.322.231.56-.004.333-.133.555-.383.667-.251.111-.621.174-1.112.189l.225 1.416c.75-.041 1.349-.227 1.796-.558.445-.331.674-.884.686-1.663z" data-color="1" class="icon1"></path></g></g>
</svg>
</g><g opacity="1" transform="rotate(0 62.7963 333.4648)">
<svg width="358.1003" height="22" x="62.7963" y="333.4648" version="1.1" preserveAspectRatio="none" viewBox="0.28 -29.46 598.24 36.76">
  <g transform="matrix(1 0 0 1 0 0)" class="text"><path id="id-6izo4zJp28" d="M9.22 0L0.28-28.66L3.50-28.66Q4.02-28.66 4.36-28.40Q4.70-28.14 4.82-27.74L4.82-27.74L10.74-7.82Q10.90-7.28 11.03-6.66Q11.16-6.04 11.28-5.36L11.28-5.36Q11.42-6.04 11.56-6.67Q11.70-7.30 11.88-7.82L11.88-7.82L18.62-27.74Q18.74-28.08 19.09-28.37Q19.44-28.66 19.94-28.66L19.94-28.66L21.06-28.66Q21.58-28.66 21.91-28.40Q22.24-28.14 22.38-27.74L22.38-27.74L29.08-7.82Q29.44-6.78 29.72-5.44L29.72-5.44Q29.84-6.10 29.94-6.70Q30.04-7.30 30.20-7.82L30.20-7.82L36.14-27.74Q36.24-28.10 36.59-28.38Q36.94-28.66 37.44-28.66L37.44-28.66L40.46-28.66L31.52 0L28.04 0L20.78-21.86Q20.56-22.48 20.38-23.30L20.38-23.30Q20.28-22.90 20.19-22.53Q20.10-22.16 20-21.86L20-21.86L12.70 0L9.22 0Z M50.44 0L46.88 0L46.88-29.46L50.44-29.46L50.44-17.54Q51.74-18.92 53.32-19.75Q54.90-20.58 56.96-20.58L56.96-20.58Q58.62-20.58 59.89-20.03Q61.16-19.48 62.01-18.47Q62.86-17.46 63.30-16.04Q63.74-14.62 63.74-12.90L63.74-12.90L63.74 0L60.18 0L60.18-12.90Q60.18-15.20 59.13-16.47Q58.08-17.74 55.92-17.74L55.92-17.74Q54.34-17.74 52.97-16.98Q51.60-16.22 50.44-14.92L50.44-14.92L50.44 0Z M80.34-20.58L80.34-20.58Q82.16-20.58 83.70-19.97Q85.24-19.36 86.36-18.21Q87.48-17.06 88.11-15.37Q88.74-13.68 88.74-11.52L88.74-11.52Q88.74-10.68 88.56-10.40Q88.38-10.12 87.88-10.12L87.88-10.12L74.40-10.12Q74.44-8.20 74.92-6.78Q75.40-5.36 76.24-4.41Q77.08-3.46 78.24-2.99Q79.40-2.52 80.84-2.52L80.84-2.52Q82.18-2.52 83.15-2.83Q84.12-3.14 84.82-3.50Q85.52-3.86 85.99-4.17Q86.46-4.48 86.80-4.48L86.80-4.48Q87.24-4.48 87.48-4.14L87.48-4.14L88.48-2.84Q87.82-2.04 86.90-1.45Q85.98-0.86 84.93-0.48Q83.88-0.10 82.76 0.09Q81.64 0.28 80.54 0.28L80.54 0.28Q78.44 0.28 76.67-0.43Q74.90-1.14 73.61-2.51Q72.32-3.88 71.60-5.90Q70.88-7.92 70.88-10.54L70.88-10.54Q70.88-12.66 71.53-14.50Q72.18-16.34 73.40-17.69Q74.62-19.04 76.38-19.81Q78.14-20.58 80.34-20.58ZM80.42-17.96L80.42-17.96Q77.84-17.96 76.36-16.47Q74.88-14.98 74.52-12.34L74.52-12.34L85.54-12.34Q85.54-13.58 85.20-14.61Q84.86-15.64 84.20-16.39Q83.54-17.14 82.59-17.55Q81.64-17.96 80.42-17.96Z M100.04 0L96.48 0L96.48-20.26L98.52-20.26Q99.10-20.26 99.32-20.04Q99.54-19.82 99.62-19.28L99.62-19.28L99.86-16.12Q100.90-18.24 102.43-19.43Q103.96-20.62 106.02-20.62L106.02-20.62Q106.86-20.62 107.54-20.43Q108.22-20.24 108.80-19.90L108.80-19.90L108.34-17.24Q108.20-16.74 107.72-16.74L107.72-16.74Q107.44-16.74 106.86-16.93Q106.28-17.12 105.24-17.12L105.24-17.12Q103.38-17.12 102.13-16.04Q100.88-14.96 100.04-12.90L100.04-12.90L100.04 0Z M123.82-20.58L123.82-20.58Q125.64-20.58 127.18-19.97Q128.72-19.36 129.84-18.21Q130.96-17.06 131.59-15.37Q132.22-13.68 132.22-11.52L132.22-11.52Q132.22-10.68 132.04-10.40Q131.86-10.12 131.36-10.12L131.36-10.12L117.88-10.12Q117.92-8.20 118.40-6.78Q118.88-5.36 119.72-4.41Q120.56-3.46 121.72-2.99Q122.88-2.52 124.32-2.52L124.32-2.52Q125.66-2.52 126.63-2.83Q127.60-3.14 128.30-3.50Q129.00-3.86 129.47-4.17Q129.94-4.48 130.28-4.48L130.28-4.48Q130.72-4.48 130.96-4.14L130.96-4.14L131.96-2.84Q131.30-2.04 130.38-1.45Q129.46-0.86 128.41-0.48Q127.36-0.10 126.24 0.09Q125.12 0.28 124.02 0.28L124.02 0.28Q121.92 0.28 120.15-0.43Q118.38-1.14 117.09-2.51Q115.80-3.88 115.08-5.90Q114.36-7.92 114.36-10.54L114.36-10.54Q114.36-12.66 115.01-14.50Q115.66-16.34 116.88-17.69Q118.10-19.04 119.86-19.81Q121.62-20.58 123.82-20.58ZM123.90-17.96L123.90-17.96Q121.32-17.96 119.84-16.47Q118.36-14.98 118.00-12.34L118.00-12.34L129.02-12.34Q129.02-13.58 128.68-14.61Q128.34-15.64 127.68-16.39Q127.02-17.14 126.07-17.55Q125.12-17.96 123.90-17.96Z M151.44-28.66L169.10-28.66L169.10-25.50L155.34-25.50L155.34-15.98L166.48-15.98L166.48-12.94L155.34-12.94L155.34-3.16L169.10-3.16L169.10 0L151.44 0L151.44-28.66Z M183.02 0L174.76-20.26L177.68-20.26Q178.10-20.26 178.38-20.04Q178.66-19.82 178.78-19.52L178.78-19.52L183.92-6.48Q184.20-5.76 184.36-5.04Q184.52-4.32 184.66-3.62L184.66-3.62Q184.82-4.32 185-5.04Q185.18-5.76 185.46-6.48L185.46-6.48L190.66-19.52Q190.78-19.84 191.05-20.05Q191.32-20.26 191.72-20.26L191.72-20.26L194.50-20.26L186.24 0L183.02 0Z M208.50-20.58L208.50-20.58Q210.32-20.58 211.86-19.97Q213.40-19.36 214.52-18.21Q215.64-17.06 216.27-15.37Q216.90-13.68 216.90-11.52L216.90-11.52Q216.90-10.68 216.72-10.40Q216.54-10.12 216.04-10.12L216.04-10.12L202.56-10.12Q202.60-8.20 203.08-6.78Q203.56-5.36 204.40-4.41Q205.24-3.46 206.40-2.99Q207.56-2.52 209.00-2.52L209.00-2.52Q210.34-2.52 211.31-2.83Q212.28-3.14 212.98-3.50Q213.68-3.86 214.15-4.17Q214.62-4.48 214.96-4.48L214.96-4.48Q215.40-4.48 215.64-4.14L215.64-4.14L216.64-2.84Q215.98-2.04 215.06-1.45Q214.14-0.86 213.09-0.48Q212.04-0.10 210.92 0.09Q209.80 0.28 208.70 0.28L208.70 0.28Q206.60 0.28 204.83-0.43Q203.06-1.14 201.77-2.51Q200.48-3.88 199.76-5.90Q199.04-7.92 199.04-10.54L199.04-10.54Q199.04-12.66 199.69-14.50Q200.34-16.34 201.56-17.69Q202.78-19.04 204.54-19.81Q206.30-20.58 208.50-20.58ZM208.58-17.96L208.58-17.96Q206.00-17.96 204.52-16.47Q203.04-14.98 202.68-12.34L202.68-12.34L213.70-12.34Q213.70-13.58 213.36-14.61Q213.02-15.64 212.36-16.39Q211.70-17.14 210.75-17.55Q209.80-17.96 208.58-17.96Z M228.20 0L224.64 0L224.64-20.26L226.68-20.26Q227.26-20.26 227.48-20.04Q227.70-19.82 227.78-19.28L227.78-19.28L228.02-16.12Q229.06-18.24 230.59-19.43Q232.12-20.62 234.18-20.62L234.18-20.62Q235.02-20.62 235.70-20.43Q236.38-20.24 236.96-19.90L236.96-19.90L236.50-17.24Q236.36-16.74 235.88-16.74L235.88-16.74Q235.60-16.74 235.02-16.93Q234.44-17.12 233.40-17.12L233.40-17.12Q231.54-17.12 230.29-16.04Q229.04-14.96 228.20-12.90L228.20-12.90L228.20 0Z M261.20-20.26L249.90 5.98Q249.72 6.38 249.45 6.62Q249.18 6.86 248.62 6.86L248.62 6.86L245.98 6.86L249.68-1.18L241.32-20.26L244.40-20.26Q244.86-20.26 245.12-20.03Q245.38-19.80 245.50-19.52L245.50-19.52L250.92-6.76Q251.10-6.32 251.23-5.88Q251.36-5.44 251.46-4.98L251.46-4.98Q251.60-5.44 251.74-5.88Q251.88-6.32 252.06-6.78L252.06-6.78L257.32-19.52Q257.44-19.84 257.73-20.05Q258.02-20.26 258.36-20.26L258.36-20.26L261.20-20.26Z M299.32-5.92L299.32-5.92Q299.64-5.92 299.90-5.66L299.90-5.66L301.42-4Q299.66-1.96 297.15-0.82Q294.64 0.32 291.10 0.32L291.10 0.32Q288 0.32 285.48-0.75Q282.96-1.82 281.18-3.75Q279.40-5.68 278.42-8.38Q277.44-11.08 277.44-14.32L277.44-14.32Q277.44-17.56 278.49-20.26Q279.54-22.96 281.44-24.90Q283.34-26.84 285.99-27.91Q288.64-28.98 291.84-28.98L291.84-28.98Q295-28.98 297.29-28Q299.58-27.02 301.36-25.34L301.36-25.34L300.10-23.56Q299.96-23.36 299.78-23.23Q299.60-23.10 299.26-23.10L299.26-23.10Q299-23.10 298.71-23.29Q298.42-23.48 298.02-23.76Q297.62-24.04 297.08-24.36Q296.54-24.68 295.80-24.96Q295.06-25.24 294.08-25.43Q293.10-25.62 291.82-25.62L291.82-25.62Q289.52-25.62 287.61-24.83Q285.70-24.04 284.32-22.58Q282.94-21.12 282.17-19.02Q281.40-16.92 281.40-14.32L281.40-14.32Q281.40-11.64 282.17-9.54Q282.94-7.44 284.27-5.99Q285.60-4.54 287.42-3.78Q289.24-3.02 291.34-3.02L291.34-3.02Q292.62-3.02 293.64-3.17Q294.66-3.32 295.53-3.64Q296.40-3.96 297.15-4.45Q297.90-4.94 298.66-5.62L298.66-5.62Q299-5.92 299.32-5.92Z M309.56-29.46L313.12-29.46L313.12 0L309.56 0L309.56-29.46Z M323.00-20.26L326.56-20.26L326.56 0L323.00 0L323.00-20.26ZM327.36-26.62L327.36-26.62Q327.36-26.10 327.15-25.65Q326.94-25.20 326.59-24.85Q326.24-24.50 325.78-24.30Q325.32-24.10 324.80-24.10L324.80-24.10Q324.28-24.10 323.83-24.30Q323.38-24.50 323.03-24.85Q322.68-25.20 322.48-25.65Q322.28-26.10 322.28-26.62L322.28-26.62Q322.28-27.14 322.48-27.61Q322.68-28.08 323.03-28.43Q323.38-28.78 323.83-28.98Q324.28-29.18 324.80-29.18L324.80-29.18Q325.32-29.18 325.78-28.98Q326.24-28.78 326.59-28.43Q326.94-28.08 327.15-27.61Q327.36-27.14 327.36-26.62Z M350.80-17.94L349.86-16.66Q349.70-16.44 349.54-16.32Q349.38-16.20 349.08-16.20L349.08-16.20Q348.78-16.20 348.43-16.45Q348.08-16.70 347.54-17Q347.00-17.30 346.23-17.55Q345.46-17.80 344.34-17.80L344.34-17.80Q342.86-17.80 341.72-17.27Q340.58-16.74 339.81-15.74Q339.04-14.74 338.65-13.32Q338.26-11.90 338.26-10.14L338.26-10.14Q338.26-8.30 338.68-6.87Q339.10-5.44 339.86-4.47Q340.62-3.50 341.71-2.99Q342.80-2.48 344.16-2.48L344.16-2.48Q345.46-2.48 346.30-2.79Q347.14-3.10 347.70-3.48Q348.26-3.86 348.62-4.17Q348.98-4.48 349.34-4.48L349.34-4.48Q349.80-4.48 350.02-4.14L350.02-4.14L351.02-2.84Q349.70-1.22 347.72-0.47Q345.74 0.28 343.54 0.28L343.54 0.28Q341.64 0.28 340.01-0.42Q338.38-1.12 337.18-2.45Q335.98-3.78 335.29-5.72Q334.60-7.66 334.60-10.14L334.60-10.14Q334.60-12.40 335.23-14.32Q335.86-16.24 337.07-17.63Q338.28-19.02 340.06-19.80Q341.84-20.58 344.14-20.58L344.14-20.58Q346.26-20.58 347.90-19.89Q349.54-19.20 350.80-17.94L350.80-17.94Z M358.04-29.46L361.62-29.46L361.62-12.12L362.54-12.12Q362.94-12.12 363.20-12.23Q363.46-12.34 363.78-12.68L363.78-12.68L370.18-19.54Q370.48-19.86 370.78-20.06Q371.08-20.26 371.58-20.26L371.58-20.26L374.82-20.26L367.36-12.32Q367.08-11.98 366.81-11.72Q366.54-11.46 366.20-11.26L366.20-11.26Q366.56-11.02 366.85-10.71Q367.14-10.40 367.40-10L367.40-10L375.32 0L372.12 0Q371.68 0 371.37-0.17Q371.06-0.34 370.78-0.70L370.78-0.70L364.12-9Q363.82-9.42 363.52-9.55Q363.22-9.68 362.62-9.68L362.62-9.68L361.62-9.68L361.62 0L358.04 0L358.04-29.46Z M403.70 0L393.56 0L393.56-28.66L402.70-28.66Q405.34-28.66 407.25-28.14Q409.16-27.62 410.39-26.66Q411.62-25.70 412.21-24.31Q412.80-22.92 412.80-21.18L412.80-21.18Q412.80-20.12 412.47-19.14Q412.14-18.16 411.47-17.32Q410.80-16.48 409.79-15.82Q408.78-15.16 407.42-14.74L407.42-14.74Q410.56-14.12 412.16-12.48Q413.76-10.84 413.76-8.16L413.76-8.16Q413.76-6.34 413.09-4.84Q412.42-3.34 411.13-2.26Q409.84-1.18 407.97-0.59Q406.10 0 403.70 0L403.70 0ZM403.62-13.06L397.44-13.06L397.44-3.08L403.64-3.08Q405.30-3.08 406.49-3.46Q407.68-3.84 408.45-4.53Q409.22-5.22 409.58-6.17Q409.94-7.12 409.94-8.26L409.94-8.26Q409.94-10.48 408.37-11.77Q406.80-13.06 403.62-13.06L403.62-13.06ZM397.44-25.60L397.44-15.82L402.56-15.82Q404.20-15.82 405.40-16.18Q406.60-16.54 407.39-17.18Q408.18-17.82 408.56-18.73Q408.94-19.64 408.94-20.72L408.94-20.72Q408.94-23.24 407.42-24.42Q405.90-25.60 402.70-25.60L402.70-25.60L397.44-25.60Z M425.64 0L422.08 0L422.08-20.26L424.12-20.26Q424.70-20.26 424.92-20.04Q425.14-19.82 425.22-19.28L425.22-19.28L425.46-16.12Q426.50-18.24 428.03-19.43Q429.56-20.62 431.62-20.62L431.62-20.62Q432.46-20.62 433.14-20.43Q433.82-20.24 434.40-19.90L434.40-19.90L433.94-17.24Q433.80-16.74 433.32-16.74L433.32-16.74Q433.04-16.74 432.46-16.93Q431.88-17.12 430.84-17.12L430.84-17.12Q428.98-17.12 427.73-16.04Q426.48-14.96 425.64-12.90L425.64-12.90L425.64 0Z M441.80-20.26L445.36-20.26L445.36 0L441.80 0L441.80-20.26ZM446.16-26.62L446.16-26.62Q446.16-26.10 445.95-25.65Q445.74-25.20 445.39-24.85Q445.04-24.50 444.58-24.30Q444.12-24.10 443.60-24.10L443.60-24.10Q443.08-24.10 442.63-24.30Q442.18-24.50 441.83-24.85Q441.48-25.20 441.28-25.65Q441.08-26.10 441.08-26.62L441.08-26.62Q441.08-27.14 441.28-27.61Q441.48-28.08 441.83-28.43Q442.18-28.78 442.63-28.98Q443.08-29.18 443.60-29.18L443.60-29.18Q444.12-29.18 444.58-28.98Q445.04-28.78 445.39-28.43Q445.74-28.08 445.95-27.61Q446.16-27.14 446.16-26.62Z M458.40 0L454.84 0L454.84-20.26L456.96-20.26Q457.72-20.26 457.92-19.52L457.92-19.52L458.20-17.32Q459.52-18.78 461.15-19.68Q462.78-20.58 464.92-20.58L464.92-20.58Q466.58-20.58 467.85-20.03Q469.12-19.48 469.97-18.47Q470.82-17.46 471.26-16.04Q471.70-14.62 471.70-12.90L471.70-12.90L471.70 0L468.14 0L468.14-12.90Q468.14-15.20 467.09-16.47Q466.04-17.74 463.88-17.74L463.88-17.74Q462.30-17.74 460.93-16.98Q459.56-16.22 458.40-14.92L458.40-14.92L458.40 0Z M487.10-20.60L487.10-20.60Q488.42-20.60 489.57-20.31Q490.72-20.02 491.66-19.46L491.66-19.46L497.16-19.46L497.16-18.14Q497.16-17.48 496.32-17.30L496.32-17.30L494.02-16.98Q494.70-15.68 494.70-14.08L494.70-14.08Q494.70-12.60 494.13-11.39Q493.56-10.18 492.55-9.32Q491.54-8.46 490.15-8Q488.76-7.54 487.10-7.54L487.10-7.54Q485.68-7.54 484.42-7.88L484.42-7.88Q483.78-7.48 483.45-7.02Q483.12-6.56 483.12-6.12L483.12-6.12Q483.12-5.40 483.70-5.03Q484.28-4.66 485.24-4.50Q486.20-4.34 487.42-4.30Q488.64-4.26 489.91-4.17Q491.18-4.08 492.40-3.86Q493.62-3.64 494.58-3.14Q495.54-2.64 496.12-1.76Q496.70-0.88 496.70 0.52L496.70 0.52Q496.70 1.82 496.05 3.04Q495.40 4.26 494.18 5.21Q492.96 6.16 491.20 6.73Q489.44 7.30 487.22 7.30L487.22 7.30Q485.00 7.30 483.33 6.86Q481.66 6.42 480.56 5.68Q479.46 4.94 478.91 3.97Q478.36 3 478.36 1.94L478.36 1.94Q478.36 0.44 479.31-0.61Q480.26-1.66 481.92-2.28L481.92-2.28Q481.06-2.68 480.55-3.35Q480.04-4.02 480.04-5.14L480.04-5.14Q480.04-5.58 480.20-6.05Q480.36-6.52 480.69-6.98Q481.02-7.44 481.50-7.86Q481.98-8.28 482.62-8.60L482.62-8.60Q481.12-9.44 480.27-10.83Q479.42-12.22 479.42-14.08L479.42-14.08Q479.42-15.56 479.99-16.77Q480.56-17.98 481.58-18.83Q482.60-19.68 484.01-20.14Q485.42-20.60 487.10-20.60ZM493.42 1.10L493.42 1.10Q493.42 0.34 493.00-0.12Q492.58-0.58 491.86-0.83Q491.14-1.08 490.20-1.20Q489.26-1.32 488.22-1.37Q487.18-1.42 486.10-1.48Q485.02-1.54 484.04-1.70L484.04-1.70Q482.90-1.16 482.19-0.38Q481.48 0.40 481.48 1.48L481.48 1.48Q481.48 2.16 481.83 2.75Q482.18 3.34 482.90 3.77Q483.62 4.20 484.71 4.45Q485.80 4.70 487.28 4.70L487.28 4.70Q488.72 4.70 489.86 4.44Q491.00 4.18 491.79 3.70Q492.58 3.22 493.00 2.56Q493.42 1.90 493.42 1.10ZM487.10-9.90L487.10-9.90Q488.18-9.90 489.01-10.20Q489.84-10.50 490.40-11.04Q490.96-11.58 491.24-12.33Q491.52-13.08 491.52-13.98L491.52-13.98Q491.52-15.84 490.39-16.94Q489.26-18.04 487.10-18.04L487.10-18.04Q484.96-18.04 483.83-16.94Q482.70-15.84 482.70-13.98L482.70-13.98Q482.70-13.08 482.99-12.33Q483.28-11.58 483.84-11.04Q484.40-10.50 485.22-10.20Q486.04-9.90 487.10-9.90Z M516.32-18.22L515.52-16.92Q515.28-16.48 514.78-16.48L514.78-16.48Q514.48-16.48 514.10-16.70Q513.72-16.92 513.17-17.19Q512.62-17.46 511.86-17.69Q511.10-17.92 510.06-17.92L510.06-17.92Q509.16-17.92 508.44-17.69Q507.72-17.46 507.21-17.06Q506.70-16.66 506.43-16.13Q506.16-15.60 506.16-14.98L506.16-14.98Q506.16-14.20 506.61-13.68Q507.06-13.16 507.80-12.78Q508.54-12.40 509.48-12.11Q510.42-11.82 511.41-11.49Q512.40-11.16 513.34-10.76Q514.28-10.36 515.02-9.76Q515.76-9.16 516.21-8.29Q516.66-7.42 516.66-6.20L516.66-6.20Q516.66-4.80 516.16-3.61Q515.66-2.42 514.68-1.55Q513.70-0.68 512.28-0.18Q510.86 0.32 509.00 0.32L509.00 0.32Q506.88 0.32 505.16-0.37Q503.44-1.06 502.24-2.14L502.24-2.14L503.08-3.50Q503.24-3.76 503.46-3.90Q503.68-4.04 504.04-4.04L504.04-4.04Q504.40-4.04 504.80-3.76Q505.20-3.48 505.77-3.14Q506.34-2.80 507.15-2.52Q507.96-2.24 509.18-2.24L509.18-2.24Q510.22-2.24 511.00-2.51Q511.78-2.78 512.30-3.24Q512.82-3.70 513.07-4.30Q513.32-4.90 513.32-5.58L513.32-5.58Q513.32-6.42 512.87-6.97Q512.42-7.52 511.68-7.91Q510.94-8.30 509.99-8.59Q509.04-8.88 508.05-9.20Q507.06-9.52 506.11-9.93Q505.16-10.34 504.42-10.96Q503.68-11.58 503.23-12.49Q502.78-13.40 502.78-14.70L502.78-14.70Q502.78-15.86 503.26-16.93Q503.74-18 504.66-18.81Q505.58-19.62 506.92-20.10Q508.26-20.58 509.98-20.58L509.98-20.58Q511.98-20.58 513.57-19.95Q515.16-19.32 516.32-18.22L516.32-18.22Z M546.74-28.66L546.74-9.90Q546.74-7.50 546.15-5.60Q545.56-3.70 544.41-2.39Q543.26-1.08 541.58-0.38Q539.90 0.32 537.72 0.32L537.72 0.32Q535.78 0.32 533.68-0.24L533.68-0.24Q533.72-0.82 533.78-1.39Q533.84-1.96 533.90-2.52L533.90-2.52Q533.94-2.86 534.15-3.07Q534.36-3.28 534.78-3.28L534.78-3.28Q535.14-3.28 535.74-3.10Q536.34-2.92 537.34-2.92L537.34-2.92Q538.66-2.92 539.69-3.32Q540.72-3.72 541.43-4.56Q542.14-5.40 542.51-6.71Q542.88-8.02 542.88-9.82L542.88-9.82L542.88-28.66L546.74-28.66Z M564.56-20.58L564.56-20.58Q566.78-20.58 568.57-19.84Q570.36-19.10 571.61-17.74Q572.86-16.38 573.53-14.45Q574.20-12.52 574.20-10.14L574.20-10.14Q574.20-7.74 573.53-5.82Q572.86-3.90 571.61-2.54Q570.36-1.18 568.57-0.45Q566.78 0.28 564.56 0.28L564.56 0.28Q562.34 0.28 560.55-0.45Q558.76-1.18 557.50-2.54Q556.24-3.90 555.56-5.82Q554.88-7.74 554.88-10.14L554.88-10.14Q554.88-12.52 555.56-14.45Q556.24-16.38 557.50-17.74Q558.76-19.10 560.55-19.84Q562.34-20.58 564.56-20.58ZM564.56-2.50L564.56-2.50Q567.56-2.50 569.04-4.51Q570.52-6.52 570.52-10.12L570.52-10.12Q570.52-13.74 569.04-15.76Q567.56-17.78 564.56-17.78L564.56-17.78Q563.04-17.78 561.92-17.26Q560.80-16.74 560.05-15.76Q559.30-14.78 558.93-13.35Q558.56-11.92 558.56-10.12L558.56-10.12Q558.56-8.32 558.93-6.90Q559.30-5.48 560.05-4.51Q560.80-3.54 561.92-3.02Q563.04-2.50 564.56-2.50Z M598.52-20.26L587.22 5.98Q587.04 6.38 586.77 6.62Q586.50 6.86 585.94 6.86L585.94 6.86L583.30 6.86L587.00-1.18L578.64-20.26L581.72-20.26Q582.18-20.26 582.44-20.03Q582.70-19.80 582.82-19.52L582.82-19.52L588.24-6.76Q588.42-6.32 588.55-5.88Q588.68-5.44 588.78-4.98L588.78-4.98Q588.92-5.44 589.06-5.88Q589.20-6.32 589.38-6.78L589.38-6.78L594.64-19.52Q594.76-19.84 595.05-20.05Q595.34-20.26 595.68-20.26L595.68-20.26L598.52-20.26Z"/></g>
</svg>
</g><g opacity="1" transform="rotate(0 72.6663 267.4648)">
<svg width="338.3603" height="50" x="72.6663" y="267.4648" version="1.1" preserveAspectRatio="none" viewBox="2.5 -28.6719 254.2969 37.578199999999995">
  <g transform="matrix(1 0 0 1 0 0)" class="companyName"><path id="id-D6z1nYkh11" d="M19.32-22.56L19.32-22.56Q19.32-20.66 18.50-20.66Q17.68-20.66 16.75-22.34Q15.82-24.02 14.48-24.82Q13.14-25.63 11.04-25.63Q8.93-25.63 7.62-24.52Q6.31-23.42 6.31-21.46Q6.31-19.49 8.11-18.01L8.11-18.01Q9.22-17.07 13.02-15.43Q16.82-13.79 18.63-11.90Q20.45-10.02 20.45-6.91Q20.45-3.81 17.89-1.84Q15.33 0.14 11.41 0.14L11.41 0.14L10.68 0.14Q9.24 0.14 7.63-0.23Q6.02-0.61 5.05-0.77Q4.08-0.94 3.63-1.13L3.63-1.13Q2.50-1.66 2.50-4.22L2.50-4.22L2.50-4.88Q2.50-7.50 3.69-7.50L3.69-7.50Q4.22-7.50 5.11-5.72Q6.00-3.95 6.80-3.30L6.80-3.30Q8.81-1.70 11.46-1.70Q14.10-1.70 15.44-2.92Q16.78-4.14 16.78-5.60Q16.78-7.05 16.37-7.95Q15.96-8.85 14.88-9.70Q13.81-10.55 10.06-12.26Q6.31-13.96 4.86-15.35L4.86-15.35Q2.73-17.40 2.73-20.57Q2.73-23.73 5.20-25.61Q7.66-27.48 11.19-27.48L11.19-27.48Q12.66-27.48 14.59-27.10Q16.52-26.72 17.45-26.72Q18.38-26.72 18.85-26.11Q19.32-25.51 19.32-22.56Z M28.51-1.02L28.51-1.02Q28.51-1.37 29.38-2.24Q30.25-3.11 30.42-4.22Q30.58-5.33 30.58-13.94Q30.58-22.54 30.25-24.90L30.25-24.90Q30.09-26.00 29.57-26.37L29.57-26.37Q28.18-27.34 28.18-27.42L28.18-27.42Q28.18-27.77 29.12-28.22Q30.05-28.67 32.14-28.67L32.14-28.67Q33.51-28.67 33.88-27.71L33.88-27.71Q34.16-27.01 34.16-24.53L34.16-24.53L34.10-22.38Q34.04-20.21 34.04-19.47L34.04-19.47Q34.04-17.17 34.68-17.17L34.68-17.17Q34.80-17.17 36.92-17.99Q39.04-18.81 40.52-18.81L40.52-18.81Q43.69-18.81 45.09-16.52L45.09-16.52Q46.23-14.65 46.23-9.57L46.23-9.57L46.21-8.11L46.19-7.38L46.17-5.20Q46.17-3.24 46.46-2.74Q46.75-2.25 47.58-1.65Q48.41-1.05 48.41-0.82L48.41-0.82Q48.41-0.06 45.60-0.06L45.60-0.06L44.92-0.02L42.85 0.06Q41.09 0.06 41.09-0.61L41.09-0.61Q41.09-0.92 41.72-1.70Q42.36-2.48 42.50-2.78Q42.63-3.09 42.63-5.84L42.63-5.84L42.59-7.27L42.61-9.47Q42.61-13.89 41.82-15.20Q41.03-16.50 39.40-16.50Q37.77-16.50 36.47-15.77Q35.17-15.04 34.70-13.95Q34.23-12.85 34.23-8.10Q34.23-3.34 34.48-2.83Q34.72-2.32 35.45-1.71Q36.17-1.09 36.17-0.88L36.17-0.88Q36.17-0.06 32.34-0.06Q28.51-0.06 28.51-1.02Z M64.84-17.32L64.84-17.32L64.43-17.32Q62.32-17.32 60.85-15.06L60.85-15.06Q59.70-13.28 59.70-9.73L59.70-9.73L59.70-9.49L59.72-9.24Q59.72-3.85 62.61-1.95L62.61-1.95Q63.64-1.29 64.93-1.29L64.93-1.29L65.15-1.31Q67.24-1.31 68.51-3.28Q69.78-5.25 69.78-8.40L69.78-8.40L69.78-9.61Q69.78-13.01 68.38-15.17Q66.98-17.32 64.84-17.32ZM73.94-9.92L73.94-9.92L73.94-8.95Q73.94-7.15 73.20-5.27L73.20-5.27Q71.77-1.62 68.25-0.25L68.25-0.25Q66.55 0.41 64.99 0.41L64.99 0.41L64.68 0.41L64.35 0.39Q60.68 0.39 58.20-2.09L58.20-2.09Q57.06-3.22 56.41-5.12Q55.75-7.01 55.75-8.67L55.75-8.67L55.75-9.63Q55.75-11.46 56.49-13.32Q57.22-15.18 58.36-16.38Q59.50-17.58 61.24-18.29Q62.98-19.00 64.60-19.00L64.60-19.00L65.56-19.00Q68.94-19.00 71.44-16.50L71.44-16.50Q72.51-15.43 73.22-13.61Q73.94-11.80 73.94-9.92Z M87.41-8.13L87.41-7.48Q87.41-3.89 88.05-3.03L88.05-3.03Q89.15-1.56 91.47-1.56L91.47-1.56L91.88-1.56L92.10-1.58Q92.14-1.58 92.16-1.58L92.16-1.58Q93.11-1.58 94.07-2.15L94.07-2.15Q96.92-3.83 96.92-9.39L96.92-9.39L96.90-9.63Q96.90-12.77 95.67-14.86Q94.44-16.95 92.35-16.95L92.35-16.95L91.94-16.95Q90.71-16.95 89.56-16.25Q88.41-15.55 87.92-14.57Q87.43-13.59 87.43-8.77L87.43-8.77L87.41-8.13ZM87.64 0.42Q87.33 1.11 87.33 3.22Q87.33 5.33 87.69 5.93Q88.05 6.52 88.98 7.13Q89.91 7.73 89.91 8.13L89.91 8.13Q89.91 8.91 86.84 8.91L86.84 8.91L85.85 8.91Q81.43 8.91 81.43 7.99L81.43 7.99Q81.43 7.70 82.34 6.98Q83.25 6.27 83.45 5.33L83.45 5.33Q83.89 3.14 83.89-5.55Q83.89-14.24 83.63-15.12Q83.37-16.00 82.43-16.60Q81.49-17.21 81.49-17.60L81.49-17.60Q81.49-17.81 81.80-18.03L81.80-18.03Q82.88-18.79 85.34-18.79L85.34-18.79Q86.14-18.79 86.49-18.41Q86.84-18.03 87.12-17.53Q87.39-17.03 87.63-17.03L87.63-17.03Q87.74-17.03 88.56-17.52Q89.38-18.01 90.58-18.54Q91.79-19.08 93.29-19.08L93.29-19.08L93.82-19.08Q94.97-19.06 96.32-18.52L96.32-18.52Q98.97-17.42 100.11-14.32L100.11-14.32Q100.81-12.40 100.81-10.70L100.81-10.70L100.81-9.61Q100.81-7.62 100.05-5.68L100.05-5.68Q98.58-1.95 95.24-0.64L95.24-0.64Q93.72-0.04 91.79-0.04L91.79-0.04L88.64-0.27Q87.96-0.27 87.64 0.42Z M126.25-22.56L126.25-22.56Q126.25-20.66 125.43-20.66Q124.61-20.66 123.69-22.34Q122.76-24.02 121.42-24.82Q120.08-25.63 117.97-25.63Q115.86-25.63 114.55-24.52Q113.25-23.42 113.25-21.46Q113.25-19.49 115.04-18.01L115.04-18.01Q116.16-17.07 119.96-15.43Q123.75-13.79 125.57-11.90Q127.39-10.02 127.39-6.91Q127.39-3.81 124.83-1.84Q122.27 0.14 118.34 0.14L118.34 0.14L117.62 0.14Q116.18 0.14 114.56-0.23Q112.95-0.61 111.99-0.77Q111.02-0.94 110.57-1.13L110.57-1.13Q109.44-1.66 109.44-4.22L109.44-4.22L109.44-4.88Q109.44-7.50 110.63-7.50L110.63-7.50Q111.16-7.50 112.04-5.72Q112.93-3.95 113.73-3.30L113.73-3.30Q115.75-1.70 118.39-1.70Q121.04-1.70 122.38-2.92Q123.71-4.14 123.71-5.60Q123.71-7.05 123.30-7.95Q122.89-8.85 121.82-9.70Q120.75-10.55 117.00-12.26Q113.25-13.96 111.80-15.35L111.80-15.35Q109.67-17.40 109.67-20.57Q109.67-23.73 112.13-25.61Q114.59-27.48 118.13-27.48L118.13-27.48Q119.59-27.48 121.53-27.10Q123.46-26.72 124.39-26.72Q125.32-26.72 125.79-26.11Q126.25-25.51 126.25-22.56Z M140.88-8.13L140.88-7.48Q140.88-3.89 141.52-3.03L141.52-3.03Q142.62-1.56 144.94-1.56L144.94-1.56L145.35-1.56L145.57-1.58Q145.61-1.58 145.63-1.58L145.63-1.58Q146.58-1.58 147.54-2.15L147.54-2.15Q150.39-3.83 150.39-9.39L150.39-9.39L150.37-9.63Q150.37-12.77 149.14-14.86Q147.91-16.95 145.82-16.95L145.82-16.95L145.41-16.95Q144.18-16.95 143.03-16.25Q141.88-15.55 141.39-14.57Q140.90-13.59 140.90-8.77L140.90-8.77L140.88-8.13ZM141.11 0.42Q140.80 1.11 140.80 3.22Q140.80 5.33 141.16 5.93Q141.52 6.52 142.45 7.13Q143.38 7.73 143.38 8.13L143.38 8.13Q143.38 8.91 140.31 8.91L140.31 8.91L139.32 8.91Q134.90 8.91 134.90 7.99L134.90 7.99Q134.90 7.70 135.81 6.98Q136.72 6.27 136.91 5.33L136.91 5.33Q137.36 3.14 137.36-5.55Q137.36-14.24 137.10-15.12Q136.84-16.00 135.90-16.60Q134.96-17.21 134.96-17.60L134.96-17.60Q134.96-17.81 135.27-18.03L135.27-18.03Q136.35-18.79 138.81-18.79L138.81-18.79Q139.61-18.79 139.96-18.41Q140.31-18.03 140.59-17.53Q140.86-17.03 141.09-17.03L141.09-17.03Q141.21-17.03 142.03-17.52Q142.85-18.01 144.05-18.54Q145.25-19.08 146.76-19.08L146.76-19.08L147.29-19.08Q148.44-19.06 149.79-18.52L149.79-18.52Q152.44-17.42 153.57-14.32L153.57-14.32Q154.28-12.40 154.28-10.70L154.28-10.70L154.28-9.61Q154.28-7.62 153.52-5.68L153.52-5.68Q152.05-1.95 148.71-0.64L148.71-0.64Q147.19-0.04 145.25-0.04L145.25-0.04L142.11-0.27Q141.43-0.27 141.11 0.42Z M162.61-1.02L162.61-1.02Q162.61-1.37 163.48-2.24Q164.35-3.11 164.52-4.22Q164.68-5.33 164.68-13.94Q164.68-22.54 164.35-24.90L164.35-24.90Q164.20-26.00 163.67-26.37L163.67-26.37Q162.28-27.34 162.28-27.42L162.28-27.42Q162.28-27.77 163.22-28.22Q164.16-28.67 166.25-28.67L166.25-28.67Q167.61-28.67 167.98-27.71L167.98-27.71Q168.26-27.01 168.26-24.53L168.26-24.53L168.20-22.38Q168.14-20.21 168.14-19.47L168.14-19.47Q168.14-17.17 168.79-17.17L168.79-17.17Q168.90-17.17 171.02-17.99Q173.14-18.81 174.63-18.81L174.63-18.81Q177.79-18.81 179.20-16.52L179.20-16.52Q180.33-14.65 180.33-9.57L180.33-9.57L180.31-8.11L180.29-7.38L180.27-5.20Q180.27-3.24 180.56-2.74Q180.86-2.25 181.69-1.65Q182.52-1.05 182.52-0.82L182.52-0.82Q182.52-0.06 179.70-0.06L179.70-0.06L179.02-0.02L176.95 0.06Q175.19 0.06 175.19-0.61L175.19-0.61Q175.19-0.92 175.83-1.70Q176.46-2.48 176.60-2.78Q176.73-3.09 176.73-5.84L176.73-5.84L176.70-7.27L176.71-9.47Q176.71-13.89 175.92-15.20Q175.13-16.50 173.50-16.50Q171.87-16.50 170.57-15.77Q169.27-15.04 168.80-13.95Q168.34-12.85 168.34-8.10Q168.34-3.34 168.58-2.83Q168.82-2.32 169.55-1.71Q170.27-1.09 170.27-0.88L170.27-0.88Q170.27-0.06 166.44-0.06Q162.61-0.06 162.61-1.02Z M195.15-11.07L195.15-11.07L195.66-11.07L199.39-11.33Q200.07-11.43 200.38-11.43L200.38-11.43Q201.67-11.43 202.18-11.93L202.18-11.93Q202.39-12.15 202.39-12.95L202.39-12.95Q202.39-14.80 201.31-16.03Q200.23-17.25 198.70-17.25L198.70-17.25L198.31-17.25Q196.55-17.25 195.18-15.72Q193.80-14.20 193.80-12.29L193.80-12.29L193.76-12.03L193.76-11.91Q193.76-11.15 194.58-11.15L194.58-11.15Q194.97-11.07 195.15-11.07ZM193.64-7.79L193.64-7.79Q193.64-5.08 195.38-3.52Q197.12-1.95 199.95-1.95L199.95-1.95Q201.13-1.95 203.04-2.83Q204.95-3.71 205.01-3.71L205.01-3.71Q205.70-3.71 205.70-3.07L205.70-3.07Q205.70-1.86 202.98-0.53L202.98-0.53Q201.13 0.37 199.02 0.37L199.02 0.37L198.57 0.37Q194.43 0.37 192.08-2.22Q189.74-4.80 189.74-8.96L189.74-8.96L189.74-9.41Q189.74-9.45 189.74-9.51L189.74-9.51Q189.74-11.23 190.42-12.97L190.42-12.97Q191.87-16.70 195.01-18.11L195.01-18.11Q196.98-18.98 198.63-18.98L198.63-18.98L199.48-18.98Q202.04-18.98 203.94-17.34L203.94-17.34Q204.95-16.46 205.52-15.12Q206.09-13.77 206.09-12.73L206.09-12.73L206.09-12.32Q206.09-10.84 204.88-10.33L204.88-10.33Q204.17-10.04 199.77-9.73Q195.36-9.41 194.82-9.26L194.82-9.26Q193.64-8.93 193.64-7.79Z M222.20-1.93Q223.25-1.39 223.25-0.68Q223.25 0.02 220.36 0.02L220.36 0.02L218.29 0.02L217.47-0.02L216.26-0.04Q213.93-0.04 213.93-0.84L213.93-0.84Q213.93-1.25 214.87-1.79Q215.81-2.32 216.11-3.18Q216.41-4.04 216.41-8.97Q216.41-13.91 216.12-14.91Q215.83-15.92 214.94-16.45Q214.05-16.97 214.05-17.40L214.05-17.40Q214.05-17.58 214.34-17.79L214.34-17.79Q215.48-18.63 218.37-18.63L218.37-18.63Q219.54-18.63 219.95-17.77L219.95-17.77Q220.63-16.35 220.79-16.35L220.79-16.35Q221.22-16.35 221.88-16.88L221.88-16.88Q223.99-18.55 226.22-18.55L226.22-18.55Q227.04-18.55 227.68-17.88Q228.33-17.21 228.33-16.36Q228.33-15.51 227.88-15.01Q227.43-14.51 226.78-14.51Q226.12-14.51 225.28-15.06Q224.44-15.61 223.70-15.61L223.70-15.61Q221.96-15.61 220.91-13.05L220.91-13.05Q220.28-11.48 220.28-7.81Q220.28-4.14 220.71-3.31Q221.14-2.48 222.20-1.93Z M239.89-11.07L239.89-11.07L240.39-11.07L244.13-11.33Q244.81-11.43 245.12-11.43L245.12-11.43Q246.41-11.43 246.92-11.93L246.92-11.93Q247.13-12.15 247.13-12.95L247.13-12.95Q247.13-14.80 246.05-16.03Q244.96-17.25 243.44-17.25L243.44-17.25L243.05-17.25Q241.29-17.25 239.92-15.72Q238.54-14.20 238.54-12.29L238.54-12.29L238.50-12.03L238.50-11.91Q238.50-11.15 239.32-11.15L239.32-11.15Q239.71-11.07 239.89-11.07ZM238.38-7.79L238.38-7.79Q238.38-5.08 240.12-3.52Q241.86-1.95 244.69-1.95L244.69-1.95Q245.86-1.95 247.78-2.83Q249.69-3.71 249.75-3.71L249.75-3.71Q250.43-3.71 250.43-3.07L250.43-3.07Q250.43-1.86 247.72-0.53L247.72-0.53Q245.86 0.37 243.75 0.37L243.75 0.37L243.30 0.37Q239.16 0.37 236.82-2.22Q234.48-4.80 234.48-8.96L234.48-8.96L234.48-9.41Q234.48-9.45 234.48-9.51L234.48-9.51Q234.48-11.23 235.16-12.97L235.16-12.97Q236.61-16.70 239.75-18.11L239.75-18.11Q241.72-18.98 243.36-18.98L243.36-18.98L244.22-18.98Q246.78-18.98 248.68-17.34L248.68-17.34Q249.69-16.46 250.26-15.12Q250.82-13.77 250.82-12.73L250.82-12.73L250.82-12.32Q250.82-10.84 249.61-10.33L249.61-10.33Q248.91-10.04 244.51-9.73Q240.10-9.41 239.55-9.26L239.55-9.26Q238.38-8.93 238.38-7.79Z"/></g>
</svg>
</g></svg></svg>