<svg version="1.1" preserveAspectRatio="none" xmlns="http://www.w3.org/2000/svg" width="500" height="500" viewBox="0 0 500 500"><rect width="100%" height="100%" fill="#F9F7F7" fill-opacity="1"/><svg viewBox="-15.1703 119.673 437.3917 126" width="333" height="95.92774622838064" x="83.5px" y="202.0361px" xmlns="http://www.w3.org/2000/svg" xmlns:xlink="http://www.w3.org/1999/xlink" preserveAspectRatio="none"><defs></defs><style>.aq6WP-wJgVstrokeColor-str {stroke:#0C0C0C;stroke-opacity:1;}.companyName {fill:#2C3E57;fill-opacity:1;}.icon1 {fill:#9C8B58;fill-opacity:1;}.icon3 {fill:#C8B889;fill-opacity:1;}.icon3-str {stroke:#C8B889;stroke-opacity:1;}.shape {fill:#9C8B58;fill-opacity:1;}.shapeStroke-str {stroke:#2C3E57;stroke-opacity:1;}.text {fill:#1A1245;fill-opacity:1;}</style><g opacity="1" transform="rotate(0 -15.1703 194.673)">
<svg width="178.6958" height="1.4" x="-15.1703" y="194.673" version="1.1" preserveAspectRatio="none" viewBox="0 0 178.6958 1.4">
  <defs><rect x="0" y="0" width="178.6958" height="1.4" rx="0px" ry="0px" id="id-5kldYRpCP1724895162888"></rect></defs><use class="icon1 shapeStroke-str" style="stroke-width:0;" xlink:href="#id-5kldYRpCP1724895162888"></use>
</svg>
</g><g opacity="1" transform="rotate(0 180.0925 178.373)">
<svg width="46.8661" height="32" x="180.0925" y="178.373" version="1.1" preserveAspectRatio="none" viewBox="19.99881172180176 45.37599182128906 160.0006866455078 109.24801635742188">
  <g transform="matrix(1 0 0 1 0 0)"><g><path d="M120.23 154.624c-6.238 0-12.903-.92-19.976-2.761a2.286 2.286 0 0 1-1.709-2.033c-1.549-19.328 2.791-34.715 12.903-45.73 12.783-13.927 35.069-21.078 66.247-21.254.665.166 1.334.296 1.768.818.439.522.622 1.212.499 1.883-5.591 30.676-16.503 51.385-32.436 61.552-7.852 5.011-16.988 7.525-27.296 7.525zm-17.236-6.797c16.793 4.065 30.936 2.514 42.066-4.589 14.356-9.157 24.399-27.914 29.879-55.776-28.387.558-48.602 7.193-60.116 19.735-8.931 9.733-12.907 23.398-11.829 40.63z" data-color="1" class="icon1"></path><path d="M79.769 154.624c-10.31 0-19.443-2.51-27.297-7.525-15.934-10.167-26.847-30.876-32.436-61.552a2.29 2.29 0 0 1 2.255-2.701h.013c31.178.177 53.468 7.329 66.249 21.254 10.107 11.015 14.449 26.402 12.898 45.73a2.286 2.286 0 0 1-1.709 2.033c-7.071 1.84-13.737 2.761-19.973 2.761zM25.063 87.462c5.48 27.861 15.523 46.619 29.875 55.776 11.136 7.108 25.279 8.65 42.063 4.589 1.084-17.232-2.891-30.897-11.822-40.63C73.667 94.655 53.45 88.02 25.063 87.462zm74.105 62.185h.043-.043z" data-color="1" class="icon1"></path><path d="M101.456 150.277c-.464 0-.929-.145-1.329-.426-15.8-11.237-24.795-24.45-26.736-39.275-2.452-18.742 6.398-40.412 26.302-64.411.869-1.052 2.659-1.052 3.528 0 19.904 23.999 28.754 45.668 26.3 64.411-1.939 14.824-10.934 28.038-26.734 39.275a2.325 2.325 0 0 1-1.331.426zm0-99.032c-17.82 22.107-25.731 41.857-23.523 58.739 1.715 13.099 9.626 24.923 23.523 35.171 13.895-10.248 21.808-22.073 23.521-35.171 2.212-16.882-5.701-36.632-23.521-58.739z" data-color="1" class="icon1"></path></g></g>
</svg>
</g><g opacity="1" transform="rotate(0 -15.1703 229.673)">
<svg width="437.3917" height="16" x="-15.1703" y="229.673" version="1.1" preserveAspectRatio="none" viewBox="1.48 -28.24 778.5600000000001 28.48">
  <g transform="matrix(1 0 0 1 0 0)" class="text"><path id="id-6izo4zJp28" d="M40.16-28L43-28L33.56 0L30.44 0L22.24-23.88L14 0L10.92 0L1.48-28L4.52-28L12.60-3.92L20.96-28L23.72-28L31.96-3.80L40.16-28Z M72.08-28L75-28L75 0L72.08 0L72.08-12.92L54.56-12.92L54.56 0L51.60 0L51.60-28L54.56-28L54.56-15.52L72.08-15.52L72.08-28Z M90.28-2.56L107.12-2.56L107.12 0L87.32 0L87.32-28L106.52-28L106.52-25.44L90.28-25.44L90.28-15.48L104.76-15.48L104.76-12.96L90.28-12.96L90.28-2.56Z M139.64 0L136.40 0L130-9Q128.92-8.88 127.76-8.88L127.76-8.88L120.24-8.88L120.24 0L117.28 0L117.28-28L127.76-28Q133.12-28 136.16-25.44Q139.20-22.88 139.20-18.40L139.20-18.40Q139.20-15.12 137.54-12.86Q135.88-10.60 132.80-9.60L132.80-9.60L139.64 0ZM127.68-11.40Q131.84-11.40 134.04-13.24Q136.24-15.08 136.24-18.40L136.24-18.40Q136.24-21.80 134.04-23.62Q131.84-25.44 127.68-25.44L127.68-25.44L120.24-25.44L120.24-11.40L127.68-11.40Z M152.36-2.56L169.20-2.56L169.20 0L149.40 0L149.40-28L168.60-28L168.60-25.44L152.36-25.44L152.36-15.48L166.84-15.48L166.84-12.96L152.36-12.96L152.36-2.56Z M196.00-2.56L212.84-2.56L212.84 0L193.04 0L193.04-28L212.24-28L212.24-25.44L196.00-25.44L196.00-15.48L210.48-15.48L210.48-12.96L196.00-12.96L196.00-2.56Z M242.88-28L245.88-28L233.48 0L230.56 0L218.16-28L221.36-28L232.08-3.68L242.88-28Z M256.08-2.56L272.92-2.56L272.92 0L253.12 0L253.12-28L272.32-28L272.32-25.44L256.08-25.44L256.08-15.48L270.56-15.48L270.56-12.96L256.08-12.96L256.08-2.56Z M305.44 0L302.20 0L295.80-9Q294.72-8.88 293.56-8.88L293.56-8.88L286.04-8.88L286.04 0L283.08 0L283.08-28L293.56-28Q298.92-28 301.96-25.44Q305.00-22.88 305.00-18.40L305.00-18.40Q305.00-15.12 303.34-12.86Q301.68-10.60 298.60-9.60L298.60-9.60L305.44 0ZM293.48-11.40Q297.64-11.40 299.84-13.24Q302.04-15.08 302.04-18.40L302.04-18.40Q302.04-21.80 299.84-23.62Q297.64-25.44 293.48-25.44L293.48-25.44L286.04-25.44L286.04-11.40L293.48-11.40Z M335.60-28L324.40-9.68L324.40 0L321.48 0L321.48-9.68L310.28-28L313.44-28L323.04-12.28L332.64-28L335.60-28Z M369.24 0.24Q365.08 0.24 361.74-1.60Q358.40-3.44 356.50-6.70Q354.60-9.96 354.60-14L354.60-14Q354.60-18.04 356.50-21.30Q358.40-24.56 361.76-26.40Q365.12-28.24 369.28-28.24L369.28-28.24Q372.40-28.24 375.04-27.20Q377.68-26.16 379.52-24.16L379.52-24.16L377.64-22.28Q374.36-25.60 369.36-25.60L369.36-25.60Q366.04-25.60 363.32-24.08Q360.60-22.56 359.06-19.92Q357.52-17.28 357.52-14L357.52-14Q357.52-10.72 359.06-8.08Q360.60-5.44 363.32-3.92Q366.04-2.40 369.36-2.40L369.36-2.40Q374.40-2.40 377.64-5.76L377.64-5.76L379.52-3.88Q377.68-1.88 375.02-0.82Q372.36 0.24 369.24 0.24L369.24 0.24Z M389.04 0L389.04-28L392.00-28L392.00-2.56L407.68-2.56L407.68 0L389.04 0Z M415.80 0L415.80-28L418.76-28L418.76 0L415.80 0Z M443.24 0.24Q439.08 0.24 435.74-1.60Q432.40-3.44 430.50-6.70Q428.60-9.96 428.60-14L428.60-14Q428.60-18.04 430.50-21.30Q432.40-24.56 435.76-26.40Q439.12-28.24 443.28-28.24L443.28-28.24Q446.40-28.24 449.04-27.20Q451.68-26.16 453.52-24.16L453.52-24.16L451.64-22.28Q448.36-25.60 443.36-25.60L443.36-25.60Q440.04-25.60 437.32-24.08Q434.60-22.56 433.06-19.92Q431.52-17.28 431.52-14L431.52-14Q431.52-10.72 433.06-8.08Q434.60-5.44 437.32-3.92Q440.04-2.40 443.36-2.40L443.36-2.40Q448.40-2.40 451.64-5.76L451.64-5.76L453.52-3.88Q451.68-1.88 449.02-0.82Q446.36 0.24 443.24 0.24L443.24 0.24Z M483.16 0L471.72-13.16L466.00-7.36L466.00 0L463.04 0L463.04-28L466.00-28L466.00-11.08L482.44-28L485.84-28L473.72-15.32L486.68 0L483.16 0Z M526.00-14.44Q528.76-13.84 530.26-12.06Q531.76-10.28 531.76-7.48L531.76-7.48Q531.76-3.88 529.10-1.94Q526.44 0 521.24 0L521.24 0L508.36 0L508.36-28L520.44-28Q525.12-28 527.70-26.12Q530.28-24.24 530.28-20.80L530.28-20.80Q530.28-18.48 529.14-16.86Q528.00-15.24 526.00-14.44L526.00-14.44ZM520.24-25.56L511.32-25.56L511.32-15.40L520.24-15.40Q523.64-15.40 525.48-16.70Q527.32-18 527.32-20.48L527.32-20.48Q527.32-22.96 525.48-24.26Q523.64-25.56 520.24-25.56L520.24-25.56ZM521.20-2.44Q524.96-2.44 526.88-3.72Q528.80-5 528.80-7.72L528.80-7.72Q528.80-12.96 521.20-12.96L521.20-12.96L511.32-12.96L511.32-2.44L521.20-2.44Z M564.08 0L560.84 0L554.44-9Q553.36-8.88 552.20-8.88L552.20-8.88L544.68-8.88L544.68 0L541.72 0L541.72-28L552.20-28Q557.56-28 560.60-25.44Q563.64-22.88 563.64-18.40L563.64-18.40Q563.64-15.12 561.98-12.86Q560.32-10.60 557.24-9.60L557.24-9.60L564.08 0ZM552.12-11.40Q556.28-11.40 558.48-13.24Q560.68-15.08 560.68-18.40L560.68-18.40Q560.68-21.80 558.48-23.62Q556.28-25.44 552.12-25.44L552.12-25.44L544.68-25.44L544.68-11.40L552.12-11.40Z M573.84 0L573.84-28L576.80-28L576.80 0L573.84 0Z M609.60-28L612.52-28L612.52 0L610.08 0L592.08-22.72L592.08 0L589.12 0L589.12-28L591.56-28L609.60-5.28L609.60-28Z M644.56-4.56L644.56-14L647.40-14L647.40-3.32Q645.44-1.60 642.76-0.68Q640.08 0.24 637.12 0.24L637.12 0.24Q632.92 0.24 629.56-1.60Q626.20-3.44 624.28-6.70Q622.36-9.96 622.36-14L622.36-14Q622.36-18.04 624.28-21.30Q626.20-24.56 629.56-26.40Q632.92-28.24 637.16-28.24L637.16-28.24Q640.36-28.24 643.04-27.22Q645.72-26.20 647.56-24.20L647.56-24.20L645.72-22.32Q642.40-25.60 637.28-25.60L637.28-25.60Q633.88-25.60 631.14-24.10Q628.40-22.60 626.84-19.94Q625.28-17.28 625.28-14L625.28-14Q625.28-10.72 626.84-8.08Q628.40-5.44 631.12-3.92Q633.84-2.40 637.24-2.40L637.24-2.40Q641.56-2.40 644.56-4.56L644.56-4.56Z M666.68 0.24Q663.56 0.24 660.70-0.76Q657.84-1.76 656.28-3.40L656.28-3.40L657.44-5.68Q658.96-4.16 661.48-3.22Q664-2.28 666.68-2.28L666.68-2.28Q670.44-2.28 672.32-3.66Q674.20-5.04 674.20-7.24L674.20-7.24Q674.20-8.92 673.18-9.92Q672.16-10.92 670.68-11.46Q669.20-12 666.56-12.64L666.56-12.64Q663.40-13.44 661.52-14.18Q659.64-14.92 658.30-16.44Q656.96-17.96 656.96-20.56L656.96-20.56Q656.96-22.68 658.08-24.42Q659.20-26.16 661.52-27.20Q663.84-28.24 667.28-28.24L667.28-28.24Q669.68-28.24 671.98-27.58Q674.28-26.92 675.96-25.76L675.96-25.76L674.96-23.40Q673.20-24.56 671.20-25.14Q669.20-25.72 667.28-25.72L667.28-25.72Q663.60-25.72 661.74-24.30Q659.88-22.88 659.88-20.64L659.88-20.64Q659.88-18.96 660.90-17.94Q661.92-16.92 663.46-16.38Q665-15.84 667.60-15.20L667.60-15.20Q670.68-14.44 672.58-13.70Q674.48-12.96 675.80-11.46Q677.12-9.96 677.12-7.40L677.12-7.40Q677.12-5.28 675.98-3.54Q674.84-1.80 672.48-0.78Q670.12 0.24 666.68 0.24L666.68 0.24Z M703.44 0.24Q701.04 0.24 699.00-0.80Q696.96-1.84 695.68-3.76L695.68-3.76L697.44-5.76Q699.76-2.32 703.48-2.32L703.48-2.32Q708.68-2.32 708.68-8.48L708.68-8.48L708.68-25.44L698.44-25.44L698.44-28L711.60-28L711.60-8.60Q711.60-4.20 709.54-1.98Q707.48 0.24 703.44 0.24L703.44 0.24Z M735.92 0.24Q731.76 0.24 728.38-1.62Q725.00-3.48 723.10-6.72Q721.20-9.96 721.20-14L721.20-14Q721.20-18.04 723.10-21.28Q725.00-24.52 728.38-26.38Q731.76-28.24 735.92-28.24L735.92-28.24Q740.08-28.24 743.42-26.40Q746.76-24.56 748.68-21.30Q750.60-18.04 750.60-14L750.60-14Q750.60-9.96 748.68-6.70Q746.76-3.44 743.42-1.60Q740.08 0.24 735.92 0.24L735.92 0.24ZM735.92-2.40Q739.24-2.40 741.92-3.90Q744.60-5.40 746.12-8.06Q747.64-10.72 747.64-14L747.64-14Q747.64-17.28 746.12-19.94Q744.60-22.60 741.92-24.10Q739.24-25.60 735.92-25.60L735.92-25.60Q732.60-25.60 729.90-24.10Q727.20-22.60 725.66-19.94Q724.12-17.28 724.12-14L724.12-14Q724.12-10.72 725.66-8.06Q727.20-5.40 729.90-3.90Q732.60-2.40 735.92-2.40L735.92-2.40Z M780.04-28L768.84-9.68L768.84 0L765.92 0L765.92-9.68L754.72-28L757.88-28L767.48-12.28L777.08-28L780.04-28Z"/></g>
</svg>
</g><g opacity="1" transform="rotate(0 34.7598 119.673)">
<svg width="337.5315" height="40" x="34.7598" y="119.673" version="1.1" preserveAspectRatio="none" viewBox="2.32 -28.56 245.72 29.12">
  <g transform="matrix(1 0 0 1 0 0)" class="companyName"><path id="id-D6z1nYkh11" d="M2.44-1.64L2.44-1.64Q2.32-2.20 2.32-3.80Q2.32-5.40 2.92-7.20L2.92-7.20L3.28-7.20Q3.24-6.76 3.24-6.32L3.24-6.32Q3.24-3.88 4.72-2.26Q6.20-0.64 8.64-0.64L8.64-0.64Q11.16-0.64 12.78-2.16Q14.40-3.68 14.40-5.98Q14.40-8.28 12.84-9.72L12.84-9.72L5.16-16.84Q3-18.84 3-21.68Q3-24.52 4.90-26.54Q6.80-28.56 10.04-28.56L10.04-28.56Q11.56-28.56 13.48-28.16L13.48-28.16L15.04-28.16L15.04-23.24L14.68-23.24Q14.68-25.12 13.38-26.24Q12.08-27.36 10.04-27.36Q8-27.36 6.62-26Q5.24-24.64 5.24-22.60Q5.24-20.56 6.84-19.08L6.84-19.08L14.72-11.80Q16.72-9.96 16.72-6.76Q16.72-3.56 14.68-1.50Q12.64 0.56 9.24 0.56L9.24 0.56Q7.48 0.56 5.50 0.02Q3.52-0.52 2.44-1.64Z M39.32-0.40L39.80-0.40Q40.72-0.40 41.40-1.02Q42.08-1.64 42.12-2.52L42.12-2.52L42.12-11.24L27.36-11.24L27.36-2.52Q27.40-1.64 28.08-1.02Q28.76-0.40 29.68-0.40L29.68-0.40L30.16-0.40L30.16 0L22 0L22-0.40L22.48-0.40Q23.44-0.40 24.10-1.04Q24.76-1.68 24.80-2.56L24.80-2.56L24.80-21.44Q24.76-22.32 24.08-22.96Q23.40-23.60 22.48-23.60L22.48-23.60L22-23.60L22-24L30.16-24L30.16-23.60L29.68-23.60Q28.76-23.60 28.08-22.98Q27.40-22.36 27.36-21.48L27.36-21.48L27.36-12.44L42.12-12.44L42.12-21.44Q42.12-22.32 41.60-22.80L41.60-22.80Q40.76-23.60 39.80-23.60L39.80-23.60L39.32-23.60L39.32-24L47.48-24L47.48-23.60L47-23.60Q46.08-23.60 45.40-23Q44.72-22.40 44.68-21.52L44.68-21.52L44.68-2.52Q44.72-1.64 45.20-1.20L45.20-1.20Q46.08-0.40 47-0.40L47-0.40L47.48-0.40L47.48 0L39.32 0L39.32-0.40Z M58.56-22.98Q61.64-24.56 65.34-24.56Q69.04-24.56 72.12-22.98Q75.20-21.40 77.02-18.52Q78.84-15.64 78.84-12Q78.84-8.36 77.02-5.48Q75.20-2.60 72.12-1.02Q69.04 0.56 65.80 0.56Q62.56 0.56 60.08-0.36Q57.60-1.28 55.78-2.92Q53.96-4.56 52.90-6.92Q51.84-9.28 51.84-12.46Q51.84-15.64 53.66-18.52Q55.48-21.40 58.56-22.98ZM57.82-3.82Q60.84-0.64 65.32-0.64Q69.80-0.64 72.84-3.82Q75.88-7 75.88-12Q75.88-17 72.84-20.18Q69.80-23.36 65.32-23.36Q60.84-23.36 57.82-20.18Q54.80-17 54.80-12Q54.80-7 57.82-3.82Z M90.16-10.96L90.16-11.36Q91.08-11.12 91.84-11.12Q92.60-11.12 93.08-11.16Q93.56-11.20 94.44-11.42Q95.32-11.64 96.04-12.12L96.04-12.12Q97.72-13.16 98.52-15.40L98.52-15.40Q98.80-16.20 98.80-17.56L98.80-17.56Q98.80-20 97.12-21.40Q95.44-22.80 92.48-22.80L92.48-22.80L88.60-22.80L88.60-2.56Q88.64-1.28 89.76-0.68L89.76-0.68Q90.28-0.40 90.92-0.40L90.92-0.40L91.48-0.40L91.48 0L83.20 0L83.20-0.40L83.76-0.40Q84.72-0.40 85.38-1.02Q86.04-1.64 86.08-2.52L86.08-2.52L86.08-21.48Q86.04-22.40 85.38-23Q84.72-23.60 83.76-23.60L83.76-23.60L83.20-23.60L83.20-24L92.56-24Q96.76-24 99.22-22.16Q101.68-20.32 101.68-17.20L101.68-17.20Q101.68-14.96 100.64-13.28L100.64-13.28Q98.60-10 94.32-10L94.32-10Q92.20-10 90.16-10.96L90.16-10.96Z M106.36-1.64L106.36-1.64Q106.24-2.20 106.24-3.80Q106.24-5.40 106.84-7.20L106.84-7.20L107.20-7.20Q107.16-6.76 107.16-6.32L107.16-6.32Q107.16-3.88 108.64-2.26Q110.12-0.64 112.56-0.64L112.56-0.64Q115.08-0.64 116.70-2.16Q118.32-3.68 118.32-5.98Q118.32-8.28 116.76-9.72L116.76-9.72L109.08-16.84Q106.92-18.84 106.92-21.68Q106.92-24.52 108.82-26.54Q110.72-28.56 113.96-28.56L113.96-28.56Q115.48-28.56 117.40-28.16L117.40-28.16L118.96-28.16L118.96-23.24L118.60-23.24Q118.60-25.12 117.30-26.24Q116-27.36 113.96-27.36Q111.92-27.36 110.54-26Q109.16-24.64 109.16-22.60Q109.16-20.56 110.76-19.08L110.76-19.08L118.64-11.80Q120.64-9.96 120.64-6.76Q120.64-3.56 118.60-1.50Q116.56 0.56 113.16 0.56L113.16 0.56Q111.40 0.56 109.42 0.02Q107.44-0.52 106.36-1.64Z M132.88-10.96L132.88-11.36Q133.80-11.12 134.56-11.12Q135.32-11.12 135.80-11.16Q136.28-11.20 137.16-11.42Q138.04-11.64 138.76-12.12L138.76-12.12Q140.44-13.16 141.24-15.40L141.24-15.40Q141.52-16.20 141.52-17.56L141.52-17.56Q141.52-20 139.84-21.40Q138.16-22.80 135.20-22.80L135.20-22.80L131.32-22.80L131.32-2.56Q131.36-1.28 132.48-0.68L132.48-0.68Q133-0.40 133.64-0.40L133.64-0.40L134.20-0.40L134.20 0L125.92 0L125.92-0.40L126.48-0.40Q127.44-0.40 128.10-1.02Q128.76-1.64 128.80-2.52L128.80-2.52L128.80-21.48Q128.76-22.40 128.10-23Q127.44-23.60 126.48-23.60L126.48-23.60L125.92-23.60L125.92-24L135.28-24Q139.48-24 141.94-22.16Q144.40-20.32 144.40-17.20L144.40-17.20Q144.40-14.96 143.36-13.28L143.36-13.28Q141.32-10 137.04-10L137.04-10Q134.92-10 132.88-10.96L132.88-10.96Z M166.16-0.40L166.64-0.40Q167.56-0.40 168.24-1.02Q168.92-1.64 168.96-2.52L168.96-2.52L168.96-11.24L154.20-11.24L154.20-2.52Q154.24-1.64 154.92-1.02Q155.60-0.40 156.52-0.40L156.52-0.40L157-0.40L157 0L148.84 0L148.84-0.40L149.32-0.40Q150.28-0.40 150.94-1.04Q151.60-1.68 151.64-2.56L151.64-2.56L151.64-21.44Q151.60-22.32 150.92-22.96Q150.24-23.60 149.32-23.60L149.32-23.60L148.84-23.60L148.84-24L157-24L157-23.60L156.52-23.60Q155.60-23.60 154.92-22.98Q154.24-22.36 154.20-21.48L154.20-21.48L154.20-12.44L168.96-12.44L168.96-21.44Q168.96-22.32 168.44-22.80L168.44-22.80Q167.60-23.60 166.64-23.60L166.64-23.60L166.16-23.60L166.16-24L174.32-24L174.32-23.60L173.84-23.60Q172.92-23.60 172.24-23Q171.56-22.40 171.52-21.52L171.52-21.52L171.52-2.52Q171.56-1.64 172.04-1.20L172.04-1.20Q172.92-0.40 173.84-0.40L173.84-0.40L174.32-0.40L174.32 0L166.16 0L166.16-0.40Z M179.48-0.40L180.04-0.40Q181.00-0.40 181.66-1.02Q182.32-1.64 182.36-2.52L182.36-2.52L182.36-21.52Q182.36-22.40 181.68-23Q181.00-23.60 180.04-23.60L180.04-23.60L179.48-23.60L179.48-24L191.16-24Q192.80-24 194.04-24.24Q195.28-24.48 195.64-24.64L195.64-24.64L195.64-20.08L195.20-20.12L195.20-20.72Q195.20-21.56 194.64-22.16Q194.08-22.76 193.20-22.76L193.20-22.76L184.88-22.76L184.88-12.60L191.72-12.60Q192.52-12.60 192.94-13.08Q193.36-13.56 193.36-14.28L193.36-14.28L193.36-14.80L193.80-14.80L193.80-9.20L193.36-9.20L193.36-9.72Q193.36-10.84 192.52-11.24L192.52-11.24Q192.20-11.36 191.84-11.40L191.84-11.40L184.88-11.40L184.88-1.24L191.16-1.24Q193.00-1.24 194.26-1.88Q195.52-2.52 196.18-3.40Q196.84-4.28 197.52-5.72L197.52-5.72L197.92-5.72L195.72 0L179.48 0L179.48-0.40Z M209.20-22.76L209.20-22.76L207.08-22.76L207.08-2.56Q207.12-1.32 208.20-0.68L208.20-0.68Q208.72-0.40 209.36-0.40L209.36-0.40L209.88-0.40L209.92 0L201.72 0L201.72-0.40L202.28-0.40Q203.20-0.40 203.86-1.02Q204.52-1.64 204.52-2.52L204.52-2.52L204.52-21.52Q204.52-22.40 203.86-23Q203.20-23.60 202.28-23.60L202.28-23.60L201.72-23.60L201.72-24L211.76-24Q215.52-24 217.70-22.28Q219.88-20.56 219.88-17.76Q219.88-14.96 218.12-13.08Q216.36-11.20 213.64-10.92L213.64-10.92Q214.92-10.36 216.72-7.80L216.72-7.80Q216.68-7.80 218.10-6.04Q219.52-4.28 220.38-3.30Q221.24-2.32 221.80-1.80L221.80-1.80Q223.28-0.40 225.20-0.40L225.20-0.40L225.20 0L223.96 0Q220.80 0 219.00-1.24L219.00-1.24Q217.64-2.16 216.52-3.52L216.52-3.52Q216.28-3.84 214.50-6.34Q212.72-8.84 212.60-9L212.60-9Q210.44-11.68 208.56-11.68L208.56-11.68L208.56-12.08Q213.24-12.08 214.20-12.56L214.20-12.56Q215.52-13.24 216.00-14L216.00-14Q217.00-15.60 217.00-17.52L217.00-17.52Q217.00-19.96 215.56-21.28Q214.12-22.60 211.68-22.72L211.68-22.72Q210.60-22.76 209.20-22.76Z M227.60-0.40L228.16-0.40Q229.12-0.40 229.78-1.02Q230.44-1.64 230.48-2.52L230.48-2.52L230.48-21.52Q230.48-22.40 229.80-23Q229.12-23.60 228.16-23.60L228.16-23.60L227.60-23.60L227.60-24L239.28-24Q240.92-24 242.16-24.24Q243.40-24.48 243.76-24.64L243.76-24.64L243.76-20.08L243.32-20.12L243.32-20.72Q243.32-21.56 242.76-22.16Q242.20-22.76 241.32-22.76L241.32-22.76L233.00-22.76L233.00-12.60L239.84-12.60Q240.64-12.60 241.06-13.08Q241.48-13.56 241.48-14.28L241.48-14.28L241.48-14.80L241.92-14.80L241.92-9.20L241.48-9.20L241.48-9.72Q241.48-10.84 240.64-11.24L240.64-11.24Q240.32-11.36 239.96-11.40L239.96-11.40L233.00-11.40L233.00-1.24L239.28-1.24Q241.12-1.24 242.38-1.88Q243.64-2.52 244.30-3.40Q244.96-4.28 245.64-5.72L245.64-5.72L246.04-5.72L243.84 0L227.60 0L227.60-0.40Z"/></g>
</svg>
</g><g opacity="1" transform="rotate(0 243.5256 194.673)">
<svg width="178.6958" height="1.4" x="243.5256" y="194.673" version="1.1" preserveAspectRatio="none" viewBox="0 0 178.6958 1.4">
  <defs><rect x="0" y="0" width="178.6958" height="1.4" rx="0px" ry="0px" id="id-q6WP-wJgV1724895162888"></rect></defs><use class="icon1 aq6WP-wJgVstrokeColor-str" style="stroke-width:0;" xlink:href="#id-q6WP-wJgV1724895162888"></use>
</svg>
</g></svg></svg>