<svg version="1.1" preserveAspectRatio="none" xmlns="http://www.w3.org/2000/svg" width="500" height="500" viewBox="0 0 500 500"><rect width="100%" height="100%" fill="#008858" fill-opacity="1"/><svg viewBox="52.9401 190.3125 378.1626 104.8" width="333" height="92.28411270707363" x="83.5px" y="203.8579px" xmlns="http://www.w3.org/2000/svg" xmlns:xlink="http://www.w3.org/1999/xlink" preserveAspectRatio="none"><defs></defs><style>.companyName {fill:#EBE7D9;fill-opacity:1;}.icon1 {fill:#FDEAA0;fill-opacity:1;}.icon3-str {stroke:#3E5C6D;stroke-opacity:1;}.shapeStroke-str {stroke:#EBE7D9;stroke-opacity:1;}</style><g opacity="1" transform="rotate(0 52.9401 260.3125)">
<svg width="378.1626" height="2" x="52.9401" y="260.3125" version="1.1" preserveAspectRatio="none" viewBox="0 0 378.1626 2">
  <defs><rect x="0" y="0" width="378.1626" height="2" rx="4%" ry="4%" id="id-UPl23ini1724895042144"></rect></defs><use class="icon1 shapeStroke-str" style="stroke-width:0;" xlink:href="#id-UPl23ini1724895042144"></use>
</svg>
</g><g opacity="1" transform="rotate(0 64.9251 272.3125)">
<svg width="354.1926" height="22.8" x="64.9251" y="272.3125" version="1.1" preserveAspectRatio="none" viewBox="0.8 -31.64 639.4000000000001 41.16">
  <g transform="matrix(1 0 0 1 0 0)" class="icon1"><path id="id-6izo4zJp28" d="M35.28-31.24Q35.92-31.24 36.28-30.82Q36.64-30.40 36.64-29.76L36.64-29.76Q36.64-29.44 36.52-29L36.52-29L28.36-1.32Q28.16-0.68 27.74-0.34Q27.32 0 26.76 0L26.76 0Q26.20 0 25.78-0.36Q25.36-0.72 25.20-1.28L25.20-1.28L18.72-24.92L12.28-1.32Q12.08-0.72 11.66-0.36Q11.24 0 10.68 0L10.68 0Q10.12 0 9.70-0.36Q9.28-0.72 9.12-1.28L9.12-1.28L0.92-29Q0.80-29.44 0.80-29.72L0.80-29.72Q0.80-30.40 1.20-30.82Q1.60-31.24 2.24-31.24L2.24-31.24Q3.36-31.24 3.76-30.04L3.76-30.04L10.68-5.92L17.24-29.36Q17.36-29.80 17.78-30.08Q18.20-30.36 18.72-30.36L18.72-30.36Q19.24-30.36 19.64-30.08Q20.04-29.80 20.20-29.32L20.20-29.32L26.80-5.88L33.76-30.20Q34.08-31.24 35.28-31.24L35.28-31.24Z M53.08-22.12Q55.92-22.12 58.18-20.92Q60.44-19.72 61.72-17.42Q63-15.12 63-11.92L63-11.92L63-1.52Q63-0.88 62.56-0.44Q62.12 0 61.48 0L61.48 0Q60.80 0 60.36-0.44Q59.92-0.88 59.92-1.52L59.92-1.52L59.92-11.92Q59.92-15.48 57.94-17.34Q55.96-19.20 52.76-19.20L52.76-19.20Q50.80-19.20 49.22-18.44Q47.64-17.68 46.72-16.34Q45.80-15 45.80-13.36L45.80-13.36L45.80-1.52Q45.80-0.84 45.38-0.42Q44.96 0 44.28 0L44.28 0Q43.60 0 43.16-0.42Q42.72-0.84 42.72-1.52L42.72-1.52L42.72-29.68Q42.72-30.36 43.16-30.80Q43.60-31.24 44.28-31.24L44.28-31.24Q44.96-31.24 45.38-30.80Q45.80-30.36 45.80-29.68L45.80-29.68L45.80-18.96Q47.12-20.44 49.00-21.28Q50.88-22.12 53.08-22.12L53.08-22.12Z M80.72-22.08Q83.68-22.08 85.96-20.70Q88.24-19.32 89.50-16.88Q90.76-14.44 90.76-11.32L90.76-11.32Q90.76-10.68 90.36-10.30Q89.96-9.92 89.32-9.92L89.32-9.92L73.16-9.92Q73.48-6.64 75.72-4.60Q77.96-2.56 81.32-2.56L81.32-2.56Q82.76-2.56 84.22-3.06Q85.68-3.56 86.56-4.32L86.56-4.32Q87.08-4.72 87.64-4.72L87.64-4.72Q88.08-4.72 88.52-4.40L88.52-4.40Q89.04-3.92 89.04-3.32L89.04-3.32Q89.04-2.80 88.60-2.40L88.60-2.40Q87.28-1.28 85.24-0.54Q83.20 0.20 81.32 0.20L81.32 0.20Q78.12 0.20 75.60-1.22Q73.08-2.64 71.66-5.18Q70.24-7.72 70.24-10.92L70.24-10.92Q70.24-14.16 71.58-16.70Q72.92-19.24 75.30-20.66Q77.68-22.08 80.72-22.08L80.72-22.08ZM80.72-19.32Q77.68-19.32 75.68-17.44Q73.68-15.56 73.24-12.48L73.24-12.48L87.88-12.48Q87.56-15.56 85.64-17.44Q83.72-19.32 80.72-19.32L80.72-19.32Z M107.44-22.12Q109.12-22.12 110.10-21.68Q111.08-21.24 111.08-20.44L111.08-20.44Q111.08-20.20 111.04-20.08L111.04-20.08Q110.88-19.52 110.54-19.32Q110.20-19.12 109.60-19.12L109.60-19.12Q109.24-19.12 108.36-19.20L108.36-19.20Q108.04-19.24 107.40-19.24L107.40-19.24Q104.40-19.24 102.50-17.64Q100.60-16.04 100.60-13.48L100.60-13.48L100.60-1.52Q100.60-0.80 100.20-0.40Q99.80 0 99.08 0L99.08 0Q98.36 0 97.96-0.40Q97.56-0.80 97.56-1.52L97.56-1.52L97.56-20.36Q97.56-21.08 97.96-21.48Q98.36-21.88 99.08-21.88L99.08-21.88Q99.80-21.88 100.20-21.48Q100.60-21.08 100.60-20.36L100.60-20.36L100.60-18.60Q101.76-20.28 103.56-21.20Q105.36-22.12 107.44-22.12L107.44-22.12Z M125.20-22.08Q128.16-22.08 130.44-20.70Q132.72-19.32 133.98-16.88Q135.24-14.44 135.24-11.32L135.24-11.32Q135.24-10.68 134.84-10.30Q134.44-9.92 133.80-9.92L133.80-9.92L117.64-9.92Q117.96-6.64 120.20-4.60Q122.44-2.56 125.80-2.56L125.80-2.56Q127.24-2.56 128.70-3.06Q130.16-3.56 131.04-4.32L131.04-4.32Q131.56-4.72 132.12-4.72L132.12-4.72Q132.56-4.72 133-4.40L133-4.40Q133.52-3.92 133.52-3.32L133.52-3.32Q133.52-2.80 133.08-2.40L133.08-2.40Q131.76-1.28 129.72-0.54Q127.68 0.20 125.80 0.20L125.80 0.20Q122.60 0.20 120.08-1.22Q117.56-2.64 116.14-5.18Q114.72-7.72 114.72-10.92L114.72-10.92Q114.72-14.16 116.06-16.70Q117.40-19.24 119.78-20.66Q122.16-22.08 125.20-22.08L125.20-22.08ZM125.20-19.32Q122.16-19.32 120.16-17.44Q118.16-15.56 117.72-12.48L117.72-12.48L132.36-12.48Q132.04-15.56 130.12-17.44Q128.20-19.32 125.20-19.32L125.20-19.32Z M176.08-3Q176.76-3 177.20-2.58Q177.64-2.16 177.64-1.52L177.64-1.52Q177.64-0.88 177.20-0.44Q176.76 0 176.08 0L176.08 0L157.32 0Q156.68 0 156.22-0.46Q155.76-0.92 155.76-1.56L155.76-1.56L155.76-29.68Q155.76-30.36 156.22-30.80Q156.68-31.24 157.32-31.24L157.32-31.24L176.08-31.24Q176.76-31.24 177.20-30.80Q177.64-30.36 177.64-29.72L177.64-29.72Q177.64-29.08 177.20-28.66Q176.76-28.24 176.08-28.24L176.08-28.24L158.88-28.24L158.88-17.20L171.40-17.20Q172.08-17.20 172.52-16.76Q172.96-16.32 172.96-15.68L172.96-15.68Q172.96-15.04 172.50-14.60Q172.04-14.16 171.40-14.16L171.40-14.16L158.88-14.16L158.88-3L176.08-3Z M201.68-21.76Q202.52-21.36 202.52-20.48L202.52-20.48Q202.52-20.24 202.40-19.92L202.40-19.92L193.64-1.04Q193.12 0 192.12 0L192.12 0Q191.16 0 190.68-1.04L190.68-1.04L181.80-19.88Q181.68-20.12 181.68-20.44L181.68-20.44Q181.68-21.28 182.56-21.72L182.56-21.72Q182.84-21.88 183.20-21.88L183.20-21.88Q183.60-21.88 183.94-21.68Q184.28-21.48 184.44-21.08L184.44-21.08L192.12-4.44L199.72-21.08Q199.88-21.48 200.24-21.70Q200.60-21.92 201.04-21.92L201.04-21.92Q201.40-21.92 201.68-21.76L201.68-21.76Z M216.88-22.08Q219.84-22.08 222.12-20.70Q224.40-19.32 225.66-16.88Q226.92-14.44 226.92-11.32L226.92-11.32Q226.92-10.68 226.52-10.30Q226.12-9.92 225.48-9.92L225.48-9.92L209.32-9.92Q209.64-6.64 211.88-4.60Q214.12-2.56 217.48-2.56L217.48-2.56Q218.92-2.56 220.38-3.06Q221.84-3.56 222.72-4.32L222.72-4.32Q223.24-4.72 223.80-4.72L223.80-4.72Q224.24-4.72 224.68-4.40L224.68-4.40Q225.20-3.92 225.20-3.32L225.20-3.32Q225.20-2.80 224.76-2.40L224.76-2.40Q223.44-1.28 221.40-0.54Q219.36 0.20 217.48 0.20L217.48 0.20Q214.28 0.20 211.76-1.22Q209.24-2.64 207.82-5.18Q206.40-7.72 206.40-10.92L206.40-10.92Q206.40-14.16 207.74-16.70Q209.08-19.24 211.46-20.66Q213.84-22.08 216.88-22.08L216.88-22.08ZM216.88-19.32Q213.84-19.32 211.84-17.44Q209.84-15.56 209.40-12.48L209.40-12.48L224.04-12.48Q223.72-15.56 221.80-17.44Q219.88-19.32 216.88-19.32L216.88-19.32Z M243.60-22.12Q245.28-22.12 246.26-21.68Q247.24-21.24 247.24-20.44L247.24-20.44Q247.24-20.20 247.20-20.08L247.20-20.08Q247.04-19.52 246.70-19.32Q246.36-19.12 245.76-19.12L245.76-19.12Q245.40-19.12 244.52-19.20L244.52-19.20Q244.20-19.24 243.56-19.24L243.56-19.24Q240.56-19.24 238.66-17.64Q236.76-16.04 236.76-13.48L236.76-13.48L236.76-1.52Q236.76-0.80 236.36-0.40Q235.96 0 235.24 0L235.24 0Q234.52 0 234.12-0.40Q233.72-0.80 233.72-1.52L233.72-1.52L233.72-20.36Q233.72-21.08 234.12-21.48Q234.52-21.88 235.24-21.88L235.24-21.88Q235.96-21.88 236.36-21.48Q236.76-21.08 236.76-20.36L236.76-20.36L236.76-18.60Q237.92-20.28 239.72-21.20Q241.52-22.12 243.60-22.12L243.60-22.12Z M270.76-21.76Q271.68-21.40 271.68-20.60L271.68-20.60Q271.68-20.24 271.52-19.88L271.52-19.88L258.56 8.60Q258.20 9.52 257.40 9.52L257.40 9.52Q257.00 9.52 256.68 9.36L256.68 9.36Q255.76 9 255.76 8.16L255.76 8.16Q255.76 7.80 255.92 7.44L255.92 7.44L259.88-1.32L259.88-1.36L250.96-19.84Q250.80-20.16 250.80-20.56L250.80-20.56Q250.80-21.40 251.68-21.76L251.68-21.76Q252.00-21.92 252.40-21.92L252.40-21.92Q253.24-21.92 253.60-21.08L253.60-21.08L261.40-4.64L268.84-21.04Q269.24-21.92 270.04-21.92L270.04-21.92Q270.40-21.92 270.76-21.76L270.76-21.76Z M304.92-31.64Q307.80-31.64 310.16-30.80Q312.52-29.96 314.72-28.12L314.72-28.12Q315.16-27.80 315.16-27.20L315.16-27.20Q315.16-26.88 315.00-26.62Q314.84-26.36 314.56-26.24L314.56-26.24Q314.48-25.96 314.20-25.80Q313.92-25.64 313.60-25.64L313.60-25.64Q313.00-25.64 312.60-26L312.60-26Q311.04-27.40 309.20-28.04Q307.36-28.68 304.92-28.68L304.92-28.68Q301.56-28.68 298.68-26.90Q295.80-25.12 294.10-22.12Q292.40-19.12 292.40-15.64L292.40-15.64Q292.40-12.08 294.08-9.08Q295.76-6.08 298.64-4.32Q301.52-2.56 304.92-2.56L304.92-2.56Q309.28-2.56 312.80-5.36L312.80-5.36Q313.24-5.68 313.68-5.68L313.68-5.68Q314.28-5.68 314.72-5.26Q315.16-4.84 315.16-4.16L315.16-4.16Q315.16-3.52 314.72-3.04L314.72-3.04Q310.96 0.40 304.92 0.40L304.92 0.40Q300.68 0.40 297.12-1.76Q293.56-3.92 291.46-7.60Q289.36-11.28 289.36-15.64L289.36-15.64Q289.36-19.96 291.44-23.64Q293.52-27.32 297.08-29.48Q300.64-31.64 304.92-31.64L304.92-31.64Z M322.12-29.72Q322.12-30.40 322.56-30.82Q323.00-31.24 323.64-31.24L323.64-31.24Q324.32-31.24 324.74-30.82Q325.16-30.40 325.16-29.72L325.16-29.72L325.16-6.92Q325.16-5.20 325.86-4.12Q326.56-3.04 327.64-3.04L327.64-3.04L328.64-3.04Q329.24-3.04 329.60-2.62Q329.96-2.20 329.96-1.52L329.96-1.52Q329.96-0.84 329.46-0.42Q328.96 0 328.16 0L328.16 0L327.64 0Q325.20 0 323.66-1.94Q322.12-3.88 322.12-6.92L322.12-6.92L322.12-29.72Z M336.44-20.32Q336.44-21 336.88-21.44Q337.32-21.88 338.00-21.88L338.00-21.88Q338.68-21.88 339.10-21.44Q339.52-21 339.52-20.32L339.52-20.32L339.52-1.56Q339.52-0.88 339.10-0.44Q338.68 0 338.00 0L338.00 0Q337.32 0 336.88-0.44Q336.44-0.88 336.44-1.56L336.44-1.56L336.44-20.32ZM338.00-30.40Q338.88-30.40 339.52-29.80Q340.16-29.20 340.16-28.24L340.16-28.24Q340.16-27.32 339.52-26.68Q338.88-26.04 337.96-26.04L337.96-26.04Q337.04-26.04 336.42-26.68Q335.80-27.32 335.80-28.24L335.80-28.24Q335.80-29.20 336.44-29.80Q337.08-30.40 338.00-30.40L338.00-30.40Z M358.32-22.08Q363.32-22.08 366.44-18.24L366.44-18.24Q366.76-17.88 366.76-17.40L366.76-17.40Q366.76-16.76 366.08-16.28L366.08-16.28Q365.72-16.04 365.32-16.04L365.32-16.04Q364.72-16.04 364.16-16.64L364.16-16.64Q362.96-17.96 361.52-18.62Q360.08-19.28 358.32-19.28L358.32-19.28Q356.12-19.28 354.40-18.22Q352.68-17.16 351.74-15.24Q350.80-13.32 350.80-10.92L350.80-10.92Q350.80-8.56 351.80-6.66Q352.80-4.76 354.60-3.68Q356.40-2.60 358.72-2.60L358.72-2.60Q361.92-2.60 363.88-4.32L363.88-4.32Q364.40-4.76 364.96-4.76L364.96-4.76Q365.44-4.76 365.84-4.44L365.84-4.44Q366.40-3.96 366.40-3.36L366.40-3.36Q366.40-2.84 366.00-2.48L366.00-2.48Q363.12 0.20 358.72 0.20L358.72 0.20Q355.60 0.20 353.12-1.26Q350.64-2.72 349.22-5.26Q347.80-7.80 347.80-10.92L347.80-10.92Q347.80-14.12 349.16-16.66Q350.52-19.20 352.92-20.64Q355.32-22.08 358.32-22.08L358.32-22.08Z M390.92-2.20Q391.28-1.80 391.28-1.28L391.28-1.28Q391.28-0.68 390.72-0.20L390.72-0.20Q390.24 0.16 389.76 0.16L389.76 0.16Q389.12 0.16 388.68-0.40L388.68-0.40L380.44-10.52L377.44-7.80L377.44-1.52Q377.44-0.84 377.02-0.42Q376.60 0 375.92 0L375.92 0Q375.24 0 374.82-0.42Q374.40-0.84 374.40-1.52L374.40-1.52L374.40-29.72Q374.40-30.40 374.82-30.82Q375.24-31.24 375.92-31.24L375.92-31.24Q376.60-31.24 377.02-30.82Q377.44-30.40 377.44-29.72L377.44-29.72L377.44-11.52L388.72-21.72Q389.16-22.12 389.68-22.12L389.68-22.12Q390.28-22.12 390.68-21.64L390.68-21.64Q391.12-21.12 391.12-20.68L391.12-20.68Q391.12-20.12 390.60-19.68L390.60-19.68L382.60-12.44L390.92-2.20Z M423.88-31.24Q426.28-31.24 428.22-30.22Q430.16-29.20 431.30-27.40Q432.44-25.60 432.44-23.36L432.44-23.36Q432.44-21.24 431.30-19.56Q430.16-17.88 428.24-16.96L428.24-16.96Q431.00-16.20 432.60-14.22Q434.20-12.24 434.20-9.24L434.20-9.24Q434.20-6.56 432.96-4.46Q431.72-2.36 429.54-1.18Q427.36 0 424.56 0L424.56 0L414.36 0Q413.56 0 413.08-0.42Q412.60-0.84 412.60-1.56L412.60-1.56L412.60-29.68Q412.60-30.36 413.04-30.80Q413.48-31.24 414.16-31.24L414.16-31.24L423.88-31.24ZM423.88-18.20Q426.32-18.20 427.86-19.58Q429.40-20.96 429.40-23.36L429.40-23.36Q429.40-25.68 427.88-26.96Q426.36-28.24 423.88-28.24L423.88-28.24L415.72-28.24L415.72-18.20L423.88-18.20ZM424.56-3Q427.48-3 429.30-4.70Q431.12-6.40 431.12-9.24L431.12-9.24Q431.12-11.96 429.30-13.58Q427.48-15.20 424.56-15.20L424.56-15.20L415.72-15.20L415.72-3L424.56-3Z M451.48-22.12Q453.16-22.12 454.14-21.68Q455.12-21.24 455.12-20.44L455.12-20.44Q455.12-20.20 455.08-20.08L455.08-20.08Q454.92-19.52 454.58-19.32Q454.24-19.12 453.64-19.12L453.64-19.12Q453.28-19.12 452.40-19.20L452.40-19.20Q452.08-19.24 451.44-19.24L451.44-19.24Q448.44-19.24 446.54-17.64Q444.64-16.04 444.64-13.48L444.64-13.48L444.64-1.52Q444.64-0.80 444.24-0.40Q443.84 0 443.12 0L443.12 0Q442.40 0 442.00-0.40Q441.60-0.80 441.60-1.52L441.60-1.52L441.60-20.36Q441.60-21.08 442.00-21.48Q442.40-21.88 443.12-21.88L443.12-21.88Q443.84-21.88 444.24-21.48Q444.64-21.08 444.64-20.36L444.64-20.36L444.64-18.60Q445.80-20.28 447.60-21.20Q449.40-22.12 451.48-22.12L451.48-22.12Z M462.16-20.32Q462.16-21 462.60-21.44Q463.04-21.88 463.72-21.88L463.72-21.88Q464.40-21.88 464.82-21.44Q465.24-21 465.24-20.32L465.24-20.32L465.24-1.56Q465.24-0.88 464.82-0.44Q464.40 0 463.72 0L463.72 0Q463.04 0 462.60-0.44Q462.16-0.88 462.16-1.56L462.16-1.56L462.16-20.32ZM463.72-30.40Q464.60-30.40 465.24-29.80Q465.88-29.20 465.88-28.24L465.88-28.24Q465.88-27.32 465.24-26.68Q464.60-26.04 463.68-26.04L463.68-26.04Q462.76-26.04 462.14-26.68Q461.52-27.32 461.52-28.24L461.52-28.24Q461.52-29.20 462.16-29.80Q462.80-30.40 463.72-30.40L463.72-30.40Z M485.04-22.12Q487.88-22.12 490.14-20.92Q492.40-19.72 493.68-17.42Q494.96-15.12 494.96-11.92L494.96-11.92L494.96-1.52Q494.96-0.88 494.52-0.44Q494.08 0 493.44 0L493.44 0Q492.76 0 492.32-0.44Q491.88-0.88 491.88-1.52L491.88-1.52L491.88-11.92Q491.88-15.48 489.90-17.34Q487.92-19.20 484.72-19.20L484.72-19.20Q482.76-19.20 481.18-18.44Q479.60-17.68 478.68-16.34Q477.76-15 477.76-13.36L477.76-13.36L477.76-1.52Q477.76-0.84 477.34-0.42Q476.92 0 476.24 0L476.24 0Q475.56 0 475.12-0.42Q474.68-0.84 474.68-1.52L474.68-1.52L474.68-20.32Q474.68-21 475.12-21.44Q475.56-21.88 476.24-21.88L476.24-21.88Q476.92-21.88 477.34-21.44Q477.76-21 477.76-20.32L477.76-20.32L477.76-18.96Q479.08-20.44 480.96-21.28Q482.84-22.12 485.04-22.12L485.04-22.12Z M513.32-22.08Q516.52-22.08 519.04-20.66Q521.56-19.24 523.00-16.70Q524.44-14.16 524.44-10.92L524.44-10.92L524.44-2.76Q524.44 0.44 523.02 3.04Q521.60 5.64 519.08 7.14Q516.56 8.64 513.40 8.64L513.40 8.64Q510.32 8.64 507.92 7.48Q505.52 6.32 503.88 4.24L503.88 4.24Q503.52 3.84 503.52 3.32L503.52 3.32Q503.52 2.72 504.08 2.28L504.08 2.28Q504.48 2 504.96 2L504.96 2Q505.32 2 505.68 2.18Q506.04 2.36 506.24 2.64L506.24 2.64Q507.44 4.16 509.28 5Q511.12 5.84 513.44 5.84L513.44 5.84Q515.68 5.84 517.50 4.74Q519.32 3.64 520.36 1.66Q521.40-0.32 521.40-2.88L521.40-2.88L521.40-4.68Q520.20-2.40 518.00-1.10Q515.80 0.20 513.00 0.20L513.00 0.20Q509.88 0.20 507.42-1.22Q504.96-2.64 503.58-5.18Q502.20-7.72 502.20-10.92L502.20-10.92Q502.20-14.16 503.64-16.70Q505.08-19.24 507.62-20.66Q510.16-22.08 513.32-22.08L513.32-22.08ZM513.32-2.60Q515.64-2.60 517.48-3.66Q519.32-4.72 520.36-6.62Q521.40-8.52 521.40-10.92L521.40-10.92Q521.40-13.32 520.36-15.22Q519.32-17.12 517.48-18.20Q515.64-19.28 513.32-19.28L513.32-19.28Q510.96-19.28 509.12-18.20Q507.28-17.12 506.24-15.22Q505.20-13.32 505.20-10.92L505.20-10.92Q505.20-8.52 506.24-6.62Q507.28-4.72 509.12-3.66Q510.96-2.60 513.32-2.60L513.32-2.60Z M539.60-22.08Q542.24-22.08 544.20-21.18Q546.16-20.28 547.36-18.68L547.36-18.68Q547.68-18.16 547.68-17.76L547.68-17.76Q547.68-17.08 547.04-16.68L547.04-16.68Q546.76-16.48 546.28-16.48L546.28-16.48Q545.44-16.48 544.88-17.08L544.88-17.08Q542.92-19.32 539.52-19.32L539.52-19.32Q537.32-19.32 536.00-18.42Q534.68-17.52 534.68-16.16L534.68-16.16Q534.68-14.72 535.92-13.86Q537.16-13 540.32-12.48L540.32-12.48Q544.60-11.76 546.44-10.14Q548.28-8.52 548.28-6.12L548.28-6.12Q548.28-4.28 547.18-2.84Q546.08-1.40 544.12-0.60Q542.16 0.20 539.68 0.20L539.68 0.20Q537.20 0.20 534.92-0.64Q532.64-1.48 531.24-3L531.24-3Q530.84-3.48 530.84-3.92L530.84-3.92Q530.84-4.60 531.48-5.12L531.48-5.12Q531.96-5.48 532.48-5.48L532.48-5.48Q533.16-5.48 533.64-4.92L533.64-4.92Q534.60-3.80 536.18-3.20Q537.76-2.60 539.68-2.60L539.68-2.60Q542.48-2.60 543.88-3.56Q545.28-4.52 545.32-6.08L545.32-6.08Q545.32-7.52 543.92-8.48Q542.52-9.44 539.48-9.92L539.48-9.92Q535.56-10.56 533.62-12.14Q531.68-13.72 531.68-15.96L531.68-15.96Q531.68-18.88 533.94-20.48Q536.20-22.08 539.60-22.08L539.60-22.08Z M585.48-8.96Q585.48-6.36 584.24-4.22Q583.00-2.08 580.86-0.84Q578.72 0.40 576.12 0.40L576.12 0.40Q573.48 0.40 571.34-0.84Q569.20-2.08 567.96-4.22Q566.72-6.36 566.72-8.96L566.72-8.96Q566.72-9.64 567.16-10.08Q567.60-10.52 568.28-10.52L568.28-10.52Q568.96-10.52 569.40-10.08Q569.84-9.64 569.84-8.96L569.84-8.96Q569.84-7.16 570.68-5.70Q571.52-4.24 572.96-3.40Q574.40-2.56 576.12-2.56L576.12-2.56Q577.84-2.56 579.28-3.42Q580.72-4.28 581.54-5.74Q582.36-7.20 582.36-8.96L582.36-8.96L582.36-29.68Q582.36-30.36 582.82-30.80Q583.28-31.24 583.92-31.24L583.92-31.24Q584.60-31.24 585.04-30.80Q585.48-30.36 585.48-29.68L585.48-29.68L585.48-8.96Z M604.64-22.08Q607.80-22.08 610.32-20.64Q612.84-19.20 614.30-16.64Q615.76-14.08 615.76-10.92L615.76-10.92Q615.76-7.76 614.32-5.22Q612.88-2.68 610.34-1.24Q607.80 0.20 604.64 0.20L604.64 0.20Q601.48 0.20 598.94-1.24Q596.40-2.68 594.96-5.22Q593.52-7.76 593.52-10.92L593.52-10.92Q593.52-14.08 594.96-16.64Q596.40-19.20 598.94-20.64Q601.48-22.08 604.64-22.08L604.64-22.08ZM604.64-19.28Q602.36-19.28 600.50-18.20Q598.64-17.12 597.58-15.22Q596.52-13.32 596.52-10.92L596.52-10.92Q596.52-8.56 597.58-6.66Q598.64-4.76 600.50-3.68Q602.36-2.60 604.64-2.60L604.64-2.60Q606.96-2.60 608.80-3.68Q610.64-4.76 611.68-6.66Q612.72-8.56 612.72-10.92L612.72-10.92Q612.72-13.32 611.68-15.22Q610.64-17.12 608.80-18.20Q606.96-19.28 604.64-19.28L604.64-19.28Z M639.28-21.76Q640.20-21.40 640.20-20.60L640.20-20.60Q640.20-20.24 640.04-19.88L640.04-19.88L627.08 8.60Q626.72 9.52 625.92 9.52L625.92 9.52Q625.52 9.52 625.20 9.36L625.20 9.36Q624.28 9 624.28 8.16L624.28 8.16Q624.28 7.80 624.44 7.44L624.44 7.44L628.40-1.32L628.40-1.36L619.48-19.84Q619.32-20.16 619.32-20.56L619.32-20.56Q619.32-21.40 620.20-21.76L620.20-21.76Q620.52-21.92 620.92-21.92L620.92-21.92Q621.76-21.92 622.12-21.08L622.12-21.08L629.92-4.64L637.36-21.04Q637.76-21.92 638.56-21.92L638.56-21.92Q638.92-21.92 639.28-21.76L639.28-21.76Z"/></g>
</svg>
</g><g opacity="1" transform="rotate(0 52.9401 190.3125)">
<svg width="378.1626" height="60" x="52.9401" y="190.3125" version="1.1" preserveAspectRatio="none" viewBox="2.28 -31.6 258.16 40.96">
  <g transform="matrix(1 0 0 1 0 0)" class="companyName"><path id="id-D6z1nYkh11" d="M14.48-31.60Q17.92-31.60 20.28-30.20Q22.64-28.80 24.28-26.20L24.28-26.20Q24.76-25.44 24.76-24.76L24.76-24.76Q24.76-23.88 23.96-23.32L23.96-23.32Q23.52-23.04 22.92-23.04L22.92-23.04Q22.32-23.04 21.80-23.34Q21.28-23.64 21-24.16L21-24.16Q19.92-25.96 18.30-26.90Q16.68-27.84 14.20-27.84L14.20-27.84Q11.16-27.84 9.28-26.66Q7.40-25.48 7.40-23.24L7.40-23.24Q7.40-21.16 9.08-19.76Q10.76-18.36 15.08-17.92L15.08-17.92Q19.88-17.44 22.52-15.02Q25.16-12.60 25.16-8.64L25.16-8.64Q25.16-5.76 23.60-3.70Q22.04-1.64 19.46-0.62Q16.88 0.40 13.92 0.40L13.92 0.40Q10.04 0.40 6.86-1.36Q3.68-3.12 2.48-5.96L2.48-5.96Q2.28-6.44 2.28-6.76L2.28-6.76Q2.28-7.36 2.72-7.82Q3.16-8.28 3.92-8.44L3.92-8.44Q4.04-8.48 4.32-8.48L4.32-8.48Q4.96-8.48 5.54-8.10Q6.12-7.72 6.40-7.08L6.40-7.08Q7.12-5.52 9.24-4.44Q11.36-3.36 13.92-3.36L13.92-3.36Q16.92-3.36 19-4.74Q21.08-6.12 21.08-8.52L21.08-8.52Q21.08-10.80 19.32-12.42Q17.56-14.04 13.96-14.40L13.96-14.40Q9-14.88 6.16-17.30Q3.32-19.72 3.32-23.36L3.32-23.36Q3.32-25.92 4.78-27.78Q6.24-29.64 8.78-30.62Q11.32-31.60 14.48-31.60L14.48-31.60Z M42-22.08Q44.76-22.08 46.96-20.88Q49.16-19.68 50.40-17.38Q51.64-15.08 51.64-11.84L51.64-11.84L51.64-2Q51.64-1.12 51.06-0.54Q50.48 0.04 49.60 0.04L49.60 0.04Q48.72 0.04 48.14-0.54Q47.56-1.12 47.56-2L47.56-2L47.56-11.84Q47.56-15.08 45.82-16.74Q44.08-18.40 41.20-18.40L41.20-18.40Q39.52-18.40 38.14-17.72Q36.76-17.04 35.98-15.88Q35.20-14.72 35.20-13.28L35.20-13.28L35.20-2Q35.20-1.12 34.64-0.54Q34.08 0.04 33.16 0.04L33.16 0.04Q32.28 0.04 31.70-0.54Q31.12-1.12 31.12-2L31.12-2L31.12-29.20Q31.12-30.12 31.70-30.68Q32.28-31.24 33.16-31.24L33.16-31.24Q34.08-31.24 34.64-30.68Q35.20-30.12 35.20-29.20L35.20-29.20L35.20-19.40Q36.48-20.68 38.24-21.38Q40-22.08 42-22.08L42-22.08Z M68.36-22.04Q71.52-22.04 74.02-20.62Q76.52-19.20 77.94-16.68Q79.36-14.16 79.36-10.92L79.36-10.92Q79.36-7.72 77.96-5.20Q76.56-2.68 74.06-1.26Q71.56 0.16 68.36 0.16L68.36 0.16Q65.16 0.16 62.64-1.26Q60.12-2.68 58.72-5.20Q57.32-7.72 57.32-10.92L57.32-10.92Q57.32-14.16 58.72-16.68Q60.12-19.20 62.64-20.62Q65.16-22.04 68.36-22.04L68.36-22.04ZM68.36-18.44Q66.32-18.44 64.70-17.48Q63.08-16.52 62.16-14.80Q61.24-13.08 61.24-10.92L61.24-10.92Q61.24-8.76 62.16-7.06Q63.08-5.36 64.70-4.40Q66.32-3.44 68.36-3.44L68.36-3.44Q70.40-3.44 72.02-4.40Q73.64-5.36 74.54-7.06Q75.44-8.76 75.44-10.92L75.44-10.92Q75.44-13.08 74.54-14.80Q73.64-16.52 72.02-17.48Q70.40-18.44 68.36-18.44L68.36-18.44Z M96.44-22.04Q99.52-22.04 102.06-20.58Q104.60-19.12 106.04-16.58Q107.48-14.04 107.48-10.92L107.48-10.92Q107.48-7.80 106.14-5.26Q104.80-2.72 102.46-1.28Q100.12 0.16 97.24 0.16L97.24 0.16Q94.92 0.16 92.92-0.80Q90.92-1.76 89.52-3.48L89.52-3.48L89.52 7.32Q89.52 8.24 88.96 8.80Q88.40 9.36 87.48 9.36L87.48 9.36Q86.60 9.36 86.02 8.80Q85.44 8.24 85.44 7.32L85.44 7.32L85.44-10.92Q85.44-14.04 86.90-16.58Q88.36-19.12 90.86-20.58Q93.36-22.04 96.44-22.04L96.44-22.04ZM96.44-3.44Q98.44-3.44 100.06-4.42Q101.68-5.40 102.62-7.10Q103.56-8.80 103.56-10.92L103.56-10.92Q103.56-13.04 102.62-14.76Q101.68-16.48 100.06-17.46Q98.44-18.44 96.44-18.44L96.44-18.44Q94.44-18.44 92.82-17.46Q91.20-16.48 90.28-14.76Q89.36-13.04 89.36-10.92L89.36-10.92Q89.36-8.80 90.28-7.10Q91.20-5.40 92.82-4.42Q94.44-3.44 96.44-3.44L96.44-3.44Z M124.44-31.60Q127.88-31.60 130.24-30.20Q132.60-28.80 134.24-26.20L134.24-26.20Q134.72-25.44 134.72-24.76L134.72-24.76Q134.72-23.88 133.92-23.32L133.92-23.32Q133.48-23.04 132.88-23.04L132.88-23.04Q132.28-23.04 131.76-23.34Q131.24-23.64 130.96-24.16L130.96-24.16Q129.88-25.96 128.26-26.90Q126.64-27.84 124.16-27.84L124.16-27.84Q121.12-27.84 119.24-26.66Q117.36-25.48 117.36-23.24L117.36-23.24Q117.36-21.16 119.04-19.76Q120.72-18.36 125.04-17.92L125.04-17.92Q129.84-17.44 132.48-15.02Q135.12-12.60 135.12-8.64L135.12-8.64Q135.12-5.76 133.56-3.70Q132-1.64 129.42-0.62Q126.84 0.40 123.88 0.40L123.88 0.40Q120.00 0.40 116.82-1.36Q113.64-3.12 112.44-5.96L112.44-5.96Q112.24-6.44 112.24-6.76L112.24-6.76Q112.24-7.36 112.68-7.82Q113.12-8.28 113.88-8.44L113.88-8.44Q114.00-8.48 114.28-8.48L114.28-8.48Q114.92-8.48 115.50-8.10Q116.08-7.72 116.36-7.08L116.36-7.08Q117.08-5.52 119.20-4.44Q121.32-3.36 123.88-3.36L123.88-3.36Q126.88-3.36 128.96-4.74Q131.04-6.12 131.04-8.52L131.04-8.52Q131.04-10.80 129.28-12.42Q127.52-14.04 123.92-14.40L123.92-14.40Q118.96-14.88 116.12-17.30Q113.28-19.72 113.28-23.36L113.28-23.36Q113.28-25.92 114.74-27.78Q116.20-29.64 118.74-30.62Q121.28-31.60 124.44-31.60L124.44-31.60Z M152.08-22.04Q155.16-22.04 157.70-20.58Q160.24-19.12 161.68-16.58Q163.12-14.04 163.12-10.92L163.12-10.92Q163.12-7.80 161.78-5.26Q160.44-2.72 158.10-1.28Q155.76 0.16 152.88 0.16L152.88 0.16Q150.56 0.16 148.56-0.80Q146.56-1.76 145.16-3.48L145.16-3.48L145.16 7.32Q145.16 8.24 144.60 8.80Q144.04 9.36 143.12 9.36L143.12 9.36Q142.24 9.36 141.66 8.80Q141.08 8.24 141.08 7.32L141.08 7.32L141.08-10.92Q141.08-14.04 142.54-16.58Q144.00-19.12 146.50-20.58Q149.00-22.04 152.08-22.04L152.08-22.04ZM152.08-3.44Q154.08-3.44 155.70-4.42Q157.32-5.40 158.26-7.10Q159.20-8.80 159.20-10.92L159.20-10.92Q159.20-13.04 158.26-14.76Q157.32-16.48 155.70-17.46Q154.08-18.44 152.08-18.44L152.08-18.44Q150.08-18.44 148.46-17.46Q146.84-16.48 145.92-14.76Q145.00-13.04 145.00-10.92L145.00-10.92Q145.00-8.80 145.92-7.10Q146.84-5.40 148.46-4.42Q150.08-3.44 152.08-3.44L152.08-3.44Z M180.08-22.08Q182.84-22.08 185.04-20.88Q187.24-19.68 188.48-17.38Q189.72-15.08 189.72-11.84L189.72-11.84L189.72-2Q189.72-1.12 189.14-0.54Q188.56 0.04 187.68 0.04L187.68 0.04Q186.80 0.04 186.22-0.54Q185.64-1.12 185.64-2L185.64-2L185.64-11.84Q185.64-15.08 183.90-16.74Q182.16-18.40 179.28-18.40L179.28-18.40Q177.60-18.40 176.22-17.72Q174.84-17.04 174.06-15.88Q173.28-14.72 173.28-13.28L173.28-13.28L173.28-2Q173.28-1.12 172.72-0.54Q172.16 0.04 171.24 0.04L171.24 0.04Q170.36 0.04 169.78-0.54Q169.20-1.12 169.20-2L169.20-2L169.20-29.20Q169.20-30.12 169.78-30.68Q170.36-31.24 171.24-31.24L171.24-31.24Q172.16-31.24 172.72-30.68Q173.28-30.12 173.28-29.20L173.28-29.20L173.28-19.40Q174.56-20.68 176.32-21.38Q178.08-22.08 180.08-22.08L180.08-22.08Z M216.16-11.28Q216.16-10.52 215.64-10.02Q215.12-9.52 214.32-9.52L214.32-9.52L199.12-9.52Q199.56-6.72 201.66-5Q203.76-3.28 206.80-3.28L206.80-3.28Q208.00-3.28 209.30-3.72Q210.60-4.16 211.44-4.80L211.44-4.80Q212.00-5.24 212.76-5.24L212.76-5.24Q213.52-5.24 213.96-4.84L213.96-4.84Q214.68-4.24 214.68-3.48L214.68-3.48Q214.68-2.76 214.04-2.28L214.04-2.28Q212.68-1.20 210.66-0.52Q208.64 0.16 206.80 0.16L206.80 0.16Q203.52 0.16 200.92-1.26Q198.32-2.68 196.86-5.20Q195.40-7.72 195.40-10.92L195.40-10.92Q195.40-14.12 196.78-16.66Q198.16-19.20 200.62-20.62Q203.08-22.04 206.20-22.04L206.20-22.04Q209.28-22.04 211.52-20.68Q213.76-19.32 214.96-16.88Q216.16-14.44 216.16-11.28L216.16-11.28ZM206.20-18.60Q203.28-18.60 201.46-17Q199.64-15.40 199.16-12.72L199.16-12.72L212.48-12.72Q212.12-15.40 210.48-17Q208.84-18.60 206.20-18.60L206.20-18.60Z M232.08-22.12Q234.20-22.12 235.40-21.48Q236.60-20.84 236.60-19.88L236.60-19.88Q236.60-19.60 236.56-19.48L236.56-19.48Q236.20-18.20 234.96-18.20L234.96-18.20Q234.76-18.20 234.36-18.28L234.36-18.28Q232.76-18.56 231.76-18.56L231.76-18.56Q228.88-18.56 227.12-17.24Q225.36-15.92 225.36-13.68L225.36-13.68L225.36-2Q225.36-1.04 224.86-0.52Q224.36 0 223.36 0L223.36 0Q222.40 0 221.88-0.50Q221.36-1 221.36-2L221.36-2L221.36-19.88Q221.36-20.84 221.88-21.36Q222.40-21.88 223.36-21.88L223.36-21.88Q225.36-21.88 225.36-19.88L225.36-19.88L225.36-19.12Q226.56-20.52 228.32-21.32Q230.08-22.12 232.08-22.12L232.08-22.12Z M258.84-11.28Q258.84-10.52 258.32-10.02Q257.80-9.52 257-9.52L257-9.52L241.80-9.52Q242.24-6.72 244.34-5Q246.44-3.28 249.48-3.28L249.48-3.28Q250.68-3.28 251.98-3.72Q253.28-4.16 254.12-4.80L254.12-4.80Q254.68-5.24 255.44-5.24L255.44-5.24Q256.20-5.24 256.64-4.84L256.64-4.84Q257.36-4.24 257.36-3.48L257.36-3.48Q257.36-2.76 256.72-2.28L256.72-2.28Q255.36-1.20 253.34-0.52Q251.32 0.16 249.48 0.16L249.48 0.16Q246.20 0.16 243.60-1.26Q241.00-2.68 239.54-5.20Q238.08-7.72 238.08-10.92L238.08-10.92Q238.08-14.12 239.46-16.66Q240.84-19.20 243.30-20.62Q245.76-22.04 248.88-22.04L248.88-22.04Q251.96-22.04 254.20-20.68Q256.44-19.32 257.64-16.88Q258.84-14.44 258.84-11.28L258.84-11.28ZM248.88-18.60Q245.96-18.60 244.14-17Q242.32-15.40 241.84-12.72L241.84-12.72L255.16-12.72Q254.80-15.40 253.16-17Q251.52-18.60 248.88-18.60L248.88-18.60Z"/></g>
</svg>
</g></svg></svg>